<svg xmlns="http://www.w3.org/2000/svg" xmlns:xlink="http://www.w3.org/1999/xlink" width="2119.765" height="1432.733" viewBox="0 0 2119.765 1432.733"><defs><filter id="a" x="1487.5" y="938.233" width="101" height="101" filterUnits="userSpaceOnUse"><feOffset dy="10" input="SourceAlpha"/><feGaussianBlur stdDeviation="7.5" result="b"/><feFlood flood-color="#152631" flood-opacity="0.22"/><feComposite operator="in" in2="b"/><feComposite in="SourceGraphic"/></filter><filter id="c" x="1487.5" y="946.233" width="101" height="101" filterUnits="userSpaceOnUse"><feOffset dy="10" input="SourceAlpha"/><feGaussianBlur stdDeviation="7.5" result="d"/><feFlood flood-color="#152631" flood-opacity="0.22"/><feComposite operator="in" in2="d"/><feComposite in="SourceGraphic"/></filter><filter id="e" x="319" y="561.733" width="105" height="105" filterUnits="userSpaceOnUse"><feOffset dy="10" input="SourceAlpha"/><feGaussianBlur stdDeviation="10" result="f"/><feFlood flood-color="#192837" flood-opacity="0.251"/><feComposite operator="in" in2="f"/><feComposite in="SourceGraphic"/></filter><filter id="g" x="1481" y="169.733" width="115" height="115" filterUnits="userSpaceOnUse"><feOffset dy="10" input="SourceAlpha"/><feGaussianBlur stdDeviation="10" result="h"/><feFlood flood-color="#1e243d" flood-opacity="0.251"/><feComposite operator="in" in2="h"/><feComposite in="SourceGraphic"/></filter><filter id="i" x="430" y="151.733" width="150" height="150" filterUnits="userSpaceOnUse"><feOffset dy="10" input="SourceAlpha"/><feGaussianBlur stdDeviation="10" result="j"/><feFlood flood-color="#142c38" flood-opacity="0.251"/><feComposite operator="in" in2="j"/><feComposite in="SourceGraphic"/></filter><filter id="k" x="419" y="903.733" width="176" height="176" filterUnits="userSpaceOnUse"><feOffset dy="20" input="SourceAlpha"/><feGaussianBlur stdDeviation="15" result="l"/><feFlood flood-color="#181e36" flood-opacity="0.263"/><feComposite operator="in" in2="l"/><feComposite in="SourceGraphic"/></filter><filter id="m" x="1554" y="531.733" width="230" height="230" filterUnits="userSpaceOnUse"><feOffset dy="20" input="SourceAlpha"/><feGaussianBlur stdDeviation="20" result="n"/><feFlood flood-color="#315872" flood-opacity="0.251"/><feComposite operator="in" in2="n"/><feComposite in="SourceGraphic"/></filter><clipPath id="o"><path d="M0,55a55,55,0,1,1,55,55A55,55,0,0,1,0,55Z" fill="#00bfa5"/></clipPath><filter id="p" x="1487.5" y="938.233" width="101" height="101" filterUnits="userSpaceOnUse"><feOffset dy="10" input="SourceAlpha"/><feGaussianBlur stdDeviation="7.5" result="q"/><feFlood flood-color="#152631" flood-opacity="0.22"/><feComposite operator="in" in2="q"/><feComposite in="SourceGraphic"/></filter><clipPath id="r"><g transform="matrix(1, 0, 0, 1, 0, 0)" filter="url(#a)"><circle cx="28" cy="28" r="28" fill="#00bfa5"/></g></clipPath><filter id="s" x="1487.5" y="946.233" width="101" height="101" filterUnits="userSpaceOnUse"><feOffset dy="10" input="SourceAlpha"/><feGaussianBlur stdDeviation="7.5" result="t"/><feFlood flood-color="#152631" flood-opacity="0.22"/><feComposite operator="in" in2="t"/><feComposite in="SourceGraphic"/></filter><filter id="v" x="319" y="561.733" width="105" height="105" filterUnits="userSpaceOnUse"><feOffset dy="10" input="SourceAlpha"/><feGaussianBlur stdDeviation="10" result="w"/><feFlood flood-color="#192837" flood-opacity="0.251"/><feComposite operator="in" in2="w"/><feComposite in="SourceGraphic"/></filter><clipPath id="x"><g transform="matrix(1, 0, 0, 1, 0, 0)" filter="url(#e)"><circle cx="22.5" cy="22.5" r="22.5" fill="#00bfa5"/></g></clipPath><filter id="y" x="1481" y="169.733" width="115" height="115" filterUnits="userSpaceOnUse"><feOffset dy="10" input="SourceAlpha"/><feGaussianBlur stdDeviation="10" result="z"/><feFlood flood-color="#1e243d" flood-opacity="0.251"/><feComposite operator="in" in2="z"/><feComposite in="SourceGraphic"/></filter><clipPath id="aa"><g transform="matrix(1, 0, 0, 1, 0, 0)" filter="url(#g)"><circle cx="27.5" cy="27.5" r="27.5" fill="#00bfa5"/></g></clipPath><filter id="ab" x="430" y="151.733" width="150" height="150" filterUnits="userSpaceOnUse"><feOffset dy="10" input="SourceAlpha"/><feGaussianBlur stdDeviation="10" result="ac"/><feFlood flood-color="#142c38" flood-opacity="0.251"/><feComposite operator="in" in2="ac"/><feComposite in="SourceGraphic"/></filter><clipPath id="ad"><g transform="matrix(1, 0, 0, 1, 0, 0)" filter="url(#i)"><circle cx="45" cy="45" r="45" transform="translate(0 0)" fill="#00bfa5"/></g></clipPath><filter id="ae" x="419" y="903.733" width="176" height="176" filterUnits="userSpaceOnUse"><feOffset dy="20" input="SourceAlpha"/><feGaussianBlur stdDeviation="15" result="af"/><feFlood flood-color="#181e36" flood-opacity="0.263"/><feComposite operator="in" in2="af"/><feComposite in="SourceGraphic"/></filter><clipPath id="ag"><g transform="matrix(1, 0, 0, 1, 0, 0)" filter="url(#k)"><circle cx="43" cy="43" r="43" fill="#00bfa5"/></g></clipPath></defs><g transform="translate(35 -7237.267)"><g transform="translate(70 835)"><g transform="translate(-105 6402.267)"><path d="M21.451,514.278s226.5,143,479.5,174,353.449-186.5,341.961-298c-5.224-50.7,12.372-187.249,95.9-272.5,41.641-42.5,197.828-185,512.31-73.5s402.53,94,586.759-32,0,1041,0,1041-181.706,191-463.1,58.5-704.111-318.5-812.63,27.5-740.7,164-762.156,296" transform="translate(0 -2.545)" fill="#3d5afe" opacity="0.03"/></g><g transform="translate(239 6422)"><path d="M450,0S321.858,96.406,363.9,263.243,241.769,474.537,177.7,436.075,0,326.681,0,326.681" fill="none" stroke="#00bfa5" stroke-miterlimit="10" stroke-width="1" opacity="0.2"/><path d="M0,38.977S71,61.463,89,0" transform="translate(198 314)" fill="none" stroke="#00bfa5" stroke-miterlimit="10" stroke-width="1" opacity="0.2"/></g><g transform="translate(244 6574)" opacity="0.15"><g transform="translate(1265 400)"><g transform="matrix(1, 0, 0, 1, -1614, -571.73)" filter="url(#m)"><circle cx="55" cy="55" r="55" transform="translate(1614 571.73)" fill="#00bfa5"/></g><circle cx="55" cy="55" r="55" fill="#00bfa5"/></g><g transform="translate(1161 779)"><g transform="matrix(1, 0, 0, 1, -1510, -950.73)" filter="url(#p)"><circle cx="28" cy="28" r="28" transform="translate(1510 950.73)" fill="#00bfa5"/></g></g><g transform="translate(1161 787)"><g transform="matrix(1, 0, 0, 1, -1510, -958.73)" filter="url(#s)"><circle cx="28" cy="28" r="28" transform="translate(1510 958.73)" fill="#00bfa5"/></g></g><g transform="translate(0 410)"><g transform="matrix(1, 0, 0, 1, -349, -581.73)" filter="url(#v)"><circle cx="22.5" cy="22.5" r="22.5" transform="translate(349 581.73)" fill="#00bfa5"/></g></g><g transform="translate(1162 18)"><g transform="matrix(1, 0, 0, 1, -1511, -189.73)" filter="url(#y)"><circle cx="27.5" cy="27.5" r="27.5" transform="translate(1511 189.73)" fill="#00bfa5"/></g></g><g transform="translate(111)"><g transform="matrix(1, 0, 0, 1, -460, -171.73)" filter="url(#ab)"><circle cx="45" cy="45" r="45" transform="translate(460 171.73)" fill="#00bfa5"/></g></g><g transform="translate(115 757)"><g transform="matrix(1, 0, 0, 1, -464, -928.73)" filter="url(#ae)"><circle cx="43" cy="43" r="43" transform="translate(464 928.73)" fill="#00bfa5"/></g></g></g><g transform="translate(921 6913)" opacity="0.1"><path d="M25.477,30.818a20.654,20.654,0,0,0-5.828-.87,17.966,17.966,0,0,0-7.308,1.531c1.837-6.879,6.25-18.749,15.041-20.086a2.105,2.105,0,0,0,1.7-1.537l1.921-7.029a2.176,2.176,0,0,0-.266-1.747A2.084,2.084,0,0,0,29.28.137,14.272,14.272,0,0,0,27.314,0C16.762,0,6.312,11.266,1.9,27.4-.686,36.86-1.445,51.088,4.931,60.044,8.5,65.055,13.7,67.731,20.4,68l.082,0A18.644,18.644,0,0,0,38.308,54.156a19.2,19.2,0,0,0-1.7-14.393A18.64,18.64,0,0,0,25.477,30.818Z" fill="#00bfa5"/><path d="M36.611,39.763a18.638,18.638,0,0,0-11.134-8.946,20.653,20.653,0,0,0-5.827-.87,17.971,17.971,0,0,0-7.309,1.531C14.177,24.6,18.59,12.73,27.382,11.393a2.106,2.106,0,0,0,1.7-1.537l1.921-7.029a2.176,2.176,0,0,0-.266-1.747A2.081,2.081,0,0,0,29.28.137,14.254,14.254,0,0,0,27.314,0C16.763,0,6.312,11.266,1.9,27.4-.686,36.86-1.445,51.088,4.932,60.045,8.5,65.055,13.706,67.732,20.4,68l.083,0A18.645,18.645,0,0,0,38.309,54.156,19.21,19.21,0,0,0,36.611,39.763Z" transform="translate(40)" fill="#00bfa5"/></g></g></g></svg>