<svg xmlns="http://www.w3.org/2000/svg" width="1670.124" height="713" viewBox="0 0 1670.124 713"><g transform="translate(-444.084 -8767)"><g transform="translate(387 -19)"><g transform="translate(200.398 8758.87)"><circle cx="6.5" cy="6.5" r="6.5" transform="translate(1428.597 726.13)" fill="#fff" stroke="#ffea5d" stroke-miterlimit="10" stroke-width="2"/><g transform="translate(154.597 37.737) rotate(-45)" fill="#fff" stroke="#a5e5ff" stroke-miterlimit="10" stroke-width="2"><rect width="15" height="15" rx="4" stroke="none"/><rect x="1" y="1" width="13" height="13" rx="3" fill="none"/></g><g transform="translate(1505.597 377.737) rotate(-45)" fill="#fff" stroke="#efefef" stroke-miterlimit="10" stroke-width="2"><rect width="15" height="15" rx="4" stroke="none"/><rect x="1" y="1" width="13" height="13" rx="3" fill="none"/></g><path d="M3.132.389A2,2,0,0,0,0,2.038v12.3a2,2,0,0,0,3.132,1.649L12.1,9.84a2,2,0,0,0,0-3.3Z" transform="translate(-38.403 651.322) rotate(-45)" fill="#fff" stroke="#3d5afe" stroke-linecap="round" stroke-linejoin="round" stroke-miterlimit="10" stroke-width="2"/></g><g transform="translate(-1060 7967)" opacity="0.4"><g transform="translate(3083.654 982.654)" opacity="0.5"><line x1="0.123" y2="19.062" transform="translate(-1190.839 -96.751)" fill="none" stroke="#3d5afe" stroke-linejoin="round" stroke-width="5"/><line x1="19.062" y1="0.123" transform="translate(-1200.308 -87.282)" fill="none" stroke="#3d5afe" stroke-linejoin="round" stroke-width="5"/></g><g transform="translate(2329 917.123)"><line x1="0.073" y2="11.362" transform="translate(-1194.31 6.413)" stroke-width="4" stroke="#00bfa5" stroke-linecap="round" stroke-linejoin="round" fill="none"/><line x1="11.362" y1="0.073" transform="translate(-1199.955 12.058)" stroke-width="4" stroke="#00bfa5" stroke-linecap="round" stroke-linejoin="round" fill="none"/></g><g transform="translate(2432 1262)" opacity="0.3"><line x1="9.892" y2="6.202" transform="translate(-1116.047 -46.31)" stroke-width="4" stroke="#1a237e" stroke-linecap="round" stroke-linejoin="round" fill="none"/><line x1="6.202" y1="9.892" transform="translate(-1114.202 -48.155)" stroke-width="4" stroke="#1a237e" stroke-linecap="round" stroke-linejoin="round" fill="none"/></g><g transform="translate(2232 1347)" opacity="0.4"><line x1="0.149" y2="23.214" transform="translate(-1103.364 -151.81)" fill="none" stroke="#00bfa5" stroke-linejoin="round" stroke-width="6"/><line x1="23.214" y1="0.149" transform="translate(-1114.896 -140.278)" fill="none" stroke="#00bfa5" stroke-linejoin="round" stroke-width="6"/></g><g transform="translate(1263.633 1048.219)" fill="none" stroke="#3d5afe" stroke-linecap="round" stroke-linejoin="round" stroke-width="6" opacity="0.7"><circle cx="12.706" cy="12.706" r="12.706" stroke="none"/><circle cx="12.706" cy="12.706" r="9.706" fill="none"/></g><g transform="translate(1799.692 1438.749)" fill="none" stroke="#00bfa5" stroke-linecap="round" stroke-linejoin="round" stroke-width="6" opacity="0.5"><circle cx="12.706" cy="12.706" r="12.706" stroke="none"/><circle cx="12.706" cy="12.706" r="9.706" fill="none"/></g></g></g></g></svg>