<svg xmlns="http://www.w3.org/2000/svg" width="2278.91" height="1101.994" viewBox="0 0 2278.91 1101.994"><g transform="translate(-322.13 -7939.882)"><g transform="translate(-671 -0.048)"><g transform="translate(994 8236.197)"><circle cx="6.5" cy="6.5" r="6.5" transform="translate(0.13 97.803)" fill="#fff" stroke="#3d5afe" stroke-miterlimit="10" stroke-width="2"/><circle cx="6.5" cy="6.5" r="6.5" transform="translate(261.13 723.803)" fill="none" stroke="#e8e8e8" stroke-miterlimit="10" stroke-width="2"/><text transform="translate(573.87 150.572) rotate(135)" fill="#1a237e" font-size="45" font-family="Asap-Regular, Asap"><tspan x="0" y="42">+</tspan></text><g transform="translate(51.13 628.409) rotate(-45)" fill="none" stroke="#4dd0e1" stroke-miterlimit="10" stroke-width="2"><rect width="15" height="15" rx="4" stroke="none"/><rect x="1" y="1" width="13" height="13" rx="3" fill="none"/></g><path d="M3.132.389A2,2,0,0,0,0,2.038v12.3a2,2,0,0,0,3.132,1.649L12.1,9.84a2,2,0,0,0,0-3.3Z" transform="translate(526.13 588.995) rotate(-45)" fill="#fff" stroke="#00bfa5" stroke-linecap="round" stroke-linejoin="round" stroke-miterlimit="10" stroke-width="2"/><path d="M3.132.389A2,2,0,0,0,0,2.038v12.3a2,2,0,0,0,3.132,1.649L12.1,9.84a2,2,0,0,0,0-3.3Z" transform="translate(278.13 9.995) rotate(-45)" fill="none" stroke="#e4e4e4" stroke-linecap="round" stroke-linejoin="round" stroke-miterlimit="10" stroke-width="2"/></g></g><g transform="translate(60 31)"><path d="M946.875,758.951s-169.164-81.926-277.087,2.422C533.255,868.082,470.316,884.582,379.907,886.137,142.624,890.218,1.808,658.745.012,465.987S192.942,50.54,432.256,169.667,856.647,0,856.647,0" transform="matrix(0.966, 0.259, -0.259, 0.966, 1626.149, 7909.272)" fill="none" stroke="#1a237e" stroke-miterlimit="10" stroke-width="1" opacity="0.1"/><path d="M0,0S42.272,70.4,98.281,72.959" transform="matrix(-0.391, 0.921, -0.921, -0.391, 1711.467, 8265.1)" fill="none" stroke="#1a237e" stroke-miterlimit="10" stroke-width="1" opacity="0.2"/></g></g></svg>