<svg xmlns="http://www.w3.org/2000/svg" width="1920" height="684" viewBox="0 0 1920 684"><g transform="translate(0 -1596)"><rect width="1920" height="684" transform="translate(0 1596)" fill="#eff1ff"/><g transform="translate(65.991 1711)"><g transform="translate(-1154.991 -896)" opacity="0.5"><g transform="translate(2565.654 1106.654)" opacity="0.5"><line x1="0.123" y2="19.062" transform="translate(-1190.839 -96.751)" fill="none" stroke="#3d5afe" stroke-linejoin="round" stroke-width="5"/><line x1="19.062" y1="0.123" transform="translate(-1200.308 -87.282)" fill="none" stroke="#3d5afe" stroke-linejoin="round" stroke-width="5"/></g><g transform="translate(2329 917.123)"><line x1="0.073" y2="11.362" transform="translate(-1194.31 6.413)" stroke-width="4" stroke="#00bfa5" stroke-linecap="round" stroke-linejoin="round" fill="none"/><line x1="11.362" y1="0.073" transform="translate(-1199.955 12.058)" stroke-width="4" stroke="#00bfa5" stroke-linecap="round" stroke-linejoin="round" fill="none"/></g><g transform="translate(2337 1147)" opacity="0.3"><line x1="9.892" y2="6.202" transform="translate(-1116.047 -46.31)" stroke-width="4" stroke="#1a237e" stroke-linecap="round" stroke-linejoin="round" fill="none"/><line x1="6.202" y1="9.892" transform="translate(-1114.202 -48.155)" stroke-width="4" stroke="#1a237e" stroke-linecap="round" stroke-linejoin="round" fill="none"/></g><g transform="translate(2806 965)" opacity="0.4"><line x1="0.149" y2="23.214" transform="translate(-1103.364 -151.81)" fill="none" stroke="#00bfa5" stroke-linejoin="round" stroke-width="6"/><line x1="23.214" y1="0.149" transform="translate(-1114.896 -140.278)" fill="none" stroke="#00bfa5" stroke-linejoin="round" stroke-width="6"/></g><g transform="translate(1208.633 895.219)" fill="none" stroke="#3d5afe" stroke-linecap="round" stroke-linejoin="round" stroke-width="6" opacity="0.7"><circle cx="12.706" cy="12.706" r="12.706" stroke="none"/><circle cx="12.706" cy="12.706" r="9.706" fill="none"/></g><g transform="translate(1472.692 1214.749)" fill="none" stroke="#00bfa5" stroke-linecap="round" stroke-linejoin="round" stroke-width="6" opacity="0.5"><circle cx="12.706" cy="12.706" r="12.706" stroke="none"/><circle cx="12.706" cy="12.706" r="9.706" fill="none"/></g></g><g transform="translate(1609)" fill="none" stroke="#00bfa5" stroke-miterlimit="10" stroke-width="14" opacity="0.5"><circle cx="81.5" cy="81.5" r="81.5" stroke="none"/><circle cx="81.5" cy="81.5" r="74.5" fill="none"/></g><circle cx="62" cy="62" r="62" transform="translate(-46 412)" fill="#00bfa5" opacity="0.2"/><path d="M32.375,15.073a13,13,0,0,1,21.251,0L71.556,40.51A13,13,0,0,1,60.931,61H25.069A13,13,0,0,1,14.444,40.51Z" transform="translate(1557.028 415.339) rotate(-45)" fill="#00bfa5" opacity="0.5"/><path d="M19.9,14.949a13,13,0,0,1,21.207,0l5.341,7.53A13,13,0,0,1,35.841,43H25.159a13,13,0,0,1-10.6-20.521Z" transform="translate(0.73 333.864) rotate(-45)" fill="#1a237e" opacity="0.5"/><g transform="translate(1779.802 350.45) rotate(-45)" fill="none" stroke-miterlimit="10"><path d="M17.127,10.533a9,9,0,0,1,14.746,0l7.214,10.306A9,9,0,0,1,31.714,35H17.286A9,9,0,0,1,9.913,20.839Z" stroke="none"/><path d="M 24.5 10.69413566589355 C 22.84558486938477 10.69413566589355 21.35258483886719 11.47146415710449 20.40384292602539 12.82682037353516 L 13.18974304199219 23.1326789855957 C 12.100341796875 24.68897819519043 11.97371292114258 26.62406349182129 12.85100173950195 28.30904960632324 C 13.72829818725586 29.9940357208252 15.38619995117188 30.99999237060547 17.2859001159668 30.99999237060547 L 31.7140998840332 30.99999237060547 C 33.61380004882813 30.99999237060547 35.27169799804688 29.9940357208252 36.14900207519531 28.30904960632324 C 37.02628707885742 26.62406349182129 36.899658203125 24.68897819519043 35.81025695800781 23.1326789855957 L 28.59615707397461 12.82682037353516 C 27.64741516113281 11.47146415710449 26.15441513061523 10.69413566589355 24.5 10.69413566589355 M 24.5 6.694133758544922 C 27.29081344604492 6.694133758544922 30.08162879943848 7.973751068115234 31.87308502197266 10.53297805786133 L 39.08718490600586 20.83883476257324 C 43.26268768310547 26.80383491516113 38.99531555175781 34.99999237060547 31.7140998840332 34.99999237060547 L 17.2859001159668 34.99999237060547 C 10.00468444824219 34.99999237060547 5.737316131591797 26.80383491516113 9.912815093994141 20.83883476257324 L 17.12691497802734 10.53297805786133 C 18.91837120056152 7.973751068115234 21.70918655395508 6.694133758544922 24.5 6.694133758544922 Z" stroke="none" fill="#1a237e"/></g></g><path d="M50.126,63A74.12,74.12,0,0,1,45,35.627q0-15.858,8.582-25.743T78.88,0V15.424q-12.037,0-12.037,15.424v2.824H82V63Zm-45,0A77.572,77.572,0,0,1,0,35.627Q0,19.769,8.582,9.885T33.88,0V15.424q-11.814,0-11.813,15.424v2.824H37V63Z" transform="translate(923.991 1728)" fill="#1a237e" opacity="0.2"/><g transform="translate(-34 908)" opacity="0.5"><g transform="translate(2488.654 1414.654)" opacity="0.5"><line x1="0.123" y2="19.062" transform="translate(-1190.839 -96.751)" fill="none" stroke="#3d5afe" stroke-linejoin="round" stroke-width="5"/><line x1="19.062" y1="0.123" transform="translate(-1200.308 -87.282)" fill="none" stroke="#3d5afe" stroke-linejoin="round" stroke-width="5"/></g><g transform="translate(2329 917.123)"><line x1="0.073" y2="11.362" transform="translate(-1194.31 6.413)" stroke-width="4" stroke="#00bfa5" stroke-linecap="round" stroke-linejoin="round" fill="none"/><line x1="11.362" y1="0.073" transform="translate(-1199.955 12.058)" stroke-width="4" stroke="#00bfa5" stroke-linecap="round" stroke-linejoin="round" fill="none"/></g><g transform="translate(2183 1380)" opacity="0.3"><line x1="9.892" y2="6.202" transform="translate(-1116.047 -46.31)" stroke-width="4" stroke="#1a237e" stroke-linecap="round" stroke-linejoin="round" fill="none"/><line x1="6.202" y1="9.892" transform="translate(-1114.202 -48.155)" stroke-width="4" stroke="#1a237e" stroke-linecap="round" stroke-linejoin="round" fill="none"/></g><g transform="translate(2806 965)" opacity="0.4"><line x1="0.149" y2="23.214" transform="translate(-1103.364 -151.81)" fill="none" stroke="#00bfa5" stroke-linejoin="round" stroke-width="6"/><line x1="23.214" y1="0.149" transform="translate(-1114.896 -140.278)" fill="none" stroke="#00bfa5" stroke-linejoin="round" stroke-width="6"/></g><g transform="translate(1411.633 911.219)" fill="none" stroke="#3d5afe" stroke-linecap="round" stroke-linejoin="round" stroke-width="6" opacity="0.7"><circle cx="12.706" cy="12.706" r="12.706" stroke="none"/><circle cx="12.706" cy="12.706" r="9.706" fill="none"/></g><g transform="translate(1472.692 1214.749)" fill="none" stroke="#00bfa5" stroke-linecap="round" stroke-linejoin="round" stroke-width="6" opacity="0.5"><circle cx="12.706" cy="12.706" r="12.706" stroke="none"/><circle cx="12.706" cy="12.706" r="9.706" fill="none"/></g></g></g></svg>