<svg xmlns="http://www.w3.org/2000/svg" xmlns:xlink="http://www.w3.org/1999/xlink" width="1117.45" height="676.206" viewBox="0 0 1117.45 676.206"><defs><linearGradient id="a" y1="0.5" x2="1" y2="0.5" gradientUnits="objectBoundingBox"><stop offset="0" stop-color="#f24949"/><stop offset="1" stop-color="#ffc16f"/></linearGradient><linearGradient id="b" x1="0" y1="0.5" x2="1" y2="0.5" xlink:href="#a"/><linearGradient id="c" x1="0.495" y1="5.051" x2="0.5" y2="0.412" gradientUnits="objectBoundingBox"><stop offset="0" stop-color="#6a0352"/><stop offset="1" stop-color="#b8004c"/></linearGradient></defs><g transform="translate(-0.003)"><g transform="translate(0.003 0)"><path d="M982.571,1073.019c0,15.306-201.416,27.714-449.87,27.714s-449.87-12.408-449.87-27.714,201.4-27.719,449.87-27.719S982.571,1057.714,982.571,1073.019Z" transform="translate(-34.919 -440.648)" fill="#070c3d" opacity="0.24" style="mix-blend-mode:multiply;isolation:isolate"/><rect width="8.318" height="245.1" transform="translate(783.136 387.167)" fill="#743064"/><rect width="17.458" height="24.063" transform="translate(509.403 462.359)" fill="#303030"/><rect width="15.202" height="116.916" transform="translate(510.189 468.925)" fill="#56585e"/><path d="M985.218,1022.778l-72.8-38.808v17.683l52.193,21.125v3.881h20.6Z" transform="translate(-384.634 -414.795)" fill="#0a2126"/><path d="M898.032,991.287H878.29V959.38h19.742Z" transform="translate(-370.247 -404.429)" fill="#0a2126"/><path d="M752.45,1022.778l72.792-38.808v17.683l-52.2,21.125v3.881H752.45Z" transform="translate(-317.199 -414.795)" fill="#0a2126"/><path d="M880.32,983.97v42.689h-4.87v3.02h21.385v-3.02h-4.523l1.417-42.689Z" transform="translate(-369.049 -414.795)" fill="#0a2126"/><path d="M882.876,577.081H810.518L790.66,454.027a36.355,36.355,0,0,1,35.864-42.157h40.335a36.361,36.361,0,0,1,35.864,42.157Z" transform="translate(-333.11 -173.625)" fill="#004555"/><path d="M786.638,591.91l-29.7,11.777,18.238,75.985,7.983-1.186L774.415,612.3l15.786-6.785Z" transform="translate(-319.091 -249.521)" fill="#1e0c00"/><path d="M959.8,591.91l25.417,17.631L981,683.6l-10.256-1.9,3.586-63.866L953.96,605.885Z" transform="translate(-402.145 -249.521)" fill="#1e0c00"/><path d="M922.542,755H787.15V741.58H909.116A13.42,13.42,0,0,1,922.536,755Z" transform="translate(-331.826 -312.615)" fill="#0089a9"/><path d="M901.179,324.45s-2.892,32.11,5.958,40.943,10.094,8.6,13.16,7.74c0,0-2.036,5.443-7.664,5.784a10.219,10.219,0,0,1-1.192,0c-6.531-.4.515,4.928,3.916,6.12s-6.814,2.568-13.958.885c-4.4-1.053-50.186-.48-57.318-6.82-4.443-3.945,15.04-23.716,15.919-33.677C862.365,319.464,901.179,324.45,901.179,324.45Z" transform="translate(-355.548 -136.611)" fill="#3c1047"/><path d="M1097.633,319.91a86.9,86.9,0,0,0-6.131,19.366c-1.863,10.348.96,28.7,6.131,36.39s5.692,10.557,10.372,10.557,23.364-8.22,25.035-27.251-34.053-39.063-34.053-39.063Z" transform="translate(-459.884 -134.859)" fill="#fd5e5a"/><path d="M1386.19,584.809s-12.015-5.489-15.722-9.2-15.421-13.362-21.351-13.362-35.58,13.3-31.427,14.808,26.985-5.3,26.985-5.3-26.69,10.99-21.946,13.05S1342,581.246,1342,581.246s-7.416,3.563-7.416,6.23,10.875-2.667,17.151-2.667,22.883,10.377,22.883,10.377Z" transform="translate(-555.309 -237.018)" fill="#fc7575"/><path d="M1535.093,879.728c-2.262,2.36-6.363,3.858-10.99,3.69s-8.63-1.961-10.713-4.477c2.262-2.36,6.363-3.858,10.99-3.69S1533.005,877.235,1535.093,879.728Z" transform="translate(-637.975 -368.959)" fill="#af9be2"/><path d="M1634.937,867.523a395.242,395.242,0,0,1-4.153-63.786c.087-10.655.671-21.3,1.521-31.907s2.106-21.183,3.575-31.711a586.579,586.579,0,0,1,12.576-62.513q3.979-15.433,8.8-30.658c3.216-10.129,6.658-20.176,10.632-30.079l1.255.515c-3.818,9.834-7.138,19.933-10.215,30.079s-5.871,20.356-8.388,30.658a583.776,583.776,0,0,0-11.743,62.391c-1.336,10.493-2.493,21.009-3.164,31.56s-1.157,21.119-1.111,31.682a391,391,0,0,0,4.894,63.051Z" transform="translate(-687.441 -260.043)" fill="#af9be2"/><path d="M1696.576,543.74c-6.016,3.627-10.811,11.309-12.147,20.714s1.157,18.123,5.912,23.277c6.016-3.627,10.817-11.314,12.148-20.714S1701.383,548.894,1696.576,543.74Z" transform="translate(-709.925 -229.215)" fill="#af9be2"/><path d="M1644.3,599.725c-.74,5.437,1.591,12.147,6.664,17.539s11.569,8.174,17.064,7.792c.74-5.437-1.6-12.147-6.67-17.533S1649.774,599.343,1644.3,599.725Z" transform="translate(-693.104 -252.801)" fill="#af9be2"/><path d="M1686.25,638.939c4.628,2.979,11.65,3.714,18.707,1.429s12.333-7.005,14.317-12.147c-4.628-2.979-11.644-3.714-18.707-1.429S1688.234,633.82,1686.25,638.939Z" transform="translate(-710.844 -263.66)" fill="#af9be2"/><path d="M1675.27,673.56c4.627,2.985,11.65,3.719,18.707,1.429s12.333-7,14.322-12.147c-4.627-2.979-11.656-3.714-18.713-1.423S1677.26,668.441,1675.27,673.56Z" transform="translate(-706.215 -278.255)" fill="#af9be2"/><path d="M1662.81,714.879c4.628,2.985,11.65,3.714,18.707,1.429s12.333-7.005,14.317-12.147c-4.628-2.979-11.65-3.714-18.707-1.429S1664.8,709.76,1662.81,714.879Z" transform="translate(-700.963 -295.672)" fill="#af9be2"/><path d="M1654.46,753.359c4.627,2.985,11.644,3.714,18.7,1.429s12.333-7.005,14.323-12.147c-4.628-2.979-11.65-3.714-18.707-1.429S1656.444,748.24,1654.46,753.359Z" transform="translate(-697.443 -311.894)" fill="#af9be2"/><path d="M1633.859,745.569c-4.628,2.979-11.65,3.714-18.707,1.429s-12.333-7.005-14.322-12.147c4.627-2.979,11.656-3.714,18.713-1.429S1631.87,740.45,1633.859,745.569Z" transform="translate(-674.835 -308.61)" fill="#af9be2"/><path d="M1633.112,636.335c-.74,5.437,1.6,12.147,6.664,17.539s11.569,8.174,17.07,7.792c.74-5.437-1.6-12.147-6.669-17.539S1638.584,635.953,1633.112,636.335Z" transform="translate(-688.387 -268.234)" fill="#af9be2"/><path d="M1620.293,677.971c-.735,5.443,1.6,12.147,6.67,17.539s11.569,8.173,17.07,7.792c.735-5.437-1.6-12.147-6.675-17.533S1625.771,677.561,1620.293,677.971Z" transform="translate(-682.984 -285.784)" fill="#af9be2"/><path d="M1771.645,713.32a219.759,219.759,0,0,0-26.279,17.417,298.317,298.317,0,0,0-95.276,123.776,307.055,307.055,0,0,0-17.44,60.836l4.46.746a303.161,303.161,0,0,1,16.283-60.263,291.582,291.582,0,0,1,28.968-55.4,301.053,301.053,0,0,1,63.693-68.789,218.4,218.4,0,0,1,25.885-17.747Z" transform="translate(-688.249 -300.702)" fill="#af9be2"/><path d="M1905.328,671.681c-.492,7.011-5.154,14.779-12.923,20.246s-16.653,7.231-23.415,5.327c.492-7.011,5.154-14.779,12.922-20.246S1898.566,669.778,1905.328,671.681Z" transform="translate(-787.879 -282.836)" fill="#af9be2"/><path d="M1833.793,662c5.206,4.743,8.376,13.223,7.832,22.7s-4.68,17.544-10.377,21.663c-5.206-4.743-8.376-13.229-7.832-22.71S1828.1,666.09,1833.793,662Z" transform="translate(-768.641 -279.068)" fill="#af9be2"/><path d="M1784.319,688.74c6.259,3.193,11.569,10.522,13.594,19.8s.156,18.157-4.24,23.641c-6.259-3.187-11.569-10.516-13.594-19.8S1779.952,694.224,1784.319,688.74Z" transform="translate(-750.056 -290.34)" fill="#af9be2"/><path d="M1748.318,721.86c6.259,3.193,11.569,10.516,13.594,19.806s.156,18.152-4.24,23.635c-6.259-3.187-11.569-10.516-13.594-19.8S1743.945,727.349,1748.318,721.86Z" transform="translate(-734.879 -304.302)" fill="#af9be2"/><path d="M1709.294,755.9c6.866,1.487,13.883,7.2,18.2,15.664s4.8,17.51,1.955,23.936c-6.878-1.481-13.883-7.2-18.21-15.659S1706.448,762.321,1709.294,755.9Z" transform="translate(-719.803 -318.651)" fill="#af9be2"/><path d="M1681.248,798.519c6.27-.272,13.634,3.089,19.262,9.434s8.1,14.051,7.08,20.246c-6.27.266-13.634-3.089-19.262-9.435S1680.236,804.708,1681.248,798.519Z" transform="translate(-708.642 -336.611)" fill="#af9be2"/><path d="M1660.068,825.309c6.27-.266,13.634,3.095,19.262,9.434s8.1,14.056,7.08,20.246c-6.27.266-13.634-3.095-19.262-9.44S1659.056,831.487,1660.068,825.309Z" transform="translate(-699.713 -347.905)" fill="#af9be2"/><path d="M1647.993,864.831c5.38-.226,11.69,2.649,16.515,8.1s6.941,12.049,6.068,17.354c-5.374.226-11.685-2.649-16.509-8.1S1647.131,870.13,1647.993,864.831Z" transform="translate(-694.637 -364.566)" fill="#af9be2"/><path d="M1636.4,904.742c3.91-2.21,9.729-2.47,15.427-.272s9.834,6.294,11.245,10.563c-3.91,2.21-9.724,2.47-15.427.272S1637.817,909.011,1636.4,904.742Z" transform="translate(-689.83 -380.639)" fill="#af9be2"/><path d="M1631.66,936.96c2.406-2.678,6.751-4.367,11.644-4.153s9.076,2.268,11.245,5.142c-2.406,2.678-6.756,4.362-11.65,4.153S1633.829,939.852,1631.66,936.96Z" transform="translate(-687.831 -393.219)" fill="#af9be2"/><path d="M1878.885,749.487c-5.969,3.7-15,4.46-23.977,1.354s-15.618-9.255-18.019-15.878c5.975-3.7,15-4.46,23.982-1.354S1876.473,742.886,1878.885,749.487Z" transform="translate(-774.346 -308.437)" fill="#af9be2"/><path d="M1846.12,776.458c-5.969,3.7-15,4.46-23.977,1.354s-15.618-9.255-18.013-15.878c5.975-3.7,15-4.46,23.977-1.354S1843.707,769.841,1846.12,776.458Z" transform="translate(-760.536 -319.808)" fill="#af9be2"/><path d="M1811.2,809.707c-5.975,3.7-15,4.46-23.982,1.354s-15.618-9.255-18.013-15.878c5.969-3.7,15-4.46,23.977-1.354S1808.783,803.107,1811.2,809.707Z" transform="translate(-745.812 -333.823)" fill="#af9be2"/><path d="M1777.477,834.249c-4.859,3.008-12.2,3.627-19.505,1.1s-12.691-7.52-14.652-12.911c4.859-3.014,12.205-3.633,19.505-1.1S1775.528,828.881,1777.477,834.249Z" transform="translate(-734.902 -345.57)" fill="#af9be2"/><path d="M1752.742,857.272c-3.974,2.568-9.938,3.158-15.832,1.116s-10.227-6.189-11.76-10.661c3.974-2.568,9.938-3.164,15.832-1.122S1751.2,852.8,1752.742,857.272Z" transform="translate(-727.242 -356.371)" fill="#af9be2"/><path d="M1735.1,884.435c-3.974,2.568-9.937,3.158-15.832,1.122s-10.221-6.189-11.76-10.667c3.974-2.568,9.938-3.158,15.832-1.116S1733.563,879.958,1735.1,884.435Z" transform="translate(-719.806 -367.823)" fill="#af9be2"/><path d="M1716.137,911.987c-3.216,2.748-8.613,4.049-14.4,3.13s-10.487-3.9-12.674-7.52c3.216-2.742,8.613-4.049,14.4-3.129S1713.951,908.372,1716.137,911.987Z" transform="translate(-712.029 -381.157)" fill="#af9be2"/><path d="M1702.63,938.413c-3.621,1.035-8.445.1-12.726-2.805s-6.889-7.069-7.254-10.823c3.633-1.03,8.451-.1,12.726,2.817S1702.271,934.665,1702.63,938.413Z" transform="translate(-709.326 -389.674)" fill="#af9be2"/><path d="M1686.838,957.576c-2.892.26-6.363-1.157-9.157-3.922s-4.171-6.288-3.9-9.157c2.892-.26,6.363,1.122,9.157,3.916S1687.1,954.7,1686.838,957.576Z" transform="translate(-705.572 -398.142)" fill="#af9be2"/><path d="M1676.745,966.161a7.48,7.48,0,1,1-2.17-5.82,7.48,7.48,0,0,1,2.17,5.82Z" transform="translate(-703.461 -403.909)" fill="#af9be2"/><path d="M1672.295,975.271a7.48,7.48,0,1,1-2.17-5.82A7.485,7.485,0,0,1,1672.295,975.271Z" transform="translate(-701.586 -407.749)" fill="#af9be2"/><path d="M1517.795,682.67a205.821,205.821,0,0,1,17.892,23.138,276.375,276.375,0,0,1,46.819,137.127,285.036,285.036,0,0,1-2.811,58.637l-4.147-.677a280.846,280.846,0,0,0,3.667-57.781,270.343,270.343,0,0,0-8.931-57.266,283.321,283.321,0,0,0-8.989-27.65,289.446,289.446,0,0,0-11.887-26.568,273.585,273.585,0,0,0-14.566-25.214A206.589,206.589,0,0,0,1517.39,683.1Z" transform="translate(-639.661 -287.781)" fill="#cfc3ee"/><path d="M1478.194,629c-1.654,6.305.127,14.519,5.322,21.628s12.466,11.32,18.979,11.661c1.654-6.3-.127-14.513-5.316-21.628S1484.708,629.359,1478.194,629Z" transform="translate(-622.886 -265.156)" fill="#cfc3ee"/><path d="M1550.294,647c-5.97,2.62-11.3,9.116-13.646,17.608s-1.122,16.8,2.655,22.12c5.97-2.62,11.3-9.122,13.646-17.608S1554.065,652.293,1550.294,647Z" transform="translate(-647.275 -272.744)" fill="#cfc3ee"/><path d="M1583.743,686.4c-6.455.937-13.3,5.784-17.845,13.339s-5.553,15.9-3.326,22.027c6.45-.931,13.3-5.784,17.845-13.339S1585.964,692.532,1583.743,686.4Z" transform="translate(-658.228 -289.353)" fill="#cfc3ee"/><path d="M1605.488,726.23c-6.45.931-13.3,5.784-17.839,13.339s-5.553,15.9-3.326,22.027c6.45-.937,13.3-5.784,17.839-13.339S1607.715,732.356,1605.488,726.23Z" transform="translate(-667.397 -306.144)" fill="#cfc3ee"/><path d="M1626.451,768.4c-6.479-.746-14.357,2.181-20.662,8.33s-9.417,13.952-8.839,20.442c6.479.752,14.357-2.181,20.662-8.33S1627.03,774.887,1626.451,768.4Z" transform="translate(-673.171 -323.871)" fill="#cfc3ee"/><path d="M1637.618,813.783c-5.432-2.106-12.9-1.348-19.737,2.545s-11.3,9.932-12.252,15.676c5.426,2.1,12.894,1.348,19.731-2.545S1636.652,819.527,1637.618,813.783Z" transform="translate(-676.858 -342.568)" fill="#cfc3ee"/><path d="M1648.228,843.633c-5.432-2.106-12.9-1.348-19.731,2.545s-11.3,9.909-12.257,15.693c5.426,2.1,12.894,1.348,19.731-2.545S1647.268,849.377,1648.228,843.633Z" transform="translate(-681.331 -355.152)" fill="#cfc3ee"/><path d="M1650.4,882.074c-4.657-1.8-11.06-1.157-16.914,2.181s-9.683,8.515-10.5,13.437c4.628,1.8,11.054,1.157,16.914-2.181S1649.6,887,1650.4,882.074Z" transform="translate(-684.172 -371.426)" fill="#cfc3ee"/><path d="M1649.089,918.948c-2.777-3.106-7.809-5.073-13.472-4.842s-10.51,2.6-13.027,5.923c2.777,3.106,7.809,5.073,13.472,4.842S1646.573,922.274,1649.089,918.948Z" transform="translate(-684.008 -385.336)" fill="#cfc3ee"/><path d="M1647.566,948.056c-1.313-3.066-4.628-5.848-8.989-7.115s-8.677-.717-11.407,1.157c1.313,3.071,4.628,5.848,8.989,7.121S1644.807,949.941,1647.566,948.056Z" transform="translate(-685.939 -396.367)" fill="#cfc3ee"/><path d="M1471.33,708.744c4.148,5.027,11.853,8.387,20.656,8.335s16.474-3.471,20.558-8.578c-4.142-5.033-11.847-8.388-20.651-8.341S1475.42,703.642,1471.33,708.744Z" transform="translate(-620.244 -295.154)" fill="#cfc3ee"/><path d="M1492.07,742.158c4.148,5.032,11.853,8.388,20.662,8.335s16.468-3.471,20.558-8.573c-4.142-5.032-11.853-8.387-20.662-8.341S1496.16,737.079,1492.07,742.158Z" transform="translate(-628.987 -309.242)" fill="#cfc3ee"/><path d="M1512.84,781.748c4.147,5.033,11.852,8.387,20.656,8.335s16.474-3.471,20.564-8.573c-4.148-5.033-11.852-8.393-20.656-8.341S1516.93,776.686,1512.84,781.748Z" transform="translate(-637.743 -325.931)" fill="#cfc3ee"/><path d="M1540.88,814.126c3.366,4.1,9.637,6.826,16.775,6.785s13.4-2.846,16.729-6.976c-3.378-4.1-9.643-6.826-16.775-6.785S1544.2,810,1540.88,814.126Z" transform="translate(-649.563 -340.256)" fill="#cfc3ee"/><path d="M1560.51,842.3c2.724,3.442,7.786,5.738,13.57,5.7s10.828-2.389,13.512-5.86c-2.724-3.442-7.792-5.738-13.576-5.7S1563.194,838.829,1560.51,842.3Z" transform="translate(-657.838 -352.603)" fill="#cfc3ee"/><path d="M1567.9,871.415c2.724,3.442,7.792,5.738,13.576,5.7s10.823-2.389,13.507-5.86c-2.724-3.442-7.786-5.738-13.57-5.709S1570.59,867.945,1567.9,871.415Z" transform="translate(-660.953 -364.874)" fill="#cfc3ee"/><path d="M1577.56,900.775c2.007,3.367,6.363,6.137,11.714,7.04s10.377-.3,13.379-2.823c-2.013-3.367-6.363-6.137-11.719-7.04S1580.562,898.247,1577.56,900.775Z" transform="translate(-665.026 -378.408)" fill="#cfc3ee"/><path d="M1584.74,929.971c2.892,1.984,7.387,2.609,12,1.319s8.156-4.148,9.591-7.335c-2.892-1.99-7.387-2.609-12.009-1.325S1586.175,926.778,1584.74,929.971Z" transform="translate(-668.052 -388.654)" fill="#cfc3ee"/><path d="M1597.5,952.217c2.447,1.082,5.929.908,9.215-.711s5.536-4.28,6.166-6.878c-2.453-1.087-5.929-.914-9.215.711S1598.125,949.614,1597.5,952.217Z" transform="translate(-673.431 -397.92)" fill="#cfc3ee"/><path d="M1608.18,962.851a6.942,6.942,0,1,0,3.648-4.458A6.942,6.942,0,0,0,1608.18,962.851Z" transform="translate(-677.933 -403.712)" fill="#cfc3ee"/><path d="M1609.37,972.233a6.941,6.941,0,1,0,3.646-4.456A6.941,6.941,0,0,0,1609.37,972.233Z" transform="translate(-678.435 -407.668)" fill="#cfc3ee"/><path d="M1714.892,645.6a218.28,218.28,0,0,0-18.047,25.851,294.685,294.685,0,0,0-14.866,27.817,314.226,314.226,0,0,0-11.951,29.229,309.849,309.849,0,0,0-8.77,30.351,294.764,294.764,0,0,0-7.653,62.715,306.936,306.936,0,0,0,6.109,62.993l4.431-.949a302.909,302.909,0,0,1-6.988-62.033,291.549,291.549,0,0,1,6.618-62.16,302.78,302.78,0,0,1,34.018-87.392,222.767,222.767,0,0,1,17.567-26.03Z" transform="translate(-697.079 -272.154)" fill="#8475aa"/><path d="M1780.767,585.76c2.111,6.7.625,15.618-4.593,23.572s-12.836,12.841-19.829,13.553c-2.111-6.7-.625-15.618,4.593-23.572S1773.774,586.477,1780.767,585.76Z" transform="translate(-740.002 -246.928)" fill="#8475aa"/><path d="M1708.835,609.39c6.565,2.51,12.639,9.255,15.618,18.244s2.083,18.036-1.7,23.959c-6.565-2.5-12.645-9.255-15.618-18.244S1705.047,615.313,1708.835,609.39Z" transform="translate(-718.899 -256.89)" fill="#8475aa"/><path d="M1670.917,653.91c6.993.665,14.64,5.524,19.91,13.426s6.809,16.827,4.738,23.543c-6.993-.665-14.641-5.524-19.91-13.426S1668.857,660.62,1670.917,653.91Z" transform="translate(-704.008 -275.657)" fill="#8475aa"/><path d="M1649.583,697.93c6.993.671,14.646,5.524,19.91,13.426s6.814,16.833,4.738,23.549c-6.994-.671-14.641-5.53-19.91-13.432S1647.512,704.646,1649.583,697.93Z" transform="translate(-695.012 -294.214)" fill="#8475aa"/><path d="M1624.169,744.622c6.941-1.157,15.566,1.6,22.681,7.884s10.892,14.531,10.609,21.547c-6.942,1.157-15.572-1.6-22.687-7.884S1623.88,751.673,1624.169,744.622Z" transform="translate(-684.667 -313.788)" fill="#8475aa"/><path d="M1612.67,793.991c5.738-2.551,13.819-2.123,21.4,1.735s12.68,10.105,14.021,16.237c-5.738,2.551-13.819,2.129-21.4-1.706S1614.018,800.128,1612.67,793.991Z" transform="translate(-679.826 -334.032)" fill="#8475aa"/><path d="M1602.81,826.7c5.732-2.551,13.819-2.134,21.4,1.735s12.685,10.1,14.016,16.231c-5.732,2.551-13.819,2.129-21.4-1.735S1604.146,832.83,1602.81,826.7Z" transform="translate(-675.67 -347.819)" fill="#8475aa"/><path d="M1606.07,868.064c4.917-2.186,11.841-1.828,18.325,1.458s10.875,8.677,12.02,13.923c-4.917,2.181-11.847,1.822-18.331-1.469S1607.215,873.317,1606.07,868.064Z" transform="translate(-677.044 -365.353)" fill="#8475aa"/><path d="M1610.28,907.4c2.829-3.471,8.139-5.865,14.253-5.918s11.453,2.25,14.34,5.692c-2.834,3.471-8.144,5.871-14.253,5.917S1613.161,910.845,1610.28,907.4Z" transform="translate(-678.819 -380.02)" fill="#8475aa"/><path d="M1618.34,938.386c1.255-3.378,4.68-6.536,9.307-8.139s9.255-1.221,12.35.659c-1.255,3.372-4.686,6.536-9.313,8.139S1621.412,940.266,1618.34,938.386Z" transform="translate(-682.216 -391.724)" fill="#8475aa"/><path d="M1779.246,671.932c-4.2,5.64-12.321,9.66-21.808,10.065s-17.932-2.892-22.588-8.162c4.2-5.634,12.321-9.654,21.807-10.059S1774.578,666.68,1779.246,671.932Z" transform="translate(-731.331 -279.802)" fill="#8475aa"/><path d="M1758.667,709.031c-4.2,5.64-12.321,9.66-21.808,10.065s-17.932-2.892-22.559-8.156c4.205-5.634,12.321-9.654,21.807-10.065S1754.04,703.785,1758.667,709.031Z" transform="translate(-722.669 -295.441)" fill="#8475aa"/><path d="M1738.4,752.8c-4.2,5.634-12.316,9.654-21.8,10.059s-17.932-2.892-22.559-8.156c4.2-5.634,12.315-9.654,21.807-10.065S1733.739,747.539,1738.4,752.8Z" transform="translate(-714.128 -313.888)" fill="#8475aa"/><path d="M1715.867,788.954c-3.413,4.587-10.019,7.855-17.735,8.185s-14.577-2.36-18.371-6.635c3.413-4.581,10.019-7.849,17.735-8.185S1712.072,784.685,1715.867,788.954Z" transform="translate(-708.108 -329.777)" fill="#8475aa"/><path d="M1701.215,820.2c-2.748,3.852-8.1,6.589-14.317,6.855s-11.777-2.007-14.849-5.605c2.753-3.847,8.1-6.583,14.317-6.849S1698.144,816.606,1701.215,820.2Z" transform="translate(-704.858 -343.389)" fill="#8475aa"/><path d="M1694.745,851.9c-2.754,3.852-8.1,6.589-14.317,6.855s-11.777-2-14.849-5.6c2.747-3.847,8.1-6.589,14.311-6.855S1691.7,848.335,1694.745,851.9Z" transform="translate(-702.13 -356.753)" fill="#8475aa"/><path d="M1687.545,883.922c-1.99,3.731-6.519,6.941-12.251,8.2s-11.182.226-14.554-2.314c1.99-3.731,6.525-6.941,12.251-8.2S1684.179,881.365,1687.545,883.922Z" transform="translate(-700.09 -371.417)" fill="#8475aa"/><path d="M1683.892,915.912c-3,2.314-7.821,3.193-12.859,2.054s-9-4.049-10.713-7.4c3-2.314,7.821-3.2,12.859-2.048S1682.18,912.551,1683.892,915.912Z" transform="translate(-699.913 -382.774)" fill="#8475aa"/><path d="M1676.144,940.447c-2.574,1.3-6.363,1.29-9.955-.283s-6.2-4.315-7-7.086c2.574-1.3,6.328-1.29,9.955.283S1675.329,937.682,1676.144,940.447Z" transform="translate(-699.437 -392.946)" fill="#8475aa"/><path d="M1669.876,952.253a7.485,7.485,0,1,1-4.156-4.617,7.491,7.491,0,0,1,4.156,4.617Z" transform="translate(-699.572 -399.217)" fill="#8475aa"/><path d="M1669.1,962.393a7.485,7.485,0,1,1-4.156-4.617A7.52,7.52,0,0,1,1669.1,962.393Z" transform="translate(-699.243 -403.491)" fill="#8475aa"/><path d="M1567.821,907.223c-9.926-14.536-20.379-28.743-31.531-42.377l.185-.156c11.436,13.42,22.183,27.418,32.393,41.787a502.677,502.677,0,0,1,28.518,44.616q3.129,5.605,6.091,11.32-1.157.642-2.314,1.307-2.846-5.785-5.877-11.482a505.01,505.01,0,0,0-27.465-45.015Z" transform="translate(-647.628 -364.512)" fill="#af9be2"/><path d="M1516.788,832.91a13.366,13.366,0,0,1,9.834,6.756c2.377,3.986,2.759,8.48,1.342,11.87a13.362,13.362,0,0,1-9.834-6.756C1515.758,840.8,1515.365,836.294,1516.788,832.91Z" transform="translate(-639.058 -351.115)" fill="#af9be2"/><path d="M1557.858,847.59c1.492,2.892,1.573,7.271-.1,11.6s-4.662,7.52-7.722,8.677c-1.492-2.892-1.573-7.277.1-11.609S1554.8,848.735,1557.858,847.59Z" transform="translate(-652.942 -357.303)" fill="#af9be2"/><path d="M1550.314,898.72c-2.482,2.123-6.716,3.2-11.32,2.568s-8.382-2.817-10.2-5.53c2.487-2.123,6.721-3.2,11.32-2.568S1548.486,896.007,1550.314,898.72Z" transform="translate(-644.466 -376.451)" fill="#af9be2"/><path d="M1569.31,923.222c-2.487,2.123-6.722,3.2-11.32,2.563s-8.393-2.811-10.21-5.524c2.487-2.123,6.722-3.2,11.32-2.562S1567.47,920.509,1569.31,923.222Z" transform="translate(-652.472 -386.781)" fill="#af9be2"/><path d="M1582.17,942.74c-2.487,2.123-6.722,3.2-11.32,2.568s-8.387-2.817-10.21-5.536c2.487-2.117,6.722-3.193,11.326-2.563S1580.348,940.026,1582.17,942.74Z" transform="translate(-657.893 -395.007)" fill="#af9be2"/><path d="M1596.46,964.285c-2.482,2.117-6.716,3.2-11.32,2.562s-8.387-2.817-10.209-5.53c2.487-2.123,6.721-3.2,11.326-2.568S1594.638,961.572,1596.46,964.285Z" transform="translate(-663.917 -404.087)" fill="#af9be2"/><path d="M1574.386,868.61c1.492,2.892,1.568,7.271-.11,11.6s-4.668,7.52-7.722,8.677c-1.493-2.892-1.568-7.271.1-11.609S1571.326,869.755,1574.386,868.61Z" transform="translate(-659.907 -366.164)" fill="#af9be2"/><path d="M1590.176,890.24c1.5,2.892,1.568,7.277-.1,11.609s-4.668,7.52-7.728,8.677c-1.492-2.892-1.568-7.277.11-11.609S1587.122,891.391,1590.176,890.24Z" transform="translate(-666.564 -375.283)" fill="#af9be2"/><path d="M1605.205,912.06c1.492,2.892,1.568,7.271-.1,11.6s-4.668,7.52-7.728,8.677c-1.492-2.892-1.568-7.277.1-11.609S1602.151,913.182,1605.205,912.06Z" transform="translate(-672.899 -384.481)" fill="#af9be2"/><path d="M1619.772,933.43c1.487,2.892,1.562,7.271-.11,11.609s-4.668,7.52-7.728,8.677c-1.492-2.892-1.568-7.271.11-11.609S1616.7,934.575,1619.772,933.43Z" transform="translate(-679.038 -393.489)" fill="#af9be2"/><path d="M1566.434,995.79H1632.3c10.944,5.588,17.891,13.883,17.891,23.2,0,9.92-7.913,18.724-20.159,24.295h-61.315c-12.246-5.57-20.159-14.374-20.159-24.295C1548.549,1009.7,1555.5,1001.378,1566.434,995.79Z" transform="translate(-652.8 -419.778)" fill="url(#a)"/><path d="M1577.225,1004.734c-6.49-.758-15.19,4.136-17.44,13.975-3.06,19.424,16.393,25.128,27.007,20.2-9.255-2.314-19.366-6.566-19.667-16.127-.509-5,2.458-9.833,2.51-9.972a27.059,27.059,0,0,1,2.788-3.737A28.283,28.283,0,0,1,1577.225,1004.734Z" transform="translate(-657.397 -423.516)" fill="#f8f0a1"/><rect width="72.763" height="4.57" transform="translate(983.325 577.731) rotate(180)" fill="#6b9fc5"/><path d="M273.873,859.122c-2.256,2.36-6.363,3.858-10.991,3.691s-8.63-1.961-10.713-4.477c2.262-2.354,6.363-3.852,10.99-3.685S271.791,856.583,273.873,859.122Z" transform="translate(-106.304 -360.275)" fill="#af9be2"/><path d="M373.772,847.325a394.672,394.672,0,0,1-4.159-63.791c.087-10.649.671-21.293,1.516-31.9s2.106-21.183,3.586-31.716a585.358,585.358,0,0,1,12.57-62.519q3.986-15.433,8.8-30.658c3.216-10.123,6.664-20.17,10.632-30.079l1.255.515c-3.818,9.834-7.138,19.933-10.215,30.079s-5.871,20.356-8.387,30.658A582.307,582.307,0,0,0,377.625,720.3c-1.336,10.487-2.493,21.009-3.164,31.566s-1.157,21.113-1.111,31.676a390.99,390.99,0,0,0,4.894,63.051Z" transform="translate(-155.792 -251.523)" fill="#af9be2"/><path d="M435.408,523.53c-6.022,3.621-10.817,11.314-12.147,20.714s1.157,18.123,5.912,23.277c6.016-3.627,10.811-11.314,12.147-20.714S440.18,528.684,435.408,523.53Z" transform="translate(-178.278 -220.695)" fill="#af9be2"/><path d="M383.114,579.515c-.735,5.443,1.6,12.147,6.669,17.533s11.569,8.179,17.07,7.8c.735-5.437-1.6-12.147-6.67-17.539S388.591,579.133,383.114,579.515Z" transform="translate(-161.448 -244.281)" fill="#af9be2"/><path d="M425.07,616.608c4.628,2.979,11.65,3.714,18.707,1.429s12.332-7.005,14.317-12.147c-4.628-2.985-11.65-3.714-18.707-1.429S427.054,611.489,425.07,616.608Z" transform="translate(-179.191 -254.245)" fill="#af9be2"/><path d="M414.09,653.349c4.628,2.985,11.65,3.714,18.707,1.429s12.332-7,14.317-12.147c-4.628-2.979-11.65-3.714-18.707-1.429S416.08,648.23,414.09,653.349Z" transform="translate(-174.562 -269.734)" fill="#af9be2"/><path d="M401.63,694.669c4.628,2.979,11.65,3.714,18.707,1.429s12.332-7,14.317-12.147c-4.628-2.979-11.644-3.714-18.707-1.429S403.614,689.55,401.63,694.669Z" transform="translate(-169.31 -287.153)" fill="#af9be2"/><path d="M393.28,733.169c4.628,2.979,11.644,3.714,18.707,1.429s12.332-7,14.317-12.147c-4.628-2.979-11.65-3.714-18.707-1.429S395.264,728.039,393.28,733.169Z" transform="translate(-165.79 -303.383)" fill="#af9be2"/><path d="M372.684,725.354c-4.628,2.985-11.65,3.719-18.707,1.435s-12.333-7.005-14.317-12.147c4.628-2.979,11.65-3.714,18.707-1.429S370.7,720.24,372.684,725.354Z" transform="translate(-143.186 -300.09)" fill="#af9be2"/><path d="M371.9,616.125c-.74,5.437,1.6,12.147,6.664,17.533s11.569,8.179,17.07,7.8c.735-5.443-1.6-12.147-6.67-17.539S377.392,615.743,371.9,616.125Z" transform="translate(-156.721 -259.714)" fill="#af9be2"/><path d="M359.114,657.715c-.735,5.443,1.6,12.147,6.669,17.539s11.569,8.174,17.07,7.792c.735-5.437-1.6-12.147-6.669-17.538S364.591,657.333,359.114,657.715Z" transform="translate(-151.331 -277.246)" fill="#af9be2"/><path d="M510.448,693.11a220.442,220.442,0,0,0-26.279,17.417A298.287,298.287,0,0,0,388.87,834.3a307.1,307.1,0,0,0-17.44,60.83l4.466.752a302.8,302.8,0,0,1,16.278-60.269,291.706,291.706,0,0,1,28.969-55.392,301.289,301.289,0,0,1,63.716-68.812,220.134,220.134,0,0,1,25.885-17.747Z" transform="translate(-156.579 -292.182)" fill="#af9be2"/><path d="M644.148,651.462c-.492,7.011-5.154,14.779-12.923,20.246s-16.654,7.231-23.416,5.328c.492-7.011,5.154-14.779,12.923-20.246S637.386,649.565,644.148,651.462Z" transform="translate(-256.225 -274.314)" fill="#af9be2"/><path d="M572.619,641.74c5.206,4.743,8.37,13.223,7.826,22.7s-4.68,17.539-10.377,21.657c-5.206-4.738-8.376-13.223-7.832-22.7S566.921,645.859,572.619,641.74Z" transform="translate(-236.988 -270.527)" fill="#af9be2"/><path d="M523.176,668.53c6.259,3.193,11.569,10.516,13.594,19.8s.156,18.157-4.24,23.641c-6.259-3.193-11.569-10.516-13.594-19.8S518.779,674.008,523.176,668.53Z" transform="translate(-218.416 -281.82)" fill="#af9be2"/><path d="M487.176,701.65c6.259,3.193,11.569,10.516,13.594,19.8s.156,18.152-4.24,23.641c-6.259-3.187-11.569-10.516-13.593-19.8S482.78,707.134,487.176,701.65Z" transform="translate(-203.24 -295.782)" fill="#af9be2"/><path d="M448.115,735.69c6.866,1.481,13.883,7.2,18.2,15.664s4.8,17.51,1.949,23.936c-6.866-1.481-13.883-7.2-18.2-15.659S445.269,742.117,448.115,735.69Z" transform="translate(-188.151 -310.132)" fill="#af9be2"/><path d="M420.068,778.3c6.27-.266,13.634,3.095,19.262,9.434s8.1,14.056,7.08,20.246c-6.27.266-13.634-3.095-19.262-9.44S419.056,784.483,420.068,778.3Z" transform="translate(-176.989 -328.088)" fill="#af9be2"/><path d="M398.89,805.1c6.27-.266,13.634,3.095,19.262,9.435s8.1,14.056,7.08,20.246c-6.27.266-13.634-3.095-19.262-9.44S397.883,811.294,398.89,805.1Z" transform="translate(-168.062 -339.385)" fill="#af9be2"/><path d="M386.856,844.621c5.38-.226,11.69,2.649,16.515,8.1s6.941,12.043,6.068,17.353c-5.374.226-11.685-2.655-16.509-8.1S385.965,849.931,386.856,844.621Z" transform="translate(-162.998 -356.047)" fill="#af9be2"/><path d="M375.22,884.532c3.91-2.21,9.724-2.47,15.427-.272s9.834,6.294,11.251,10.563c-3.916,2.21-9.729,2.47-15.427.272S376.631,888.8,375.22,884.532Z" transform="translate(-158.176 -372.12)" fill="#af9be2"/><path d="M370.48,916.774c2.406-2.678,6.756-4.361,11.644-4.147s9.076,2.268,11.239,5.142c-2.406,2.678-6.75,4.361-11.638,4.153S372.643,919.655,370.48,916.774Z" transform="translate(-156.178 -384.712)" fill="#af9be2"/><path d="M617.715,729.277c-5.975,3.7-15,4.46-23.982,1.354s-15.618-9.255-18.013-15.878c5.975-3.7,15-4.46,23.977-1.354S615.3,722.677,617.715,729.277Z" transform="translate(-242.698 -299.918)" fill="#af9be2"/><path d="M584.945,756.247c-5.975,3.7-15.005,4.46-23.982,1.354s-15.618-9.255-18.013-15.878c5.975-3.7,15.005-4.46,23.977-1.354S582.533,749.646,584.945,756.247Z" transform="translate(-228.883 -311.287)" fill="#af9be2"/><path d="M550.015,789.5c-5.975,3.7-15.005,4.46-23.977,1.353s-15.618-9.255-18.019-15.878c5.975-3.7,15-4.46,23.977-1.354S547.6,782.9,550.015,789.5Z" transform="translate(-214.159 -325.304)" fill="#af9be2"/><path d="M516.3,814.038c-4.859,3.008-12.205,3.627-19.505,1.1s-12.685-7.52-14.652-12.917c4.859-3.008,12.205-3.627,19.505-1.1S514.336,808.67,516.3,814.038Z" transform="translate(-203.249 -337.05)" fill="#af9be2"/><path d="M491.575,837.056c-3.974,2.568-9.938,3.164-15.838,1.122S465.521,832.012,464,827.518c3.974-2.568,9.938-3.164,15.832-1.122S490.03,832.591,491.575,837.056Z" transform="translate(-195.602 -347.851)" fill="#af9be2"/><path d="M473.892,864.224c-3.974,2.568-9.938,3.158-15.832,1.117s-10.221-6.189-11.76-10.661c3.974-2.568,9.938-3.158,15.832-1.122S472.371,859.747,473.892,864.224Z" transform="translate(-188.14 -359.303)" fill="#af9be2"/><path d="M454.963,891.777c-3.222,2.742-8.619,4.049-14.4,3.129s-10.493-3.9-12.68-7.52c3.216-2.742,8.613-4.049,14.4-3.129S452.771,888.161,454.963,891.777Z" transform="translate(-180.375 -372.637)" fill="#af9be2"/><path d="M441.448,918.2c-3.627,1.035-8.445.1-12.726-2.811s-6.883-7.063-7.242-10.817c3.621-1.03,8.445-.1,12.726,2.811S441.1,914.449,441.448,918.2Z" transform="translate(-177.677 -381.155)" fill="#af9be2"/><path d="M425.658,937.366c-2.892.26-6.363-1.128-9.151-3.922s-4.176-6.288-3.91-9.157c2.892-.26,6.363,1.122,9.151,3.916S425.924,934.52,425.658,937.366Z" transform="translate(-173.919 -389.622)" fill="#af9be2"/><path d="M415.564,945.917a7.479,7.479,0,0,1-7.988-8,7.491,7.491,0,0,1,7.988,8Z" transform="translate(-171.808 -395.373)" fill="#af9be2"/><path d="M411.167,955.061a7.52,7.52,0,0,1-7.988-7.994,7.479,7.479,0,0,1,7.988,7.994Z" transform="translate(-169.956 -399.23)" fill="#af9be2"/><path d="M256.608,662.46A206.465,206.465,0,0,1,274.494,685.6a273.609,273.609,0,0,1,15.04,25.1,290.13,290.13,0,0,1,12.373,26.539,288.369,288.369,0,0,1,9.492,27.725,273.187,273.187,0,0,1,9.915,57.758,285.009,285.009,0,0,1-2.811,58.637l-4.147-.677a280.892,280.892,0,0,0,3.667-57.787,270.446,270.446,0,0,0-8.931-57.3,285.93,285.93,0,0,0-9.006-27.632A288.49,288.49,0,0,0,288.2,711.408a272.407,272.407,0,0,0-14.571-25.22,204.1,204.1,0,0,0-17.446-23.306Z" transform="translate(-107.995 -279.261)" fill="#cfc3ee"/><path d="M217.022,608.82c-1.66,6.3.121,14.519,5.316,21.628s12.471,11.32,18.979,11.667c1.654-6.311-.127-14.519-5.316-21.634S223.53,609.161,217.022,608.82Z" transform="translate(-91.234 -256.649)" fill="#cfc3ee"/><path d="M289.115,626.75c-5.97,2.62-11.3,9.116-13.646,17.608s-1.116,16.775,2.655,22.114c5.97-2.62,11.3-9.116,13.646-17.608S292.892,632.06,289.115,626.75Z" transform="translate(-115.623 -264.208)" fill="#cfc3ee"/><path d="M322.565,666.19c-6.45.937-13.3,5.784-17.845,13.339s-5.547,15.9-3.326,22.027c6.45-.937,13.3-5.784,17.845-13.339S324.786,672.316,322.565,666.19Z" transform="translate(-126.576 -280.834)" fill="#cfc3ee"/><path d="M344.31,706c-6.45.937-13.3,5.784-17.839,13.345s-5.547,15.9-3.326,22.027c6.45-.937,13.3-5.784,17.839-13.345S346.537,712.137,344.31,706Z" transform="translate(-135.746 -297.616)" fill="#cfc3ee"/><path d="M365.262,748.188c-6.479-.735-14.357,2.158-20.662,8.33s-9.434,13.952-8.85,20.437c6.473.74,14.351-2.187,20.656-8.335S365.84,754.679,365.262,748.188Z" transform="translate(-141.508 -315.353)" fill="#cfc3ee"/><path d="M376.434,793.573c-5.432-2.106-12.9-1.348-19.737,2.545s-11.3,9.944-12.257,15.676c5.432,2.1,12.9,1.348,19.737-2.551S375.474,799.312,376.434,793.573Z" transform="translate(-145.201 -334.049)" fill="#cfc3ee"/><path d="M387.044,823.424c-5.432-2.106-12.9-1.348-19.731,2.545s-11.3,9.932-12.263,15.67c5.432,2.106,12.9,1.348,19.737-2.545S386.084,829.162,387.044,823.424Z" transform="translate(-149.674 -346.632)" fill="#cfc3ee"/><path d="M389.218,861.863c-4.656-1.8-11.054-1.157-16.914,2.181s-9.683,8.515-10.5,13.437c4.628,1.8,11.054,1.157,16.914-2.187S388.4,866.785,389.218,861.863Z" transform="translate(-152.519 -362.905)" fill="#cfc3ee"/><path d="M387.909,898.738c-2.777-3.106-7.809-5.073-13.466-4.842s-10.516,2.6-13.032,5.923c2.776,3.106,7.809,5.073,13.472,4.836S385.392,902.047,387.909,898.738Z" transform="translate(-152.355 -376.816)" fill="#cfc3ee"/><path d="M386.386,927.84c-1.313-3.072-4.628-5.848-8.989-7.121s-8.648-.717-11.407,1.157c1.313,3.066,4.628,5.842,8.989,7.121S383.627,929.72,386.386,927.84Z" transform="translate(-154.285 -387.841)" fill="#cfc3ee"/><path d="M210.15,688.488c4.147,5.033,11.852,8.388,20.656,8.341s16.474-3.471,20.564-8.578c-4.147-5.033-11.847-8.388-20.656-8.341S214.24,683.432,210.15,688.488Z" transform="translate(-88.591 -286.617)" fill="#cfc3ee"/><path d="M230.89,721.948c4.147,5.027,11.852,8.387,20.662,8.341s16.468-3.505,20.558-8.584c-4.147-5.027-11.852-8.387-20.656-8.335S235,716.869,230.89,721.948Z" transform="translate(-97.334 -300.722)" fill="#cfc3ee"/><path d="M251.66,761.568c4.147,5.027,11.852,8.388,20.656,8.341s16.474-3.505,20.564-8.584c-4.147-5.027-11.852-8.387-20.662-8.335S255.75,756.466,251.66,761.568Z" transform="translate(-106.089 -317.424)" fill="#cfc3ee"/><path d="M279.7,793.916c3.372,4.1,9.637,6.82,16.775,6.779s13.4-2.84,16.723-6.976c-3.372-4.09-9.637-6.82-16.775-6.779S283.026,789.786,279.7,793.916Z" transform="translate(-117.91 -331.736)" fill="#cfc3ee"/><path d="M299.33,822.089c2.724,3.442,7.786,5.738,13.576,5.7s10.823-2.389,13.5-5.86c-2.719-3.471-7.786-5.738-13.57-5.7S302.031,818.613,299.33,822.089Z" transform="translate(-126.185 -344.083)" fill="#cfc3ee"/><path d="M306.73,851.209c2.719,3.436,7.786,5.732,13.57,5.7s10.823-2.389,13.507-5.865c-2.725-3.436-7.786-5.732-13.57-5.7S309.414,847.739,306.73,851.209Z" transform="translate(-129.304 -356.359)" fill="#cfc3ee"/><path d="M316.38,880.565c2.007,3.367,6.363,6.137,11.714,7.04s10.377-.3,13.38-2.823c-2.013-3.372-6.363-6.137-11.719-7.04S319.382,878.037,316.38,880.565Z" transform="translate(-133.372 -369.888)" fill="#cfc3ee"/><path d="M323.56,909.758c2.892,1.99,7.387,2.609,12,1.319s8.156-4.153,9.591-7.34c-2.892-1.99-7.387-2.609-12.009-1.319S324.971,906.565,323.56,909.758Z" transform="translate(-136.399 -380.131)" fill="#cfc3ee"/><path d="M336.33,931.965c2.441,1.082,5.923.908,9.209-.717s5.542-4.275,6.166-6.878c-2.447-1.087-5.929-.908-9.215.717S336.955,929.385,336.33,931.965Z" transform="translate(-141.782 -389.381)" fill="#cfc3ee"/><path d="M347,942.641a6.941,6.941,0,0,0,9.406-4.628A6.941,6.941,0,0,0,347,942.641Z" transform="translate(-146.28 -395.192)" fill="#cfc3ee"/><path d="M348.19,951.993a6.941,6.941,0,0,0,9.4-4.628,6.941,6.941,0,0,0-9.4,4.628Z" transform="translate(-146.782 -399.135)" fill="#cfc3ee"/><path d="M453.722,625.39a220.243,220.243,0,0,0-18.042,25.845,295.556,295.556,0,0,0-14.866,27.823,313.515,313.515,0,0,0-11.928,29.229,309.456,309.456,0,0,0-8.769,30.351,294.714,294.714,0,0,0-7.653,62.715,306.951,306.951,0,0,0,6.091,62.993l4.431-.949A302.591,302.591,0,0,1,396,801.365a291.091,291.091,0,0,1,6.612-62.16,308.232,308.232,0,0,1,8.231-30.247,311.88,311.88,0,0,1,11.424-29.229,293.665,293.665,0,0,1,14.369-27.922,221.788,221.788,0,0,1,17.567-26.03Z" transform="translate(-165.443 -263.635)" fill="#8475aa"/><path d="M519.582,565.55c2.117,6.7.631,15.618-4.587,23.572s-12.836,12.842-19.829,13.553c-2.111-6.7-.625-15.618,4.593-23.572S512.611,566.262,519.582,565.55Z" transform="translate(-208.349 -238.409)" fill="#8475aa"/><path d="M447.653,589.18c6.565,2.51,12.645,9.255,15.618,18.244s2.082,18.036-1.706,23.959c-6.56-2.51-12.645-9.226-15.618-18.244S443.864,595.1,447.653,589.18Z" transform="translate(-187.243 -248.37)" fill="#8475aa"/><path d="M409.734,633.69c6.993.671,14.64,5.53,19.91,13.432s6.814,16.827,4.743,23.543c-6.993-.671-14.641-5.53-19.91-13.426S407.663,640.406,409.734,633.69Z" transform="translate(-172.352 -267.133)" fill="#8475aa"/><path d="M388.4,677.72c7,.665,14.646,5.524,19.916,13.426s6.808,16.833,4.737,23.543c-7-.665-14.646-5.524-19.916-13.426S386.332,684.436,388.4,677.72Z" transform="translate(-163.359 -285.694)" fill="#8475aa"/><path d="M362.989,724.4c6.941-1.157,15.572,1.6,22.681,7.89s10.892,14.525,10.6,21.547c-6.941,1.157-15.572-1.6-22.681-7.884S362.7,731.424,362.989,724.4Z" transform="translate(-153.014 -305.265)" fill="#8475aa"/><path d="M351.49,773.825c5.738-2.557,13.819-2.135,21.4,1.7s12.685,10.1,14.016,16.237c-5.732,2.551-13.813,2.129-21.4-1.735S352.826,779.933,351.49,773.825Z" transform="translate(-148.173 -325.527)" fill="#8475aa"/><path d="M341.63,806.479c5.738-2.551,13.819-2.129,21.4,1.735s12.685,10.105,14.022,16.237c-5.732,2.551-13.819,2.129-21.4-1.706S342.966,812.611,341.63,806.479Z" transform="translate(-144.016 -339.296)" fill="#8475aa"/><path d="M344.89,847.854c4.917-2.187,11.841-1.828,18.325,1.458s10.875,8.677,12.02,13.917c-4.917,2.186-11.847,1.822-18.331-1.464S346.035,853.107,344.89,847.854Z" transform="translate(-145.391 -356.833)" fill="#8475aa"/><path d="M349.1,887.187c2.829-3.471,8.139-5.871,14.247-5.918s11.459,2.244,14.34,5.692c-2.829,3.471-8.133,5.871-14.247,5.917S351.981,890.635,349.1,887.187Z" transform="translate(-147.165 -371.501)" fill="#8475aa"/><path d="M357.16,918.176c1.255-3.372,4.68-6.536,9.307-8.139s9.255-1.221,12.344.659c-1.249,3.372-4.68,6.536-9.3,8.139S360.232,920.056,357.16,918.176Z" transform="translate(-150.563 -383.204)" fill="#8475aa"/><path d="M518.072,651.722c-4.205,5.634-12.321,9.654-21.813,10.065s-17.932-2.892-22.588-8.162c4.205-5.634,12.327-9.654,21.807-10.059S513.4,646.47,518.072,651.722Z" transform="translate(-199.678 -271.283)" fill="#8475aa"/><path d="M497.486,688.832c-4.2,5.634-12.321,9.66-21.807,10.065S457.746,696,453.09,690.741c4.2-5.634,12.321-9.66,21.807-10.065S492.824,683.58,497.486,688.832Z" transform="translate(-191.003 -286.926)" fill="#8475aa"/><path d="M477.2,732.581c-4.194,5.64-12.315,9.66-21.8,10.065s-17.932-2.892-22.588-8.156c4.194-5.634,12.321-9.654,21.807-10.065S472.538,727.329,477.2,732.581Z" transform="translate(-182.454 -305.369)" fill="#8475aa"/><path d="M454.682,768.745c-3.424,4.581-10.025,7.855-17.741,8.185s-14.577-2.36-18.371-6.635c3.419-4.581,10.019-7.855,17.735-8.185S450.888,764.476,454.682,768.745Z" transform="translate(-176.451 -321.258)" fill="#8475aa"/><path d="M440.041,799.989c-2.753,3.847-8.1,6.589-14.317,6.855s-11.783-2.007-14.855-5.605c2.753-3.847,8.1-6.583,14.317-6.855S436.975,796.391,440.041,799.989Z" transform="translate(-173.205 -334.865)" fill="#8475aa"/><path d="M433.605,831.734c-2.753,3.852-8.1,6.588-14.317,6.854s-11.783-2.007-14.849-5.6c2.753-3.847,8.1-6.589,14.311-6.855S430.534,828.142,433.605,831.734Z" transform="translate(-170.494 -348.25)" fill="#8475aa"/><path d="M426.37,863.721c-1.99,3.731-6.519,6.941-12.246,8.2s-11.193.226-14.554-2.314c1.99-3.731,6.519-6.941,12.252-8.2S423.009,861.159,426.37,863.721Z" transform="translate(-168.441 -362.901)" fill="#8475aa"/><path d="M422.706,895.7c-2.991,2.285-7.815,3.193-12.853,2.048s-9-4.049-10.713-7.4c3-2.314,7.821-3.2,12.859-2.053S421,892.34,422.706,895.7Z" transform="translate(-168.26 -374.253)" fill="#8475aa"/><path d="M414.958,920.237c-2.574,1.3-6.328,1.29-9.949-.283s-6.2-4.321-7-7.086c2.574-1.3,6.328-1.29,9.955.283S414.154,917.466,414.958,920.237Z" transform="translate(-167.784 -384.426)" fill="#8475aa"/><path d="M408.7,932.043a7.485,7.485,0,1,1-4.155-4.617A7.491,7.491,0,0,1,408.7,932.043Z" transform="translate(-167.918 -390.697)" fill="#8475aa"/><path d="M407.916,942.183a7.485,7.485,0,1,1-4.155-4.617A7.473,7.473,0,0,1,407.916,942.183Z" transform="translate(-167.59 -394.972)" fill="#8475aa"/><path d="M306.641,887c-9.926-14.542-20.379-28.743-31.531-42.377l.185-.156c11.436,13.42,22.184,27.419,32.422,41.787a503.88,503.88,0,0,1,28.512,44.616q3.135,5.605,6.091,11.32-1.157.642-2.314,1.3-2.834-5.785-5.883-11.476A502.241,502.241,0,0,0,306.641,887Z" transform="translate(-115.975 -355.988)" fill="#af9be2"/><path d="M255.526,812.69a13.372,13.372,0,0,1,9.834,6.756c2.377,3.98,2.765,8.486,1.342,11.87-3.662-.33-7.456-2.771-9.834-6.756S254.1,816.08,255.526,812.69Z" transform="translate(-107.37 -342.591)" fill="#af9be2"/><path d="M296.685,827.37c1.492,2.892,1.568,7.277-.1,11.609s-4.668,7.52-7.728,8.677c-1.492-2.892-1.568-7.277.1-11.609S293.625,828.521,296.685,827.37Z" transform="translate(-121.29 -348.78)" fill="#af9be2"/><path d="M289.12,878.508c-2.487,2.123-6.722,3.2-11.326,2.562s-8.382-2.817-10.2-5.53c2.487-2.117,6.722-3.2,11.32-2.562S287.3,875.806,289.12,878.508Z" transform="translate(-112.805 -367.929)" fill="#af9be2"/><path d="M308.1,903.017c-2.487,2.117-6.722,3.193-11.326,2.557s-8.382-2.811-10.2-5.53c2.487-2.117,6.722-3.193,11.32-2.557S306.278,900.3,308.1,903.017Z" transform="translate(-120.806 -378.261)" fill="#af9be2"/><path d="M320.99,922.528c-2.487,2.117-6.716,3.2-11.32,2.562s-8.388-2.817-10.21-5.53c2.487-2.117,6.722-3.2,11.326-2.563S319.168,919.815,320.99,922.528Z" transform="translate(-126.24 -386.486)" fill="#af9be2"/><path d="M335.314,944.069c-2.482,2.123-6.716,3.2-11.32,2.562s-8.387-2.811-10.2-5.524c2.487-2.123,6.722-3.2,11.32-2.568S333.48,941.356,335.314,944.069Z" transform="translate(-132.28 -395.568)" fill="#af9be2"/><path d="M313.205,848.4c1.492,2.892,1.568,7.271-.1,11.6s-4.668,7.52-7.728,8.677c-1.492-2.892-1.568-7.271.1-11.609S310.145,849.545,313.205,848.4Z" transform="translate(-128.254 -357.645)" fill="#af9be2"/><path d="M329,870c1.492,2.892,1.573,7.277-.1,11.609s-4.668,7.52-7.728,8.677c-1.492-2.892-1.568-7.277.11-11.609S325.942,871.157,329,870Z" transform="translate(-134.911 -366.75)" fill="#af9be2"/><path d="M344.025,891.85c1.492,2.892,1.568,7.271-.1,11.6s-4.668,7.52-7.728,8.677c-1.492-2.892-1.568-7.271.1-11.609S340.965,893,344.025,891.85Z" transform="translate(-141.246 -375.961)" fill="#af9be2"/><path d="M358.586,913.22c1.5,2.892,1.573,7.271-.1,11.609s-4.668,7.52-7.728,8.677c-1.492-2.892-1.568-7.277.11-11.609S355.532,914.365,358.586,913.22Z" transform="translate(-147.385 -384.97)" fill="#af9be2"/><path d="M305.26,975.58h65.862c10.944,5.582,17.891,13.883,17.891,23.19,0,9.926-7.913,18.736-20.159,24.295H307.539c-12.24-5.559-20.159-14.369-20.159-24.295C287.368,989.48,294.316,981.162,305.26,975.58Z" transform="translate(-121.147 -411.258)" fill="url(#b)"/><path d="M316.051,984.524c-6.5-.764-15.2,4.136-17.446,13.975-3.06,19.424,16.393,25.128,27,20.2-9.255-2.314-19.361-6.565-19.667-16.127-.509-5,2.464-9.834,2.51-9.978a28.421,28.421,0,0,1,7.6-8.069Z" transform="translate(-125.743 -414.995)" fill="#f8f0a1"/><rect width="72.763" height="4.57" transform="translate(253.798 566.04) rotate(180)" fill="#6b9fc5"/><rect width="286.714" height="281.386" transform="translate(963.305) rotate(90)" fill="#00bfa5"/><rect width="270.575" height="275.897" transform="translate(687.322 5.408)" fill="#f1ecff"/><path d="M1404.817,144.73H1354.26l44.465,24.092a54.3,54.3,0,0,0,6.091-24.092Z" transform="translate(-570.893 -61.011)" fill="#d7ceee"/><path d="M1253.28,144.73a54.449,54.449,0,0,0,27.65,46.455L1306.1,144.73Z" transform="translate(-528.325 -61.011)" fill="#d7ceee"/><path d="M1349.16,145.83v52.864a54.49,54.49,0,0,0,46.478-27.685Z" transform="translate(-568.743 -61.475)" fill="#d7ceee"/><path d="M1253.28,123.739h50.661L1259.4,99.6a54.257,54.257,0,0,0-6.12,24.139Z" transform="translate(-528.325 -41.987)" fill="#d7ceee"/><path d="M1375.474,61,1350.3,107.467h52.847A54.5,54.5,0,0,0,1375.474,61Z" transform="translate(-569.223 -25.715)" fill="#ffe5a0"/><path d="M1311.915,101.647V48.84a54.484,54.484,0,0,0-46.455,27.638Z" transform="translate(-533.459 -20.589)" fill="#d7ceee"/><path d="M1350.3,46.12V96.705l24.121-44.488A54.277,54.277,0,0,0,1350.3,46.12Z" transform="translate(-569.223 -19.442)" fill="#fffced"/><path d="M1328.187,149.69l-24.127,44.54a54.282,54.282,0,0,0,24.127,6.108Z" transform="translate(-549.731 -63.102)" fill="#d7ceee"/><rect width="11.939" height="45.154" transform="translate(732.14 215.865)" fill="#d7ceee"/><rect width="11.933" height="53.316" transform="translate(753.751 207.703)" fill="#d7ceee"/><rect width="11.939" height="61.477" transform="translate(775.362 199.541)" fill="#d7ceee"/><rect width="11.939" height="69.639" transform="translate(796.967 191.379)" fill="#d7ceee"/><rect width="11.933" height="77.801" transform="translate(818.577 183.218)" fill="#d7ceee"/><rect width="11.939" height="85.969" transform="translate(840.188 175.056)" fill="#d7ceee"/><rect width="11.939" height="94.131" transform="translate(861.793 166.894)" fill="#d7ceee"/><rect width="11.933" height="102.293" transform="translate(883.404 158.732)" fill="#d7ceee"/><rect width="11.939" height="110.455" transform="translate(905.015 150.57)" fill="#d7ceee"/><rect width="11.939" height="118.617" transform="translate(926.62 142.408)" fill="#d7ceee"/><path d="M1465.607,166.08h0c-1.059.185-29.634,5.281-30.658,5.281l9.77,2.649-29.3,11.112c-1.527,6.681-2.609,11.424-3.471,15.178l-20.824-1.938-27.557,24.775-21.576-2.742-39.959,34.036-18.632-6.288-40.491,28.072,2.019,2.892,39-27.066,18.846,6.363,40.289-34.331,21.64,2.753,27.6-24.827,22.38,2.088,3.76-16.434,27.766-12.726-2.152,9.55Z" transform="translate(-523.953 -70.011)" fill="#ecb2cd"/><rect width="15.196" height="116.875" transform="translate(318.307 468.919)" fill="#56585e"/><path d="M566.313,991.216H546.57v-31.9h19.742Z" transform="translate(-230.409 -404.403)" fill="#0a2126"/><path d="M420.72,1022.7l72.8-38.791v17.672l-52.2,21.119v3.875h-20.6Z" transform="translate(-177.357 -414.769)" fill="#0a2126"/><path d="M653.492,1022.7,580.7,983.91v17.672l52.2,21.119v3.875h20.593Z" transform="translate(-244.797 -414.769)" fill="#0a2126"/><path d="M548.6,983.91v42.666h-4.87v3.02h21.385v-3.02h-4.523l1.417-42.666Z" transform="translate(-229.212 -414.769)" fill="#0a2126"/><rect width="19.621" height="24.058" transform="translate(316.432 462.359)" fill="#303030"/><path d="M458.969,591.91,434.83,605.243l19.5,88.439,9.492-1.782-11.193-82.128,13.119-5.64Z" transform="translate(-183.305 -249.521)" fill="#1e0c00"/><path d="M628.082,591.91,653.5,611.872l-4.223,83.852-10.256-2.158,3.586-72.306L622.24,607.73Z" transform="translate(-262.308 -249.521)" fill="#1e0c00"/><path d="M551.144,577.081H478.786L458.91,454.027a36.355,36.355,0,0,1,35.864-42.157h40.347a36.361,36.361,0,0,1,35.864,42.157Z" transform="translate(-193.26 -173.625)" fill="#0089a9"/><path d="M585.537,773.22H450.18a13.42,13.42,0,0,1,13.414-13.42H572.128a13.42,13.42,0,0,1,13.408,13.42Z" transform="translate(-189.776 -320.295)" fill="#0089a9"/><path d="M585.255,371.927l6.8-4.587s-17.735-29.165-15.907-54.282c.966-13.264-20.789-32.815-26.568-29.8-.347-.133-19.314.422-21,43.748l-4.049,50.759L545.048,395.9s12.911-22.137,29.339-12.408,10.25,5.565,10.25,5.565S585.255,376.6,585.255,371.927Z" transform="translate(-221.118 -119.278)" fill="#002b32"/><path d="M501.649,435.5s-.174,48.312,4.714,58.545,2.724,71.265,2.724,71.265l56.439,1.677s7.219-56.931,7.219-72.5,5.68-59.158,5.68-59.158S540.029,425.483,501.649,435.5Z" transform="translate(-211.473 -181.691)" fill="#746c87"/><path d="M579.4,376.192c.85.85-2.62,24.046.781,30.849,0,0-9.035,50.007-15.115,50.736-5.287.63-8.1-41.868-9.174-46.721-1.423-6.519,1.683-39.115,1.683-39.115Z" transform="translate(-234.18 -156.792)" fill="#fc7575"/><path d="M579.969,386.355c-8.1,7.3-16.133,3.858-22.259-5.3.139-4.628.775-8.85.787-9.116l21.825,4.252C580.675,376.539,580.3,380.883,579.969,386.355Z" transform="translate(-235.106 -156.792)" fill="#fd5e5a"/><path d="M572.426,286.217s9.938,1.9,11.124,10.412,2.84,15.618,1.157,25.562-7.572,23.2-17.278,25.33-19.881-13.964-19.881-22.721-3.552-23.433,3.072-32.434S572.426,286.217,572.426,286.217Z" transform="translate(-230.42 -120.475)" fill="#fc7575"/><path d="M571.84,365.79c5.206,2.279,12.98,2.314,12.98,2.314a13.645,13.645,0,0,1-1.5,2.2,39.621,39.621,0,0,1-10.348-1.828,17.221,17.221,0,0,1-1.134-2.69Z" transform="translate(-241.062 -154.2)" fill="#fff"/><path d="M573.8,370.48a39.74,39.74,0,0,0,10.348,1.828C580.446,376.727,576.524,375.657,573.8,370.48Z" transform="translate(-241.888 -156.177)" fill="#2e0a29"/><path d="M581.587,285.532s9.938,1.9,11.124,10.412c1.07,7.722,2.534,14.282,1.562,22.843a27.331,27.331,0,0,0-6.988-3.233c-8.775-2.892-17.724-16.266-18.956-26.354C568.138,280.7,581.587,285.532,581.587,285.532Z" transform="translate(-239.581 -119.789)" fill="#fd5e5a"/><path d="M587.884,349.919a78.645,78.645,0,0,1-.416-8.179,83.591,83.591,0,0,1,.954,8.521c-1.446.393-3.181,1.2-5.362.382A9.006,9.006,0,0,0,587.884,349.919Z" transform="translate(-245.792 -144.061)" fill="#172866"/><path d="M574,338.626a5.414,5.414,0,0,0-3.656-3.552c-3.251-.85-5.206,3.829-7.456,3.783,1.6.816,4.153-1.915,5.912-2.609a3.206,3.206,0,0,1,2.736.324A8.329,8.329,0,0,1,574,338.626Z" transform="translate(-237.289 -141.208)" fill="#172866"/><path d="M571.938,337.557a1.591,1.591,0,1,0,1.579-1.787,1.689,1.689,0,0,0-1.579,1.787Z" transform="translate(-241.102 -141.545)" fill="#172866"/><path d="M594.58,340.533a5.414,5.414,0,0,1,3.818-3.384c3.28-.7,5.05,4.049,7.277,4.113-1.631.746-4.049-2.1-5.785-2.892a3.225,3.225,0,0,0-2.748.2A8.55,8.55,0,0,0,594.58,340.533Z" transform="translate(-250.648 -142.096)" fill="#172866"/><path d="M602.548,339.726a1.591,1.591,0,1,1-1.5-1.857,1.689,1.689,0,0,1,1.5,1.857Z" transform="translate(-252.675 -142.429)" fill="#172866"/><path d="M574.652,325.707c.353-.231-2.482-3.077-5.877-3.4s-7.074,3.4-7.074,3.4,5-2.991,7.121-2.025S572.7,326.974,574.652,325.707Z" transform="translate(-236.788 -135.86)" fill="#172866"/><path d="M569.509,349.217c-.434,1.3-2.811,1.672-5.316.839s-4.176-2.568-3.743-3.87,2.811-1.672,5.31-.833S569.942,347.915,569.509,349.217Z" transform="translate(-236.232 -145.395)" fill="#fd5e5a"/><path d="M605.26,349.983c.191,1.238-1.435,2.516-3.627,2.846s-4.119-.393-4.3-1.631,1.429-2.516,3.621-2.846S605.069,348.751,605.26,349.983Z" transform="translate(-251.801 -146.815)" fill="#fd5e5a"/><path d="M508.128,655.547l-10.632,5s-12.049,13.345-14.721,36.922S512.131,732.6,512.131,732.6l63.161-4.431s23.352-63.988-15.416-71.681C522.653,649.086,508.128,655.547,508.128,655.547Z" transform="translate(-203.449 -275.246)" fill="#001542"/><path d="M567.625,718.38s.336,11.176.949,11.419c5.3,2.094,28.535-.532,31.086,12.726,2.846,14.814-44.211,122.822-41.07,138.828s7.323,29.825,9.886,32.393,2.6,4.743.376,6.941-11.685-.347-14.357-3.014-5.86-23.311-10.643-28.089-6.669-7.786-1.111-19.129,20.014-99.187,21.8-108.309-1.1-13.154-1.1-13.154L541.4,735.016Z" transform="translate(-227.36 -302.835)" fill="#ff4747"/><path d="M553.291,699.66s-8.231-5.559-24.688,0-27.575,19.349-29.356,25.8-9.122,131.655-18.9,152.132-10.377,21.645-14.681,25.943-2.314,14.918,0,17.261,20.46-2.435,22.559-9.55,6.525-23.716,8.306-28.766,14.322-52.708,26.285-75.279,15.85-72.4,15.85-76.575,21-5.709,21-5.709S564.114,702.13,553.291,699.66Z" transform="translate(-195.234 -293.902)" fill="#fc7575"/><path d="M576.678,438.48s7.664,4.466,8.746,10.1c4.356,22.716,8.156,80.294,6.363,94.865-2.221,18.192-9.342,18.192-9.342,18.192L497.5,551.462l3.557-22.687s57.845,3.557,63.629,3.557,6.2-43.9,6.2-43.9Z" transform="translate(-209.724 -184.842)" fill="#4d475b"/><path d="M482.168,438.78s-20.188-.174-24.636,25.625-1.77,97.37,7.56,97.37,60.963-29.946,68.066-29.946h0a4.819,4.819,0,0,1-3.691-3.858l-2.453-13.744s-40.133.445-47.248,7.56c0,0,7.566-28.02,7.566-38.253S494.622,438.78,482.168,438.78Z" transform="translate(-191.991 -184.969)" fill="#998db6"/><path d="M603.384,579.876s-22.525-7.52-23.138-4.014c-1.608,9.394,3.633,13.68,3.633,13.68s15.259,2.314,17.712-.156S603.384,579.876,603.384,579.876Z" transform="translate(-244.477 -242.363)" fill="#fc7575"/><path d="M951.067,584.227l-1.157,36.292s17.2,3.262,21.946,1.44c2.632-1.007,3.129-19.089,2.314-39.994C965.146,581.231,959.564,581.179,951.067,584.227Z" transform="translate(-400.438 -245.153)" fill="#fd5e5a"/><path d="M972.2,514.48a484.776,484.776,0,0,0-4.176-48.433c-4.448-29.356-22.241-44.587-22.241-44.587l-.492,90.354.411,6.039A62.75,62.75,0,0,1,972.2,514.48Z" transform="translate(-398.491 -177.667)" fill="#703c6a"/><path d="M821.474,417.011c0,11.864,2.042,71.051,5.594,89.96s-24.8,51.806-24.8,67.765,20.755,39.1,20.755,39.1h69.414s21.356-38.849,13.646-57.087-18.418-4.593-13.079-30.71,5.854-61.853,2.892-86.767-16.44-32.486-39.572-32.486S821.474,405.141,821.474,417.011Z" transform="translate(-338.2 -171.448)" fill="#47003f"/><path d="M900.064,675.842s-32.694-10.007-48.335,5.634-13.64,44.483-13.64,44.483H907.5S930.011,694.225,900.064,675.842Z" transform="translate(-353.265 -283.574)" fill="#060032"/><path d="M850.738,703.927c-4.888-11.87-10.215-14.137-14.687-14.137a28.668,28.668,0,0,0-26.395,18.51c-5.819,14.883-28.344,105.688-32.289,122.481-2.806,11.962-8.33,20.245-14.178,27.042-12.321,18.574-8.763,30.507-.382,39.335,0,1.157,8.966,3.419,18.973-24.387,2.239-6.213,3.268-10.025,5.929-23.5S855.62,715.791,850.738,703.927Z" transform="translate(-318.354 -290.783)" fill="#fd5e5a"/><path d="M780.649,1006.653c-3.268,2.059-11.181,6.831-14.322,6.831s-7.271-9.012-9.1-13.3c-4.535,12.593-.937,21.981,5.588,28.888C764.025,1030.508,771.111,1031.312,780.649,1006.653Z" transform="translate(-318.355 -421.628)" fill="#482044"/><path d="M907.871,713.927c.26-12.98-7.734-15.7-14.068-16.844-7.971-1.429-18.412,7.716-27.008,21.188S838.452,823.96,834.5,840.758c-2.8,11.962-8.33,20.246-14.178,27.042-12.315,18.568-8.758,30.692-.382,39.543,0,1.157,8.972,3.234,18.979-24.578,2.233-6.213,3.263-10.024,5.929-23.5S907.611,726.757,907.871,713.927Z" transform="translate(-342.44 -293.795)" fill="#ff7b7b"/><path d="M836.2,1017.738c-3.916,1.319-8.011,2.221-11.228,1.689-6.363-1.058-7.52-11.609-7.52-18.817-8.752,16.04-5.119,27.557,2.516,35.627C821.406,1037.023,827.347,1038.365,836.2,1017.738Z" transform="translate(-342.453 -421.809)" fill="#4b2847"/><path d="M909.048,589.079l15.7,29.027a.469.469,0,0,1-.81.463L907.3,590.062a1,1,0,0,1,1.735-1.006Z" transform="translate(-382.419 -248.107)" fill="#99cedc"/><path d="M857.031,593.13c-3.413-3.413-8.59,1.209-13.3,2.69s-49.226,1.157-55.45-.3c-2.314-.578-1.238-7.647,1.1-17.238a53.127,53.127,0,0,0-22.449-2.216c-2.435,23.358-3.222,44.049,0,46.183,7.115,4.7,66.325-14.571,72.306-14.571s3.014,2.771,11.91,2.771a30.96,30.96,0,0,0,10.99-1.787,2.441,2.441,0,0,0,1.406-3.176C862.22,602.09,859.5,595.6,857.031,593.13Z" transform="translate(-322.403 -242.695)" fill="#fc7575"/><path d="M789.451,581.8c.249-1.122.526-2.314.821-3.511a53.126,53.126,0,0,0-22.45-2.216c-.3,2.927-.578,5.785-.833,8.625C771.4,583.852,782.307,581.9,789.451,581.8Z" transform="translate(-323.328 -242.695)" fill="#fd5e5a"/><path d="M788.119,509.213c7.381-16.162,19.4-43.141,20.332-53.969,1.487-17.2-2.25-43.384-2.25-43.384s-20.245,12.558-26.759,27.089c-3.575,7.954-14.617,42.024-17.562,70.258C769.238,508.368,780.882,506.806,788.119,509.213Z" transform="translate(-321.174 -173.62)" fill="#95508d"/><path d="M885.25,644.243h42.7S898.647,634.774,885.25,644.243Z" transform="translate(-373.181 -269.808)" fill="#cef2fa"/><path d="M1000,644.907H959.06s15.768-3.3,26.412-3.3S1000,644.907,1000,644.907Z" transform="translate(-404.295 -270.472)" fill="#5db9f4"/><path d="M992.737,624.508s-19.916-.578-33.677,13.189a55.724,55.724,0,0,1,17.215-7.427,74.923,74.923,0,0,1,17.932-2.632Z" transform="translate(-404.295 -263.261)" fill="#5db9f4"/><path d="M880.42,646.587h45.489l-43.031-1.007Z" transform="translate(-371.145 -272.146)" fill="#00485c"/><path d="M1004.761,514.192c-3.181-20.7-.578-44.916-.578-44.916a15.036,15.036,0,0,1,12.94-2.846c7.41,1.973,11.332,3.2,10.609,1.093s-10.337-5.466-10.337-5.466,9.255-.1,14.01,2.314,5.825-2.268-7.364-4.628-8.873-3.6-6.658-4.361,15.363,2.661,18.846.179c3.228-2.314-17.822-4.628-24.017-3.881,26.967-7.653,18.545-10.991-6.982-2.21-7.323,2.51-13.883,13.46-14.056,13.721-.665.868-7.884,34.285-8.283,59.783C989.843,519.878,998.335,518.229,1004.761,514.192Z" transform="translate(-414.341 -187.271)" fill="#fd5e5a"/><path d="M978.274,492.53c-1.978,1.978-24.81,87.346-11.777,90.753s28.922-12.876,28.922-12.876l3.112-70.443Z" transform="translate(-405.745 -207.627)" fill="#333a6a"/><path d="M1296.786,472.27c2.678-6.062,13.883-7.641,17.469-8.787s6.9-8.341,9.3-9.111,1.666,7.271-1.961,9.359,1.024,5.241,3.835,5.27,13.05-.74,15.4-6.045,6.7-8.457,7.289-6.606-5.408,9.9-5.408,9.9,9.706-8.862,10.412-6.675-8.156,8.555-8.156,8.555,5.97-2.748,7.7-1.735-14.183,10.857-17.353,11.864-15.572.341-21.715-.289c-2.574-.266-3.87,12.4-8.254,28.922-2.25-4.049-13.172-7.52-16.341-10.852C1294.287,484.793,1295.727,474.659,1296.786,472.27Z" transform="translate(-543.382 -191.52)" fill="#fc7575"/><path d="M1274.88,506.34l-20.089,84.453s18.851,2.748,26.765,0,17.787-58.782,17.787-83.244Z" transform="translate(-528.961 -213.449)" fill="#333a6a"/><path d="M1508.74,753.815l-41.885,8.1-26.614-10.574,26.614-27.575Z" transform="translate(-607.138 -305.107)" fill="#47405c"/><path d="M1505.743,451.05s-6.8,4.1-14.982,23.994-8.156,61.073-16.162,64.844c-7,3.3-63.091,10.152-76.968,11.812a6.513,6.513,0,0,0-4.749,3.014l-7.242,11.569,37.663,1.232s42.805,21.339,53.732,14.056,42.7-67.5,46.82-85.292S1505.743,451.05,1505.743,451.05Z" transform="translate(-584.121 -190.141)" fill="#5f557b"/><path d="M1433.458,591.553c-1.781,0-19.575-4.153-19.575-4.153l-4.153,18.389,18.389,7.711Z" transform="translate(-594.276 -247.62)" fill="#c3edf4"/><path d="M1348.809,1023.13s-6.253,19-23.716,23.716c-6.589,1.776-36.679,16.63-31.051,16.63,2.146,0,64.5.214,64.5.214s4.628-8.22,2.892-15.618,6.8-24.908,6.8-24.908Z" transform="translate(-545.214 -431.303)" fill="#5f557b"/><path d="M191.39,268.18s5.247,31.381,21.709,52.512c12.3,15.792,38.045,33.4,38.045,33.4l-14.583,15.971L196.37,336.911Z" transform="translate(-80.682 -113.052)" fill="#363a68"/><path d="M129.847,217.44H97.61l1.047,106.018,42.794,2.887Z" transform="translate(-41.149 -91.662)" fill="#260e0d"/><path d="M189.976,1080.376c18.157,0,17.718,7.468,17.718,7.468H154.54s2.649-22.941,3.048-28.344h12.477C171.448,1066.106,176.029,1080.376,189.976,1080.376Z" transform="translate(-65.148 -446.635)" fill="#260e0d"/><path d="M49.3,1083.1c16.538,0,19.916-20.038,20.39-23.635H81.631v1.735c0,2.487,3.1,29.356,3.1,29.356H31.589S31.144,1083.1,49.3,1083.1Z" transform="translate(-13.318 -446.618)" fill="#260e0d"/><path d="M58.032,715.329,41.06,571.84l4.8-42.47h93.4l.683,37.42,9.8,145.8S125.363,834,125.779,836H108.125c.035-.445,4.986-133.112,4.986-133.112l-20.136-118.2L85.091,708.752s3.581,111.82,3.638,127.259h-16.6C72.175,835.641,58.032,715.329,58.032,715.329Z" transform="translate(-17.311 -223.157)" fill="#2f1954"/><path d="M48.26,534.932l.631-5.582h93.4l.087,4.888-19.6,6.675a82.092,82.092,0,0,1-49.168,1.244Z" transform="translate(-20.346 -223.149)" fill="#0e0e0e"/><path d="M33.9,247.311c10.158-11.407,33.66-29.617,59.58-25.22l27.094,12.02,7.959,58.423,7.08,111.3L39.1,404.95l-9.18-108.343S23.744,258.724,33.9,247.311Z" transform="translate(-11.83 -93.34)" fill="#f1a97e"/><path d="M127.634,168.983s.278,22.831,2.458,34.458c.845,4.5-1.215,9.1-5.038,10.759a18.846,18.846,0,0,1-11.21,1.053c-12.147-2.314-12.564-15.965-12.564-15.965l4.1-41.648Z" transform="translate(-42.696 -66.453)" fill="#fc7575"/><path d="M107.542,157.66,129.8,168.992s.1,8.428.671,17.648c-5.784.289-13.108-3.008-20.824-12.94-1.157-1.475-2.221-2.944-3.228-4.39Z" transform="translate(-44.863 -66.462)" fill="#fd5e5a"/><path d="M119.385,75.444A39.913,39.913,0,0,1,130.294,92.8c3.3,10.875,6.178,18.742,6.178,18.742L133,113.853s2.788,15.178.619,20.356c-3.3,7.867-17.191,14.23-32.972-3.471S83.555,97.419,86.211,89.79,113.207,71.511,119.385,75.444Z" transform="translate(-35.887 -31.447)" fill="#fc7575"/><path d="M91.537,73.376a18.933,18.933,0,0,1,17.116-3.7c10.088,2.777,13.484-1.5,11.528-3.7,0,0,8.856.231,12.147-7.867s2.476-32.619-13.177-27.991-12.489,15.728-12.489,15.728-5.015-5.322-9.753-2.545-4.119,6.71-4.119,6.71S88.472,59.037,82.5,60.194,77.146,74.77,77.146,74.77s-3.471,2.771-1.03,12.489,17.024,24.792,17.024,29.42c0,0,3.569-6.051.683-15.537S90.93,86.1,94.03,86.1,91.537,73.376,91.537,73.376Z" transform="translate(-31.722 -12.454)" fill="#121841"/><path d="M105.925,132.353s-1.007-7.983-3.245-7.983-4.327.868-3.783,5.38,2.858,9.544,5.784,7.462A3.581,3.581,0,0,0,105.925,132.353Z" transform="translate(-41.655 -52.428)" fill="#fc7575"/><path d="M63.78,103.624a2.892,2.892,0,0,1,1.371-1.735c2.094-1,4.894,1.157,6.739,2.649l.312-.416a14.31,14.31,0,0,0-4.4-3.8,4.343,4.343,0,0,0-6.16,2.464Z" transform="translate(-25.986 -42.077)" fill="#121841"/><path d="M63.083,117.058a9.926,9.926,0,0,1,.075-3.714c1.336-6,7.844-5.478,8.162-5.657v-.37c-.185.069-9.411-1.938-10.736,7.751a11.257,11.257,0,0,0-.1,2.58Z" transform="translate(-25.486 -45.186)" fill="#121841"/><path d="M147.44,115.117c0,1.967.775,3.557,1.735,3.557s1.735-1.591,1.735-3.557-.775-3.557-1.735-3.557S147.44,113.151,147.44,115.117Z" transform="translate(-62.155 -47.028)" fill="#2f499f"/><path d="M140.569,108.289a7,7,0,0,1,7.988-1.209l.648-2.557a7.611,7.611,0,0,0-8.885,1.4Z" transform="translate(-59.154 -43.705)" fill="#2f499f"/><path d="M158.91,224.41l7.2,216.027h44.783l-13.206-98.122-8.642-59.655s-4.2-40.115-13.3-47.288A107.528,107.528,0,0,0,158.91,224.41Z" transform="translate(-66.99 -94.601)" fill="#555da2"/><path d="M106.09,130.886s-1.307-2.7-2.476-2.314-1.435,5.825.642,8.1S108.086,135.213,106.09,130.886Z" transform="translate(-43.301 -54.184)" fill="#fd5e5a"/><path d="M65.035,222.37,69.75,439.577H21.785s-1.8-172.152,3.505-190.153S65.035,222.37,65.035,222.37Z" transform="translate(-9.06 -93.741)" fill="#555da2"/><path d="M173.973,229.5,153.34,217.44,160,324.829l11.314-60.911-3.991-2.748Z" transform="translate(-64.642 -91.662)" fill="#777eb5"/><path d="M85.976,323.817,84.217,217.44,65.84,225.793l10.013,35.3-2.545,1.978Z" transform="translate(-27.757 -91.662)" fill="#777eb5"/><path d="M204.764,414.13l66.481-50.84-70.409-6.531L147.59,414.13Z" transform="translate(-62.218 -150.393)" fill="#1e3340"/><path d="M149.546,418.63s-7.225,1.649-9.891,4.57c-3.413,3.725-11.5,9.787-14.9,9.787s-17.874,1.446-17.874,1.446L104.45,450.7S158.465,438.066,161,435.284s-12.662,2.065-12.662.827,18.319-2.632,17.353-5.785-16.908,4.205-18.325,2.661,19.291-4.107,19.291-7.41-20.587,4.778-20.587,4.778-.382-1.683,5.206-4.367,10.99-4.847,9.735-6.2-15.473,7.207-17.353,5.154Z" transform="translate(-44.033 -176.474)" fill="#fc7575"/><path d="M29.45,258.373s7.85,14.664,6.282,35.794-4.24,53.524.15,64.086,36.6,0,36.6,0v25S25.794,402.62,12.27,396.286.036,335.376.036,308.605,20.825,239.174,29.45,258.373Z" transform="translate(-0.003 -106.889)" fill="#777eb5"/><path d="M50.91,261.88c3.87,8.5,6.421,21.084,5.605,34.128-1.452,19.667-6.033,62.351,2.348,68.835,8.1,5.079,26.366,0,35.077-3.112-8.549,2.314-32.734,8.012-35.864-.382-2.678-6.722-2.244-22.953-2-30.172.972-31.2,4.72-42.227-1.735-61.246A50.286,50.286,0,0,0,50.91,261.88Z" transform="translate(-21.463 -110.396)" fill="#eef1f9"/><path d="M153.606,161.379l-.619,3.928c-7.8-.885-11.667-7.647-11.667-7.647C145.953,162.392,153.606,161.379,153.606,161.379Z" transform="translate(-59.575 -66.462)" fill="#2b3278"/><path d="M266.982,416.287a21.421,21.421,0,0,1,2.429,4.761c1.446,3.471-2.574,7.051-3.361,7.8a38.374,38.374,0,0,1-5.871,4.362,13.768,13.768,0,0,1-4.379,1.834c-2.377.526-7.7-8.1-6.97-8.943.5-.578,1.093-.989,1.649-.816s6.519,4.9,6.519,4.9-5.333-6.8-4.726-8.821,1.735-1.776,2.215-1.261,7.213,6.883,7.213,6.883-4.57-8.1-4.171-9.446,2.239-2.244,4.333,1.024a37.147,37.147,0,0,0,4.263,4.83s-2.568-6.132-1.978-8.1S266.982,416.287,266.982,416.287Z" transform="translate(-104.868 -174.785)" fill="#fc7575"/><path d="M1138.7,1065.6a19.625,19.625,0,0,0,.578,2.1c1.255,3.823,4.761,11.708,12.772,13.663,10.684,2.6,19.129-.22,21.061,1.735s2.644,7.9,2.644,7.9l-64.283,3,3.789-26.256Z" transform="translate(-468.544 -449.206)" fill="#403003"/><path d="M1068.18,791.457l24.677,166.495,32.989-5.258L1120.483,790.3Z" transform="translate(-450.295 -333.153)" fill="#403003"/><path d="M1071.363,1047.921s-8.162,6.941-8.162,14.247l-28.228,20.824H1025s20.824-26.03,25-32.549a27.709,27.709,0,0,0,4.356-12.923Z" transform="translate(-432.093 -437.369)" fill="#4c3d65"/><path d="M1175.573,772.843c-9.157-27.575-34.337-14.82-34.337-14.82-15.711,2.967-39.121,57.226-42.383,74.151-2.354,12.211-25.556,67.759-38.293,97.729,8.833-4.807,20.523-2.007,25.631,6.317C1113.158,891.6,1178.581,781.908,1175.573,772.843Z" transform="translate(-447.083 -318.305)" fill="#554004"/><path d="M1051.784,1062.838s7.717,2.233,10.181,7.358-10.181,15.04-10.181,19.528,3.338,8.347,0,10.013-30.715,1.944-29.217-3.534,12.257-11.656,16.648-18.51S1047.5,1061.01,1051.784,1062.838Z" transform="translate(-431.042 -447.948)" fill="#322844"/><path d="M1138.083,773.885s41.365-11.933,27.945,16.295c-2.6,5.461-121.8,13.663-121.8,3.673s7.56-19.968,7.56-19.968Z" transform="translate(-440.199 -325.177)" fill="#403003"/><path d="M1037.612,461.436a119.329,119.329,0,0,1,31.051-7.155c9.33-.8,18.649,2.221,29.148,2.221,29.651,0,58.267,7.855,61.4,22.259s-35.921,155.1-27.025,164-78.559,14.5-89.526,3.529S1005.589,473.89,1037.612,461.436Z" transform="translate(-430.914 -191.446)" fill="#000945"/><path d="M1111.4,405.622l-8.879,29.923s23.219,9.168,38.756,0l-4.894-33.186Z" transform="translate(-464.771 -169.616)" fill="#f66d75"/><path d="M1013.131,466.75s-24.931,33.469-30.259,49.48-19.91,43.216-18.666,50.261,9.915,14.056,24.422,10.568,13.472-17.521,13.472-17.521Z" transform="translate(-406.433 -196.759)" fill="#000945"/><path d="M1239.989,492.53s31.277,86.264,25.087,92.459-26.765,0-26.765,0l-22.612-44.1Z" transform="translate(-512.482 -207.627)" fill="#000945"/><path d="M1570.887,280.929s-11.644,15.3-13.4,25.683c-1.8,10.678-3.98,27.766-3.98,27.766h4.743s3.945,9.475,3.945,15.8,10,2.366,15.8,2.366,18.69-5,23.716-23.138S1615.9,278.823,1570.887,280.929Z" transform="translate(-654.887 -118.385)" fill="#fc7575"/><path d="M1600.175,430.36l-7.069,5.264-2.516,9.637,10.111-4.633Z" transform="translate(-670.518 -181.419)" fill="#98b0bf"/><path d="M1615.549,364.28l17.637,40.538s-33.828,11.187-32.115,9.475-2.181-31.589-2.181-31.589Z" transform="translate(-674.017 -153.563)" fill="#fc7575"/><path d="M1553.966,257.934c-.538.9-9.677,19.488,6.085,26.609s19.667-3.124,23.9,3.193-3.656,16.544-.231,22.334l5.246,1.007s1.07-3.112,3.176-3.112,2.7,15.948,6.085,15.948,9.973-13.576,13.131-19.9,9.741-27.638-2.372-33.162-17.353-1.319-17.353-6.583-5.264.266-5.264.266-2.892-3.951-1.053-8.428-12.9-6.056-16.324,2.892S1559.762,248.193,1553.966,257.934Z" transform="translate(-653.764 -106.444)" fill="#2d1175"/><rect width="15.202" height="112.543" transform="translate(951.447 513.87)" fill="#56585e"/><path d="M1660.853,1062.226H1641.11V1031.51h19.742Z" transform="translate(-691.815 -434.835)" fill="#0a2126"/><path d="M1515.27,1092.546l72.792-37.356v17.018l-52.193,20.338v3.731h-20.6Z" transform="translate(-638.767 -444.818)" fill="#0a2126"/><path d="M1748.038,1092.546l-72.8-37.356v17.018l52.2,20.338v3.731h20.6Z" transform="translate(-706.203 -444.818)" fill="#0a2126"/><path d="M1643.141,1055.19v41.087h-4.87v2.909h21.385v-2.909h-4.524l1.417-41.087Z" transform="translate(-690.618 -444.818)" fill="#0a2126"/><rect width="19.494" height="39.34" transform="translate(949.295 490.049)" fill="#303030"/><path d="M1263.6,899.45s-14.2,14.235-18.938,18.979-31.236,7.2-25.949,12.454,18.863,12.066,25.076,12.066,29.935-5.316,29.935-5.316,2.707-23.768,5.929-26.99Z" transform="translate(-513.46 -379.165)" fill="#47405c"/><path d="M1375.338,688.21c-20.165,0-90.758,115.69-90.758,115.69l7.08,6.525,18.961,14.1c3.222-3.222,77.073-94.669,77.073-94.669s28.656,11.7,50.6,11.7,48.22-45.368,48.22-45.368C1483.965,693.619,1395.5,688.21,1375.338,688.21Z" transform="translate(-541.519 -290.116)" fill="#5f557b"/><path d="M1634.4,573.589c.041-.422.081-.839.116-1.238,1.481-17.2,6.155-153.6-17.9-153.6,0,0-27.713,4.992-45.373,27.424-2.979,3.783-3.505,7.19-4.824,12.344-8.775,34.418-14.6,98.18-13.79,122.342C1579.759,591.631,1610.127,590.937,1634.4,573.589Z" transform="translate(-654.487 -176.525)" fill="#c3edf4"/><path d="M1626.467,398.55c-2.371,0-26.609,23.369-26.609,23.369l-2.088,13.437,37.923-17.712Z" transform="translate(-673.545 -168.01)" fill="#caebff"/><path d="M1592.1,441.65l-5.929,2.47-6.2,12.824,3.528-1.111,7.184-5.356Z" transform="translate(-666.046 -186.179)" fill="#c33ea4"/><path d="M1566.431,466.17s-14.351,72.815-17.706,136.855l-9.255,8.295a233.148,233.148,0,0,0,1.157-24.613c0-14.531,15.039-108.974,22.27-119.426Z" transform="translate(-648.968 -196.515)" fill="#743064"/><path d="M1608.083,418.75a78.608,78.608,0,0,0-16.694,5.582c-2.649,10.73-17.5,35.534-24.121,62-4.946,19.777-16.48,45.559-18.389,62-1.637,14.143-4.309,26.285-5.206,34.591-2.238,20.043-11.372,54.1-11.372,54.1l86.293-11.795s5.929-35.679,7.416-52.882S1632.135,418.75,1608.083,418.75Z" transform="translate(-645.946 -176.525)" fill="#7f71a4"/><path d="M1624.251,710.053l-16.775-1.909a11.818,11.818,0,0,1-10.412-13.079l3.69-32.486,40.289,4.576-3.691,32.486a11.824,11.824,0,0,1-13.1,10.412Z" transform="translate(-673.215 -279.312)" fill="#998db6"/><path d="M1608.645,412.53l-23.016,19.58-23.138,111.8s26.5-46.38,25.822-51.175-4.784-9.03-4.784-9.03S1608.645,420.779,1608.645,412.53Z" transform="translate(-658.673 -173.903)" fill="#b2aac8"/><path d="M1647.958,403.1l-7.786,5.455-2.892,11.453,18.343-6.93Z" transform="translate(-690.201 -169.928)" fill="#b2aac8"/><path d="M1623.726,802.79h36.679v17.932a9.024,9.024,0,0,1-9.024,9.024h-18.637a9.024,9.024,0,0,1-9.024-9.024V802.79Z" transform="translate(-684.484 -338.418)" fill="#303030"/><path d="M1644.292,657.119s-84.633-.578-87.317,5.322,1.325,75.065,1.325,75.065l10.077-1.811s-4.171-58.655,2.082-64.9,74.724,3.222,75.615,2.314S1644.292,657.119,1644.292,657.119Z" transform="translate(-655.958 -277.003)" fill="#1e0c00"/><path d="M1554.474,660.088c-4.506,4.755.879,56.109,1.66,62.559.636-29.044-.254-53.356,1.157-59.754,4.685-2.892,40-4.078,68.639-6.311C1616.241,655.97,1561.184,653.968,1554.474,660.088Zm2.892,2.678a.052.052,0,0,1,0-.029s-.006,0-.017.029Z" transform="translate(-654.544 -276.444)" fill="#b2aac8"/><path d="M1666.49,791.937H1515.85a16.2,16.2,0,0,1,16.2-16.2h134.425Z" transform="translate(-639.011 -327.015)" fill="#0a6980"/><path d="M1725.736,475.65s-35.586,17.076-35.586,73.775,20.737,99.794,20.737,99.794h29.061s-37.362-79.907-20.165-113.983S1766.06,482.175,1725.736,475.65Z" transform="translate(-712.488 -200.511)" fill="#0a6980"/><path d="M1646.342,535.936c16.422-32.543,43.656-51.314,10.991-58.626,24.167,8.173-.81,26.609-16.249,57.18-17.2,34.082,20.165,113.989,20.165,113.989v16.2H1515.954c-.04.474-.063.954-.063,1.446H1666.53v-16.2S1629.144,570.012,1646.342,535.936Z" transform="translate(-639.028 -201.211)" fill="#084f60"/><path d="M1556.708,436.967c-10.742,2.545-23.578,10.412-30.658,31.78s-14.2,51.083-23.687,55.427-71.2-.578-71.2-.578l-1.562,27.725s67.349,19.771,85.4,17.793,49.747-66.094,59.389-89.278C1592.954,435.209,1567.994,434.312,1556.708,436.967Z" transform="translate(-602.653 -183.844)" fill="#998db6"/><path d="M1557.842,437.59c-30.328,9.255-29.073,40.931-42.429,73.5-2.129,4.963-6.213,13.594-11.32,15.531-1.157,0-7.618,5.784-71.8-2.372,21.5.48,65.48,2,71.19-1.666,8.578-5.9,16.046-37.3,22.762-55.184a53.911,53.911,0,0,1,11.881-19.343,37.241,37.241,0,0,1,19.719-10.464Z" transform="translate(-603.787 -184.467)" fill="#d4c5f6"/><path d="M1436.831,781.539c-8.139,39.2-33.55,130.851-33.55,130.851l-30.941-8.966s19.343-146.851,34.984-162.5S1444.964,742.338,1436.831,781.539Z" transform="translate(-578.514 -309.908)" fill="#7f71a4"/><path d="M1398.094,629.869s8.549-1.3,12.969,3.112a27.77,27.77,0,0,1,6.161,9.568l-31.583-.943S1390.557,629.511,1398.094,629.869Z" transform="translate(-584.121 -265.447)" fill="#313b3d"/><path d="M1385.1,639.747s4.917-12.066,12.454-11.737c0,0,8.549-1.3,12.969,3.112a26.376,26.376,0,0,1,2.082,2.366,31.644,31.644,0,0,0-2.828-4.049c-4.414-5.328-10-4.02-12.963-3.76-7.52.671-12.454,14.166-12.454,14.166Z" transform="translate(-583.582 -263.618)" fill="#c3edf4"/><path d="M1399.935,628.682s-4.292-.405-5.854,1.116-2.539,2.632-3.037,3.112-.069,6.67,7.063,8.231,5.859-1.822,7.9-.966,4.373,2.187,5.4,1.157,2.395,1.446,3.876,0-2.6-10.574-4.94-12.859-4.049-1.452-5.923-1.452S1399.935,628.682,1399.935,628.682Z" transform="translate(-586.338 -264.26)" fill="#fc7575"/><rect width="8.318" height="245.1" transform="translate(828.197 391.245)" fill="#743064"/><rect width="8.318" height="245.106" transform="translate(173.093 389.776)" fill="#743064"/><rect width="8.318" height="245.1" transform="translate(250.582 383.621)" fill="#743064"/><rect width="716.188" height="16.977" transform="translate(149.383 374.435)" fill="url(#c)"/><path d="M1101.434,681.445h-94L981.6,540.732c-4.628-25.278,17.533-48.2,46.629-48.2h52.4c29.1,0,31.3,33.949,29.825,61.182l-3.933,55.67Z" transform="translate(-413.54 -207.627)" fill="#0089a9"/><path d="M991.343,552.776c-4.628-25.284,17.533-48.2,46.628-48.2h52.4a26.473,26.473,0,0,1,14.988,4.113c-4.373-9.637-11.962-16.2-24.729-16.2h-52.4c-29.1,0-51.268,22.924-46.629,48.2l25.828,140.713h7.52Z" transform="translate(-413.538 -207.61)" fill="#339cb4"/><rect width="15.202" height="147.377" transform="translate(646.715 496.956)" fill="#666e9e"/><path d="M1134.052,1090.318H1114.31V1055.31h19.742Z" transform="translate(-469.741 -444.868)" fill="#371c45"/><path d="M988.46,1124.88l72.8-42.579v19.4l-52.194,23.184v4.258h-20.6Z" transform="translate(-416.689 -456.246)" fill="#371c45"/><path d="M1221.238,1124.88l-72.8-42.579v19.4l52.2,23.184v4.258h20.6Z" transform="translate(-484.129 -456.246)" fill="#371c45"/><path d="M1116.341,1082.3v46.837h-4.871v3.314h21.385v-3.314h-4.523l1.417-46.837Z" transform="translate(-468.544 -456.246)" fill="#371c45"/><rect width="19.621" height="14.959" transform="translate(644.505 483.918)" fill="#303030"/><path d="M1154.384,822.736H984.76a19,19,0,0,1,19-19h131.614A19,19,0,0,1,1154.384,822.736Z" transform="translate(-415.129 -338.818)" fill="#004555"/><path d="M1097.419,442.56s27.286,10.852,39.913.833l3.8,8.769s-4.344,7.589-21.871,8.925S1093.15,450,1093.15,450Z" transform="translate(-460.821 -186.562)" fill="#333a6a"/><path d="M1102.3,367.267s-6.259-4.761-6.259-1.255-.706,15.907,5.154,12.46S1102.3,367.267,1102.3,367.267Z" transform="translate(-462.029 -153.75)" fill="#f66d75"/><path d="M1107.751,302.8s-11.829-3.881-15.1,8.162,5.4,24.416,5.4,30.415,3.228,12.894,8.879,18.545,18.846,11.569,18.846,11.569,14.693-9.07,19.7-19.089,2-16.688,4-31.716-8.272-20.037-12.645-20.037S1117.417,284.3,1107.751,302.8Z" transform="translate(-460.301 -123.929)" fill="#170053"/><path d="M1247.521,706.157l-49.937-15.016-.914,12.98,33.619,7.531-8.2,45.217,9.545.723Z" transform="translate(-504.461 -291.352)" fill="#1e0c00"/><path d="M901.772,408.529c0-3.65-2.892-4.8-6.432-5.594-12.147-2.713-27.806-3.2-26.672,1.03,1.475,5.507,13.154,13.079,21.084,13.079a14.072,14.072,0,0,0,11.679-6.5Z" transform="translate(-366.166 -168.976)" fill="#4b2847"/><path d="M894.832,370.163l2.551,29.281s-10.655,5.27-23.913-.9l5.3-48.011Z" transform="translate(-368.215 -147.767)" fill="#fc7575"/><path d="M899.87,371.6l1.1,12.593a8.4,8.4,0,0,1-3.679-1.053c-10.186-5.489-11.69-20.593-11.87-29.194Z" transform="translate(-373.252 -149.208)" fill="#fd5e5a"/><path d="M918.22,296.558a17.406,17.406,0,0,1,5.7,10.3c1.047,6.635-3.378,14.062-3.378,19.667s-10.372,32.191-23.288,25.909S885.4,325.885,885.4,321.344s6.282-20.246,13.964-23.913S918.22,296.558,918.22,296.558Z" transform="translate(-373.237 -124.585)" fill="#fc7575"/><path d="M924.44,336.645a12.724,12.724,0,0,0-2.412-5.42c-1.915-2.285-7.207-2.615-7.207-2.615s5,1.221,6.218,2.794a11.332,11.332,0,0,1,1.735,3.847Z" transform="translate(-385.646 -138.526)" fill="#510b5e"/><path d="M936.41,344.644a9.466,9.466,0,0,1,4.211-2.233c2.175-.33,4.1,2.528,4.1,2.528s-2.314-2.025-3.754-1.735a8.37,8.37,0,0,0-3,1.568Z" transform="translate(-394.747 -144.333)" fill="#510b5e"/><path d="M909.48,372.79c3.91,1.654,5.692,3.326,10.84,3.083A10.088,10.088,0,0,1,909.48,372.79Z" transform="translate(-383.395 -157.15)" fill="#fff"/><path d="M920.012,343.56c-.364,1.261-1.388,2.077-2.279,1.816s-1.313-1.5-.949-2.765,1.394-2.077,2.314-1.816S920.383,342.293,920.012,343.56Z" transform="translate(-386.419 -143.642)" fill="#510b5e"/><path d="M909.35,341.936c7.832-4.275,8.8.92,10.678,1.845-1.643-.4-2.944-2.7-4.847-2.782A27.32,27.32,0,0,0,909.35,341.936Z" transform="translate(-383.34 -143.442)" fill="#42004a"/><path d="M941.388,353.791c-.411.972-1.278,1.515-1.938,1.209a1.769,1.769,0,0,1-.463-2.314c.411-.978,1.278-1.516,1.938-1.209A1.773,1.773,0,0,1,941.388,353.791Z" transform="translate(-395.746 -148.13)" fill="#510b5e"/><path d="M934.22,353c5.657-5.385,7.329-.4,9.024.226-1.406-.15-2.858-2.221-4.431-2.019A20.039,20.039,0,0,0,934.22,353Z" transform="translate(-393.824 -147.766)" fill="#42004a"/><path d="M908.491,350.11c-.5,1.735-2.782,2.6-5.079,1.926s-3.748-2.62-3.245-4.356,2.788-2.6,5.085-1.926S909,348.38,908.491,350.11Z" transform="translate(-379.427 -145.657)" fill="#fd5e5a"/><path d="M930.424,350.53a87.834,87.834,0,0,0-3.592,10.21,6.45,6.45,0,0,1-3.7-1.111,6.007,6.007,0,0,0,4.113,1.683A90.656,90.656,0,0,0,930.424,350.53Z" transform="translate(-389.149 -147.767)" fill="#510b5e"/><path d="M935.35,296.571a17.406,17.406,0,0,1,5.7,10.3c1.047,6.635,2.111,18.632-3.378,19.667-3.187.578-14.218-17.695-11.1-30.964A41.612,41.612,0,0,1,935.35,296.571Z" transform="translate(-390.367 -124.598)" fill="#fd5e5a" opacity="0.53"/><path d="M866.358,406.24l-3.228,14.322c3.691,5.784,22.646,35.569,27.65,43.58,3.106,4.963,6.675-28.6,8.677-53.339C885.614,415.177,877.863,417.375,866.358,406.24Z" transform="translate(-363.856 -171.251)" fill="#95508d"/><path d="M1614.425,334.023s-.254,10.412,2.244,10.412,7.994-5.889,7.069-12.147S1615.559,326.763,1614.425,334.023Z" transform="translate(-680.563 -138.287)" fill="#fc7575"/><path d="M1617.152,334.854s-1.249,4.124.625,6,5.5-2.626,3.471-6S1617.546,332.471,1617.152,334.854Z" transform="translate(-681.544 -140.241)" fill="#fd5e5a"/><path d="M1569.955,331.45l-.4,2.51s4.4-.526,6.82,1.886,2.748,2.684,2.748,2.684S1577.834,332.85,1569.955,331.45Z" transform="translate(-661.649 -139.723)" fill="#2d1175"/><path d="M1575.622,343.144a1.971,1.971,0,1,1-1.944-2.314A2.159,2.159,0,0,1,1575.622,343.144Z" transform="translate(-662.572 -143.678)" fill="#2d1175"/><path d="M1567.139,375.843a42.67,42.67,0,0,0-.839,6.409c0,2.314,5.842,4.928,11.1,3.424s12.564-4.975,14.357-6.762,3.228-26.03,3.228-26.03l-4.755-.914s-2.36,15.792-4.315,17.753S1567.139,375.843,1567.139,375.843Z" transform="translate(-660.279 -148.374)" fill="#2d1175"/><path d="M1572,381.193a8.267,8.267,0,0,0,4.223-1.053,4.2,4.2,0,0,0,1.394-1.446,4.569,4.569,0,0,0,.527-1.874v-.081a.756.756,0,0,1,1.349-.366.751.751,0,0,1,.149.557.368.368,0,0,1,0,.116,5.824,5.824,0,0,1-1.087,2.314,5.125,5.125,0,0,1-1.979,1.469A8.6,8.6,0,0,1,1572,381.193Z" transform="translate(-662.682 -158.537)" fill="#2d1175"/><path d="M1541.354,294.65c-.116.862.775,2.377,1.284,3.083,2.765,3.592,8.139,4.1,11.737,4.558-.48.029-5.275.954-9.3-.2-4.356-1.157-6.941-4-7.693-6.907Z" transform="translate(-648.088 -124.21)" fill="#2d1175"/><path d="M473.1,1060.759c-2.192,0-3.76-8.179-4.448-12.6a30.391,30.391,0,0,1-2.991,3.32c-4.3,4.3-2.314,14.918,0,17.261s20.46-2.435,22.559-9.55c.3-1.018.642-2.221,1.024-3.563C484.545,1057.392,475.324,1060.759,473.1,1060.759Z" transform="translate(-195.236 -441.854)" fill="#322554"/><path d="M541.777,977.06S535.2,987.975,535.2,993.1s3.286,34.024,3.286,34.024l4.4.156s-3.233-19.766-.44-20.489,7.277,26.29,7.277,26.29l22.7,1.539a16.324,16.324,0,0,0-6.571-12.853c-6.941-5.339-7.283-3.575-10.626-14.976S541.777,977.06,541.777,977.06Z" transform="translate(-225.616 -411.882)" fill="#322554"/><path d="M538.07,753.394s-.532,7.641,1.735,9.909,13.241.821,13.241-4.957S541.477,750,538.07,753.394Z" transform="translate(-226.803 -316.955)" fill="#ff4747"/><path d="M929.563,724.824c-8.9,3.436,2,13.356,9.012,12.188S940.583,720.561,929.563,724.824Z" transform="translate(-390.452 -305.236)" fill="#ff4747"/><path d="M877.171,716.641s-3.87-3.748-11.881-2.672,5.709,14.7,12.037,13.194S877.171,716.641,877.171,716.641Z" transform="translate(-363.736 -300.893)" fill="#ff4747"/><path d="M777.466,635.09c3.262-.336,7.005-.266,7.005,1.845,0,3.737-11.771,6.536-11.771,3.511C772.781,640.261,772.839,635.553,777.466,635.09Z" transform="translate(-325.735 -267.66)" fill="#ff4747"/><path d="M501.895,554.2s-1.192-11.239-2.568-12.726-13.461-16.5-14.959-14.86,8.949,13.472,8.949,13.472-12.356-11.569-13.021-8.96,11.349,13.732,11.349,13.732S479,535.232,479,537.3c0,0,11.847,12.408,12.251,12.853s1.492,6.681,1.492,6.681Z" transform="translate(-201.925 -221.944)" fill="#fc7575"/><path d="M502.088,529.25s5.865,2.765,5.865,4.957,1.735,12.564,1.735,12.564l-5.015-2.14.972-9.29S500.063,529.25,502.088,529.25Z" transform="translate(-211.471 -223.106)" fill="#fc7575"/><path d="M527.4,273.991c-7.248.833-18.724-.943-24.075,10.892-3.158,6.71-9.631,19.667-9.631,42.672,0,34.279-33.07,49.457-33.07,49.457l14.5,7,8.677-7-5.9,12.587,23.768,2.372,1.012-16.422,4.911,18.678,11.1-2.262s-4.379-56.109-4.859-77.286c.075.093.122.139.122.139s-.1-2.725-.1-6.236h0a27.3,27.3,0,0,0,0-3.153,64.367,64.367,0,0,1,.671-9.29c1.064-5.785,3.2-8.758,8.4-11.239s23.855,4.593,23.855,4.593C546.138,278.682,534.638,273.164,527.4,273.991Z" transform="translate(-194.177 -115.467)" fill="#1b2b80"/><path d="M582.472,277.172c9.111,2.013,11.864,16.035,19.32,23.491s5.565,18.227,2.013,25.33-9.255,2.487-9.255,2.487,2.973,1.654,4.865-4.263-1.423-10.534-11.482-13.848-19.667-24.26-19.667-24.26C568.052,282.014,573.362,275.188,582.472,277.172Z" transform="translate(-239.553 -116.693)" fill="#2f499f"/><path d="M594.592,335.251c3.471,2.013,8.33-6.45,4.772-11.974-2.586-4.275-8.249-6.074-12.778-7.948-7.179-4.119-14.074-15.5-18.256-22.45,3.031,8.295,9.458,19.8,17.2,24.387l1.868.81c1.915.769,7.74,2.314,10.557,6.132,2.267,2.979,1.186,7.607-.318,9.8A2.686,2.686,0,0,1,594.592,335.251Z" transform="translate(-239.582 -123.464)" fill="#023135"/><path d="M549.905,340.1s-2.539-10.99-6.756-8.335.318,14.82,4.246,14.82S549.905,340.1,549.905,340.1Z" transform="translate(-228.255 -139.683)" fill="#fc7575"/><path d="M547.34,335.9s6.224,9.99,1.955,8.891S543.319,334.041,547.34,335.9Z" transform="translate(-229.773 -141.499)" fill="#fd5e5a"/><path d="M943.65,298.44c10.343,2.6,14.409,12.726,9.255,20.506-.879,1.319-2.071,2.563-3.638,2.678v-2.233c.578.093,1.689-1.116,2.048-1.579C956.468,311.235,953.281,301.656,943.65,298.44Z" transform="translate(-397.799 -125.808)" fill="#560d68"/><path d="M929.028,286.24a19.482,19.482,0,0,1,12.622,5.38c5.356,5.38,3.748,26.47,0,29.6s9.539,6.1,1.579,6.1S921.913,286.98,929.028,286.24Z" transform="translate(-390.784 -120.665)" fill="#510b5e"/><path d="M889.178,293.11c.1-.359-4.084-11.679-14.38-13.362-12.321-2.013-26.88,7.155-31.329,19.592S835,325.948,822.831,329.494s-14.4,21.466-10.609,32.723,15.45,8.376,15.45,8.376-7.138-6.213-5.206-8.1c0,0,5.432,10.545,11.569,8.451s8.625-5.559,8.625-5.559-10.609-1.625-3.627-7.52c4.859-4.1,7.335-7.85,13.09-14.791,5.536-6.612,2.643-24.376,7.416-37.136a5.455,5.455,0,0,0,3.037,1.128c6.513.677,3.552-4.078,9.753-11.176C882.96,289.894,888.467,293.133,889.178,293.11Z" transform="translate(-341.685 -117.811)" fill="#510b5e"/><path d="M849.724,327.42a46.463,46.463,0,0,1,2.655,16.023c-.8,15.7-17.457,7.52-22.085,7.832a4.668,4.668,0,0,0-4.228,6.276c.833,2.892,2.724,3.795,3.708,4.969a2.985,2.985,0,0,1-1.024,4.761c-3.436,1.735-7.67-2.175-9.053,2.476a9.666,9.666,0,0,0,2.528,9.625,9.932,9.932,0,0,1-3.586-9.909c.839-3.829,3.471-3.65,7.15-3.378,2.262.15,3.089-.937,2.892-1.637-.145-1.365-3.291-1.886-4.628-6.3a6.814,6.814,0,0,1,3.077-8.231c7.63-4.408,24.659,11.471,23.936-11.881A62.011,62.011,0,0,0,849.724,327.42Z" transform="translate(-345.006 -138.025)" fill="#560d68"/><path d="M891.893,329.058s.255-6.039-2.892-5.53-5.357,4.628-3.824,8.677S892.321,334.42,891.893,329.058Z" transform="translate(-372.94 -136.371)" fill="#fc7575"/><path d="M892.426,331.758s.428-3.7-.954-4.049-2.834,2.557-2.539,4.471S892.223,333.974,892.426,331.758Z" transform="translate(-374.717 -138.135)" fill="#fd5e5a"/></g></g></svg>