<svg xmlns="http://www.w3.org/2000/svg" xmlns:xlink="http://www.w3.org/1999/xlink" width="1922" height="1306" viewBox="0 0 1922 1306"><defs><filter id="a" x="70.31" y="501.037" width="70.52" height="85.576" filterUnits="userSpaceOnUse"><feOffset dx="-7" dy="12" input="SourceAlpha"/><feGaussianBlur stdDeviation="3" result="b"/><feFlood flood-color="#00bfa5"/><feComposite operator="in" in2="b"/><feComposite in="SourceGraphic"/></filter><clipPath id="c"><circle cx="75" cy="75" r="75" transform="translate(538 231)" fill="#3d5afe"/></clipPath><clipPath id="d"><rect width="179" height="162" fill="none"/></clipPath></defs><g transform="translate(-145 17)"><path d="M0,10A10,10,0,0,1,10,0H1775.845c65.7,0,113.55,62.278,96.625,125.762l-243.183,912.109a100,100,0,0,1-84.251,73.47L0,1304Z" transform="translate(145 -15)" fill="#1a237e" opacity="0.03"/><path d="M0,0H993V1059L245.506,940.517a100,100,0,0,1-82.6-80.163Z" transform="translate(1074 -17)" fill="#1a237e"/><rect width="1920" height="80" transform="translate(147 -17)" fill="#fff" style="mix-blend-mode:multiply;isolation:isolate"/><g transform="matrix(1, 0, 0, 1, 145, -17)" filter="url(#a)"><path d="M-2305.541-402.486l15.265,4.765-2.735,15.441,15.353,4.5-2.823,14.912,15.088,4.588-2.912,15.176,15,4.235" transform="translate(2392 904)" fill="none" stroke="#7b80b0" stroke-miterlimit="10" stroke-width="1"/></g><g transform="translate(-704 -667)"><g transform="translate(2565.654 1106.654)" opacity="0.5"><line x1="0.123" y2="19.062" transform="translate(-1190.839 -96.751)" fill="none" stroke="#3d5afe" stroke-linejoin="round" stroke-width="5"/><line x1="19.062" y1="0.123" transform="translate(-1200.308 -87.282)" fill="none" stroke="#3d5afe" stroke-linejoin="round" stroke-width="5"/></g><g transform="translate(2329 917.123)"><line x1="0.073" y2="11.362" transform="translate(-1194.31 6.413)" stroke-width="4" stroke="#00bfa5" stroke-linecap="round" stroke-linejoin="round" fill="none"/><line x1="11.362" y1="0.073" transform="translate(-1199.955 12.058)" stroke-width="4" stroke="#00bfa5" stroke-linecap="round" stroke-linejoin="round" fill="none"/></g><g transform="translate(2337 1147)" opacity="0.3"><line x1="9.892" y2="6.202" transform="translate(-1116.047 -46.31)" stroke-width="4" stroke="#1a237e" stroke-linecap="round" stroke-linejoin="round" fill="none"/><line x1="6.202" y1="9.892" transform="translate(-1114.202 -48.155)" stroke-width="4" stroke="#1a237e" stroke-linecap="round" stroke-linejoin="round" fill="none"/></g><g transform="translate(2806 965)" opacity="0.4"><line x1="0.149" y2="23.214" transform="translate(-1103.364 -151.81)" fill="none" stroke="#00bfa5" stroke-linejoin="round" stroke-width="6"/><line x1="23.214" y1="0.149" transform="translate(-1114.896 -140.278)" fill="none" stroke="#00bfa5" stroke-linejoin="round" stroke-width="6"/></g><g transform="translate(1208.633 895.219)" fill="none" stroke="#3d5afe" stroke-linecap="round" stroke-linejoin="round" stroke-width="6" opacity="0.7"><circle cx="12.706" cy="12.706" r="12.706" stroke="none"/><circle cx="12.706" cy="12.706" r="9.706" fill="none"/></g><g transform="translate(1472.692 1214.749)" fill="none" stroke="#00bfa5" stroke-linecap="round" stroke-linejoin="round" stroke-width="6" opacity="0.5"><circle cx="12.706" cy="12.706" r="12.706" stroke="none"/><circle cx="12.706" cy="12.706" r="9.706" fill="none"/></g></g><g transform="translate(112 -771)"><g transform="translate(2500.654 1244.654)" opacity="0.5"><line x1="0.123" y2="19.062" transform="translate(-1190.839 -96.751)" fill="none" stroke="#fff" stroke-linejoin="round" stroke-width="5"/><line x1="19.062" y1="0.123" transform="translate(-1200.308 -87.282)" fill="none" stroke="#fff" stroke-linejoin="round" stroke-width="5"/></g><g transform="translate(2329 917.123)"><line x1="0.073" y2="11.362" transform="translate(-1194.31 6.413)" stroke-width="4" stroke="#00bfa5" stroke-linecap="round" stroke-linejoin="round" fill="none"/><line x1="11.362" y1="0.073" transform="translate(-1199.955 12.058)" stroke-width="4" stroke="#00bfa5" stroke-linecap="round" stroke-linejoin="round" fill="none"/></g><g transform="translate(2337 1147)"><line x1="9.892" y2="6.202" transform="translate(-1116.047 -46.31)" stroke-width="4" stroke="#1a237e" stroke-linecap="round" stroke-linejoin="round" fill="none"/><line x1="6.202" y1="9.892" transform="translate(-1114.202 -48.155)" stroke-width="4" stroke="#1a237e" stroke-linecap="round" stroke-linejoin="round" fill="none"/></g><g transform="translate(2779 1047)" opacity="0.7"><line x1="0.149" y2="23.214" transform="translate(-1103.364 -151.81)" fill="none" stroke="#00bfa5" stroke-linejoin="round" stroke-width="6"/><line x1="23.214" y1="0.149" transform="translate(-1114.896 -140.278)" fill="none" stroke="#00bfa5" stroke-linejoin="round" stroke-width="6"/></g><g transform="translate(1208.633 895.219)" fill="none" stroke="#fff" stroke-linecap="round" stroke-linejoin="round" stroke-width="6" opacity="0.8"><circle cx="12.706" cy="12.706" r="12.706" stroke="none"/><circle cx="12.706" cy="12.706" r="9.706" fill="none"/></g><g transform="translate(1542.692 1108.749)" fill="none" stroke="#00bfa5" stroke-linecap="round" stroke-linejoin="round" stroke-width="6"><circle cx="12.706" cy="12.706" r="12.706" stroke="none"/><circle cx="12.706" cy="12.706" r="9.706" fill="none"/></g></g><g transform="translate(-32 -115)"><g transform="translate(2078 1138)" opacity="0.7"><line x2="13.191" y2="10.191" transform="translate(-828.838 -654.397)" stroke-width="5" stroke="#fff" stroke-linecap="round" stroke-linejoin="round" fill="none"/><line x1="10.191" y2="13.191" transform="translate(-827.338 -655.897)" stroke-width="5" stroke="#fff" stroke-linecap="round" stroke-linejoin="round" fill="none"/></g><g transform="translate(2690.76 863)" opacity="0.5"><line x1="0.109" y2="16.99" transform="translate(-657.972 -642.412)" stroke-width="8" stroke="#fff" stroke-linecap="round" stroke-linejoin="round" fill="none"/><line x1="16.99" y1="0.109" transform="translate(-666.412 -633.972)" stroke-width="8" stroke="#fff" stroke-linecap="round" stroke-linejoin="round" fill="none"/></g><g transform="translate(1959.673 354.773)" fill="none" stroke="#4dd0e1" stroke-linecap="round" stroke-linejoin="round" stroke-width="7"><circle cx="19.482" cy="19.482" r="19.482" stroke="none"/><circle cx="19.482" cy="19.482" r="15.982" fill="none"/></g><circle cx="10.29" cy="10.29" r="10.29" transform="translate(1641.29 328.436)" fill="#4dd0e1" opacity="0.7"/></g><g transform="translate(2537 887)"><line x1="4.296" y2="33.176" transform="translate(-2282.63 -195.075)" fill="none" stroke="#1a237e" stroke-linejoin="round" stroke-width="8"/><line x1="33.176" y1="4.296" transform="translate(-2297.07 -180.634)" fill="none" stroke="#1a237e" stroke-linejoin="round" stroke-width="8"/></g><g transform="translate(-356 -103)" opacity="0.8" clip-path="url(#c)"><g transform="translate(538 237)" clip-path="url(#d)"><g transform="translate(-586 -249)"><circle cx="2.5" cy="2.5" r="2.5" transform="translate(587 250)" fill="#3d5afe"/></g><g transform="translate(-573 -249)"><circle cx="2.5" cy="2.5" r="2.5" transform="translate(587 250)" fill="#3d5afe"/></g><g transform="translate(-560 -249)"><circle cx="2.5" cy="2.5" r="2.5" transform="translate(587 250)" fill="#3d5afe"/></g><g transform="translate(-547 -249)"><circle cx="2.5" cy="2.5" r="2.5" transform="translate(587 250)" fill="#3d5afe"/></g><g transform="translate(-534 -249)"><circle cx="2.5" cy="2.5" r="2.5" transform="translate(587 250)" fill="#3d5afe"/></g><g transform="translate(-521 -249)"><circle cx="2.5" cy="2.5" r="2.5" transform="translate(587 250)" fill="#3d5afe"/></g><g transform="translate(-508 -249)"><circle cx="2.5" cy="2.5" r="2.5" transform="translate(587 250)" fill="#3d5afe"/></g><g transform="translate(-495 -249)"><circle cx="2.5" cy="2.5" r="2.5" transform="translate(587 250)" fill="#3d5afe"/></g><g transform="translate(-482 -249)"><circle cx="2.5" cy="2.5" r="2.5" transform="translate(587 250)" fill="#3d5afe"/></g><g transform="translate(-469 -249)"><circle cx="2.5" cy="2.5" r="2.5" transform="translate(587 250)" fill="#3d5afe"/></g><g transform="translate(-456 -249)"><circle cx="2.5" cy="2.5" r="2.5" transform="translate(587 250)" fill="#3d5afe"/></g><g transform="translate(-443 -249)"><circle cx="2.5" cy="2.5" r="2.5" transform="translate(587 250)" fill="#3d5afe"/></g><g transform="translate(-430 -249)"><circle cx="2.5" cy="2.5" r="2.5" transform="translate(587 250)" fill="#3d5afe"/></g><g transform="translate(-417 -249)"><circle cx="2.5" cy="2.5" r="2.5" transform="translate(587 250)" fill="#3d5afe"/></g><g transform="translate(-586 -236)"><circle cx="2.5" cy="2.5" r="2.5" transform="translate(587 250)" fill="#3d5afe"/></g><g transform="translate(-573 -236)"><circle cx="2.5" cy="2.5" r="2.5" transform="translate(587 250)" fill="#3d5afe"/></g><g transform="translate(-560 -236)"><circle cx="2.5" cy="2.5" r="2.5" transform="translate(587 250)" fill="#3d5afe"/></g><g transform="translate(-547 -236)"><circle cx="2.5" cy="2.5" r="2.5" transform="translate(587 250)" fill="#3d5afe"/></g><g transform="translate(-534 -236)"><circle cx="2.5" cy="2.5" r="2.5" transform="translate(587 250)" fill="#3d5afe"/></g><g transform="translate(-521 -236)"><circle cx="2.5" cy="2.5" r="2.5" transform="translate(587 250)" fill="#3d5afe"/></g><g transform="translate(-508 -236)"><circle cx="2.5" cy="2.5" r="2.5" transform="translate(587 250)" fill="#3d5afe"/></g><g transform="translate(-495 -236)"><circle cx="2.5" cy="2.5" r="2.5" transform="translate(587 250)" fill="#3d5afe"/></g><g transform="translate(-482 -236)"><circle cx="2.5" cy="2.5" r="2.5" transform="translate(587 250)" fill="#3d5afe"/></g><g transform="translate(-469 -236)"><circle cx="2.5" cy="2.5" r="2.5" transform="translate(587 250)" fill="#3d5afe"/></g><g transform="translate(-456 -236)"><circle cx="2.5" cy="2.5" r="2.5" transform="translate(587 250)" fill="#3d5afe"/></g><g transform="translate(-443 -236)"><circle cx="2.5" cy="2.5" r="2.5" transform="translate(587 250)" fill="#3d5afe"/></g><g transform="translate(-430 -236)"><circle cx="2.5" cy="2.5" r="2.5" transform="translate(587 250)" fill="#3d5afe"/></g><g transform="translate(-417 -236)"><circle cx="2.5" cy="2.5" r="2.5" transform="translate(587 250)" fill="#3d5afe"/></g><g transform="translate(-586 -223)"><circle cx="2.5" cy="2.5" r="2.5" transform="translate(587 250)" fill="#3d5afe"/></g><g transform="translate(-573 -223)"><circle cx="2.5" cy="2.5" r="2.5" transform="translate(587 250)" fill="#3d5afe"/></g><g transform="translate(-560 -223)"><circle cx="2.5" cy="2.5" r="2.5" transform="translate(587 250)" fill="#3d5afe"/></g><g transform="translate(-547 -223)"><circle cx="2.5" cy="2.5" r="2.5" transform="translate(587 250)" fill="#3d5afe"/></g><g transform="translate(-534 -223)"><circle cx="2.5" cy="2.5" r="2.5" transform="translate(587 250)" fill="#3d5afe"/></g><g transform="translate(-521 -223)"><circle cx="2.5" cy="2.5" r="2.5" transform="translate(587 250)" fill="#3d5afe"/></g><g transform="translate(-508 -223)"><circle cx="2.5" cy="2.5" r="2.5" transform="translate(587 250)" fill="#3d5afe"/></g><g transform="translate(-495 -223)"><circle cx="2.5" cy="2.5" r="2.5" transform="translate(587 250)" fill="#3d5afe"/></g><g transform="translate(-482 -223)"><circle cx="2.5" cy="2.5" r="2.5" transform="translate(587 250)" fill="#3d5afe"/></g><g transform="translate(-469 -223)"><circle cx="2.5" cy="2.5" r="2.5" transform="translate(587 250)" fill="#3d5afe"/></g><g transform="translate(-456 -223)"><circle cx="2.5" cy="2.5" r="2.5" transform="translate(587 250)" fill="#3d5afe"/></g><g transform="translate(-443 -223)"><circle cx="2.5" cy="2.5" r="2.5" transform="translate(587 250)" fill="#3d5afe"/></g><g transform="translate(-430 -223)"><circle cx="2.5" cy="2.5" r="2.5" transform="translate(587 250)" fill="#3d5afe"/></g><g transform="translate(-417 -223)"><circle cx="2.5" cy="2.5" r="2.5" transform="translate(587 250)" fill="#3d5afe"/></g><g transform="translate(-586 -210)"><circle cx="2.5" cy="2.5" r="2.5" transform="translate(587 250)" fill="#3d5afe"/></g><g transform="translate(-573 -210)"><circle cx="2.5" cy="2.5" r="2.5" transform="translate(587 250)" fill="#3d5afe"/></g><g transform="translate(-560 -210)"><circle cx="2.5" cy="2.5" r="2.5" transform="translate(587 250)" fill="#3d5afe"/></g><g transform="translate(-547 -210)"><circle cx="2.5" cy="2.5" r="2.5" transform="translate(587 250)" fill="#3d5afe"/></g><g transform="translate(-534 -210)"><circle cx="2.5" cy="2.5" r="2.5" transform="translate(587 250)" fill="#3d5afe"/></g><g transform="translate(-521 -210)"><circle cx="2.5" cy="2.5" r="2.5" transform="translate(587 250)" fill="#3d5afe"/></g><g transform="translate(-508 -210)"><circle cx="2.5" cy="2.5" r="2.5" transform="translate(587 250)" fill="#3d5afe"/></g><g transform="translate(-495 -210)"><circle cx="2.5" cy="2.5" r="2.5" transform="translate(587 250)" fill="#3d5afe"/></g><g transform="translate(-482 -210)"><circle cx="2.5" cy="2.5" r="2.5" transform="translate(587 250)" fill="#3d5afe"/></g><g transform="translate(-469 -210)"><circle cx="2.5" cy="2.5" r="2.5" transform="translate(587 250)" fill="#3d5afe"/></g><g transform="translate(-456 -210)"><circle cx="2.5" cy="2.5" r="2.5" transform="translate(587 250)" fill="#3d5afe"/></g><g transform="translate(-443 -210)"><circle cx="2.5" cy="2.5" r="2.5" transform="translate(587 250)" fill="#3d5afe"/></g><g transform="translate(-430 -210)"><circle cx="2.5" cy="2.5" r="2.5" transform="translate(587 250)" fill="#3d5afe"/></g><g transform="translate(-417 -210)"><circle cx="2.5" cy="2.5" r="2.5" transform="translate(587 250)" fill="#3d5afe"/></g><g transform="translate(-586 -197)"><circle cx="2.5" cy="2.5" r="2.5" transform="translate(587 250)" fill="#3d5afe"/></g><g transform="translate(-573 -197)"><circle cx="2.5" cy="2.5" r="2.5" transform="translate(587 250)" fill="#3d5afe"/></g><g transform="translate(-560 -197)"><circle cx="2.5" cy="2.5" r="2.5" transform="translate(587 250)" fill="#3d5afe"/></g><g transform="translate(-547 -197)"><circle cx="2.5" cy="2.5" r="2.5" transform="translate(587 250)" fill="#3d5afe"/></g><g transform="translate(-534 -197)"><circle cx="2.5" cy="2.5" r="2.5" transform="translate(587 250)" fill="#3d5afe"/></g><g transform="translate(-521 -197)"><circle cx="2.5" cy="2.5" r="2.5" transform="translate(587 250)" fill="#3d5afe"/></g><g transform="translate(-508 -197)"><circle cx="2.5" cy="2.5" r="2.5" transform="translate(587 250)" fill="#3d5afe"/></g><g transform="translate(-495 -197)"><circle cx="2.5" cy="2.5" r="2.5" transform="translate(587 250)" fill="#3d5afe"/></g><g transform="translate(-482 -197)"><circle cx="2.5" cy="2.5" r="2.5" transform="translate(587 250)" fill="#3d5afe"/></g><g transform="translate(-469 -197)"><circle cx="2.5" cy="2.5" r="2.5" transform="translate(587 250)" fill="#3d5afe"/></g><g transform="translate(-456 -197)"><circle cx="2.5" cy="2.5" r="2.5" transform="translate(587 250)" fill="#3d5afe"/></g><g transform="translate(-443 -197)"><circle cx="2.5" cy="2.5" r="2.5" transform="translate(587 250)" fill="#3d5afe"/></g><g transform="translate(-430 -197)"><circle cx="2.5" cy="2.5" r="2.5" transform="translate(587 250)" fill="#3d5afe"/></g><g transform="translate(-417 -197)"><circle cx="2.5" cy="2.5" r="2.5" transform="translate(587 250)" fill="#3d5afe"/></g><g transform="translate(-586 -184)"><circle cx="2.5" cy="2.5" r="2.5" transform="translate(587 250)" fill="#3d5afe"/></g><g transform="translate(-573 -184)"><circle cx="2.5" cy="2.5" r="2.5" transform="translate(587 250)" fill="#3d5afe"/></g><g transform="translate(-560 -184)"><circle cx="2.5" cy="2.5" r="2.5" transform="translate(587 250)" fill="#3d5afe"/></g><g transform="translate(-547 -184)"><circle cx="2.5" cy="2.5" r="2.5" transform="translate(587 250)" fill="#3d5afe"/></g><g transform="translate(-534 -184)"><circle cx="2.5" cy="2.5" r="2.5" transform="translate(587 250)" fill="#3d5afe"/></g><g transform="translate(-521 -184)"><circle cx="2.5" cy="2.5" r="2.5" transform="translate(587 250)" fill="#3d5afe"/></g><g transform="translate(-508 -184)"><circle cx="2.5" cy="2.5" r="2.5" transform="translate(587 250)" fill="#3d5afe"/></g><g transform="translate(-495 -184)"><circle cx="2.5" cy="2.5" r="2.5" transform="translate(587 250)" fill="#3d5afe"/></g><g transform="translate(-482 -184)"><circle cx="2.5" cy="2.5" r="2.5" transform="translate(587 250)" fill="#3d5afe"/></g><g transform="translate(-469 -184)"><circle cx="2.5" cy="2.5" r="2.5" transform="translate(587 250)" fill="#3d5afe"/></g><g transform="translate(-456 -184)"><circle cx="2.5" cy="2.5" r="2.5" transform="translate(587 250)" fill="#3d5afe"/></g><g transform="translate(-443 -184)"><circle cx="2.5" cy="2.5" r="2.5" transform="translate(587 250)" fill="#3d5afe"/></g><g transform="translate(-430 -184)"><circle cx="2.5" cy="2.5" r="2.5" transform="translate(587 250)" fill="#3d5afe"/></g><g transform="translate(-417 -184)"><circle cx="2.5" cy="2.5" r="2.5" transform="translate(587 250)" fill="#3d5afe"/></g><g transform="translate(-586 -171)"><circle cx="2.5" cy="2.5" r="2.5" transform="translate(587 250)" fill="#3d5afe"/></g><g transform="translate(-573 -171)"><circle cx="2.5" cy="2.5" r="2.5" transform="translate(587 250)" fill="#3d5afe"/></g><g transform="translate(-560 -171)"><circle cx="2.5" cy="2.5" r="2.5" transform="translate(587 250)" fill="#3d5afe"/></g><g transform="translate(-547 -171)"><circle cx="2.5" cy="2.5" r="2.5" transform="translate(587 250)" fill="#3d5afe"/></g><g transform="translate(-534 -171)"><circle cx="2.5" cy="2.5" r="2.5" transform="translate(587 250)" fill="#3d5afe"/></g><g transform="translate(-521 -171)"><circle cx="2.5" cy="2.5" r="2.5" transform="translate(587 250)" fill="#3d5afe"/></g><g transform="translate(-508 -171)"><circle cx="2.5" cy="2.5" r="2.5" transform="translate(587 250)" fill="#3d5afe"/></g><g transform="translate(-495 -171)"><circle cx="2.5" cy="2.5" r="2.5" transform="translate(587 250)" fill="#3d5afe"/></g><g transform="translate(-482 -171)"><circle cx="2.5" cy="2.5" r="2.5" transform="translate(587 250)" fill="#3d5afe"/></g><g transform="translate(-469 -171)"><circle cx="2.5" cy="2.5" r="2.5" transform="translate(587 250)" fill="#3d5afe"/></g><g transform="translate(-456 -171)"><circle cx="2.5" cy="2.5" r="2.5" transform="translate(587 250)" fill="#3d5afe"/></g><g transform="translate(-443 -171)"><circle cx="2.5" cy="2.5" r="2.5" transform="translate(587 250)" fill="#3d5afe"/></g><g transform="translate(-430 -171)"><circle cx="2.5" cy="2.5" r="2.5" transform="translate(587 250)" fill="#3d5afe"/></g><g transform="translate(-417 -171)"><circle cx="2.5" cy="2.5" r="2.5" transform="translate(587 250)" fill="#3d5afe"/></g><g transform="translate(-586 -158)"><circle cx="2.5" cy="2.5" r="2.5" transform="translate(587 250)" fill="#3d5afe"/></g><g transform="translate(-573 -158)"><circle cx="2.5" cy="2.5" r="2.5" transform="translate(587 250)" fill="#3d5afe"/></g><g transform="translate(-560 -158)"><circle cx="2.5" cy="2.5" r="2.5" transform="translate(587 250)" fill="#3d5afe"/></g><g transform="translate(-547 -158)"><circle cx="2.5" cy="2.5" r="2.5" transform="translate(587 250)" fill="#3d5afe"/></g><g transform="translate(-534 -158)"><circle cx="2.5" cy="2.5" r="2.5" transform="translate(587 250)" fill="#3d5afe"/></g><g transform="translate(-521 -158)"><circle cx="2.5" cy="2.5" r="2.5" transform="translate(587 250)" fill="#3d5afe"/></g><g transform="translate(-508 -158)"><circle cx="2.5" cy="2.5" r="2.5" transform="translate(587 250)" fill="#3d5afe"/></g><g transform="translate(-495 -158)"><circle cx="2.5" cy="2.5" r="2.5" transform="translate(587 250)" fill="#3d5afe"/></g><g transform="translate(-482 -158)"><circle cx="2.5" cy="2.5" r="2.5" transform="translate(587 250)" fill="#3d5afe"/></g><g transform="translate(-469 -158)"><circle cx="2.5" cy="2.5" r="2.5" transform="translate(587 250)" fill="#3d5afe"/></g><g transform="translate(-456 -158)"><circle cx="2.5" cy="2.5" r="2.5" transform="translate(587 250)" fill="#3d5afe"/></g><g transform="translate(-443 -158)"><circle cx="2.5" cy="2.5" r="2.5" transform="translate(587 250)" fill="#3d5afe"/></g><g transform="translate(-430 -158)"><circle cx="2.5" cy="2.5" r="2.5" transform="translate(587 250)" fill="#3d5afe"/></g><g transform="translate(-417 -158)"><circle cx="2.5" cy="2.5" r="2.5" transform="translate(587 250)" fill="#3d5afe"/></g><g transform="translate(-586 -145)"><circle cx="2.5" cy="2.5" r="2.5" transform="translate(587 250)" fill="#3d5afe"/></g><g transform="translate(-573 -145)"><circle cx="2.5" cy="2.5" r="2.5" transform="translate(587 250)" fill="#3d5afe"/></g><g transform="translate(-560 -145)"><circle cx="2.5" cy="2.5" r="2.5" transform="translate(587 250)" fill="#3d5afe"/></g><g transform="translate(-547 -145)"><circle cx="2.5" cy="2.5" r="2.5" transform="translate(587 250)" fill="#3d5afe"/></g><g transform="translate(-534 -145)"><circle cx="2.5" cy="2.5" r="2.5" transform="translate(587 250)" fill="#3d5afe"/></g><g transform="translate(-521 -145)"><circle cx="2.5" cy="2.5" r="2.5" transform="translate(587 250)" fill="#3d5afe"/></g><g transform="translate(-508 -145)"><circle cx="2.5" cy="2.5" r="2.5" transform="translate(587 250)" fill="#3d5afe"/></g><g transform="translate(-495 -145)"><circle cx="2.5" cy="2.5" r="2.5" transform="translate(587 250)" fill="#3d5afe"/></g><g transform="translate(-482 -145)"><circle cx="2.5" cy="2.5" r="2.5" transform="translate(587 250)" fill="#3d5afe"/></g><g transform="translate(-469 -145)"><circle cx="2.5" cy="2.5" r="2.5" transform="translate(587 250)" fill="#3d5afe"/></g><g transform="translate(-456 -145)"><circle cx="2.5" cy="2.5" r="2.5" transform="translate(587 250)" fill="#3d5afe"/></g><g transform="translate(-443 -145)"><circle cx="2.5" cy="2.5" r="2.5" transform="translate(587 250)" fill="#3d5afe"/></g><g transform="translate(-430 -145)"><circle cx="2.5" cy="2.5" r="2.5" transform="translate(587 250)" fill="#3d5afe"/></g><g transform="translate(-417 -145)"><circle cx="2.5" cy="2.5" r="2.5" transform="translate(587 250)" fill="#3d5afe"/></g><g transform="translate(-586 -132)"><circle cx="2.5" cy="2.5" r="2.5" transform="translate(587 250)" fill="#3d5afe"/></g><g transform="translate(-573 -132)"><circle cx="2.5" cy="2.5" r="2.5" transform="translate(587 250)" fill="#3d5afe"/></g><g transform="translate(-560 -132)"><circle cx="2.5" cy="2.5" r="2.5" transform="translate(587 250)" fill="#3d5afe"/></g><g transform="translate(-547 -132)"><circle cx="2.5" cy="2.5" r="2.5" transform="translate(587 250)" fill="#3d5afe"/></g><g transform="translate(-534 -132)"><circle cx="2.5" cy="2.5" r="2.5" transform="translate(587 250)" fill="#3d5afe"/></g><g transform="translate(-521 -132)"><circle cx="2.5" cy="2.5" r="2.5" transform="translate(587 250)" fill="#3d5afe"/></g><g transform="translate(-508 -132)"><circle cx="2.5" cy="2.5" r="2.5" transform="translate(587 250)" fill="#3d5afe"/></g><g transform="translate(-495 -132)"><circle cx="2.5" cy="2.5" r="2.5" transform="translate(587 250)" fill="#3d5afe"/></g><g transform="translate(-482 -132)"><circle cx="2.5" cy="2.5" r="2.5" transform="translate(587 250)" fill="#3d5afe"/></g><g transform="translate(-469 -132)"><circle cx="2.5" cy="2.5" r="2.5" transform="translate(587 250)" fill="#3d5afe"/></g><g transform="translate(-456 -132)"><circle cx="2.5" cy="2.5" r="2.5" transform="translate(587 250)" fill="#3d5afe"/></g><g transform="translate(-443 -132)"><circle cx="2.5" cy="2.5" r="2.5" transform="translate(587 250)" fill="#3d5afe"/></g><g transform="translate(-430 -132)"><circle cx="2.5" cy="2.5" r="2.5" transform="translate(587 250)" fill="#3d5afe"/></g><g transform="translate(-417 -132)"><circle cx="2.5" cy="2.5" r="2.5" transform="translate(587 250)" fill="#3d5afe"/></g><g transform="translate(-586 -119)"><circle cx="2.5" cy="2.5" r="2.5" transform="translate(587 250)" fill="#3d5afe"/></g><g transform="translate(-573 -119)"><circle cx="2.5" cy="2.5" r="2.5" transform="translate(587 250)" fill="#3d5afe"/></g><g transform="translate(-560 -119)"><circle cx="2.5" cy="2.5" r="2.5" transform="translate(587 250)" fill="#3d5afe"/></g><g transform="translate(-547 -119)"><circle cx="2.5" cy="2.5" r="2.5" transform="translate(587 250)" fill="#3d5afe"/></g><g transform="translate(-534 -119)"><circle cx="2.5" cy="2.5" r="2.5" transform="translate(587 250)" fill="#3d5afe"/></g><g transform="translate(-521 -119)"><circle cx="2.5" cy="2.5" r="2.5" transform="translate(587 250)" fill="#3d5afe"/></g><g transform="translate(-508 -119)"><circle cx="2.5" cy="2.5" r="2.5" transform="translate(587 250)" fill="#3d5afe"/></g><g transform="translate(-495 -119)"><circle cx="2.5" cy="2.5" r="2.5" transform="translate(587 250)" fill="#3d5afe"/></g><g transform="translate(-482 -119)"><circle cx="2.5" cy="2.5" r="2.5" transform="translate(587 250)" fill="#3d5afe"/></g><g transform="translate(-469 -119)"><circle cx="2.5" cy="2.5" r="2.5" transform="translate(587 250)" fill="#3d5afe"/></g><g transform="translate(-456 -119)"><circle cx="2.5" cy="2.5" r="2.5" transform="translate(587 250)" fill="#3d5afe"/></g><g transform="translate(-443 -119)"><circle cx="2.5" cy="2.5" r="2.5" transform="translate(587 250)" fill="#3d5afe"/></g><g transform="translate(-430 -119)"><circle cx="2.5" cy="2.5" r="2.5" transform="translate(587 250)" fill="#3d5afe"/></g><g transform="translate(-417 -119)"><circle cx="2.5" cy="2.5" r="2.5" transform="translate(587 250)" fill="#3d5afe"/></g><g transform="translate(-586 -106)"><circle cx="2.5" cy="2.5" r="2.5" transform="translate(587 250)" fill="#3d5afe"/></g><g transform="translate(-573 -106)"><circle cx="2.5" cy="2.5" r="2.5" transform="translate(587 250)" fill="#3d5afe"/></g><g transform="translate(-560 -106)"><circle cx="2.5" cy="2.5" r="2.5" transform="translate(587 250)" fill="#3d5afe"/></g><g transform="translate(-547 -106)"><circle cx="2.5" cy="2.5" r="2.5" transform="translate(587 250)" fill="#3d5afe"/></g><g transform="translate(-534 -106)"><circle cx="2.5" cy="2.5" r="2.5" transform="translate(587 250)" fill="#3d5afe"/></g><g transform="translate(-521 -106)"><circle cx="2.5" cy="2.5" r="2.5" transform="translate(587 250)" fill="#3d5afe"/></g><g transform="translate(-508 -106)"><circle cx="2.5" cy="2.5" r="2.5" transform="translate(587 250)" fill="#3d5afe"/></g><g transform="translate(-495 -106)"><circle cx="2.5" cy="2.5" r="2.5" transform="translate(587 250)" fill="#3d5afe"/></g><g transform="translate(-482 -106)"><circle cx="2.5" cy="2.5" r="2.5" transform="translate(587 250)" fill="#3d5afe"/></g><g transform="translate(-469 -106)"><circle cx="2.5" cy="2.5" r="2.5" transform="translate(587 250)" fill="#3d5afe"/></g><g transform="translate(-456 -106)"><circle cx="2.5" cy="2.5" r="2.5" transform="translate(587 250)" fill="#3d5afe"/></g><g transform="translate(-443 -106)"><circle cx="2.5" cy="2.5" r="2.5" transform="translate(587 250)" fill="#3d5afe"/></g><g transform="translate(-430 -106)"><circle cx="2.5" cy="2.5" r="2.5" transform="translate(587 250)" fill="#3d5afe"/></g><g transform="translate(-417 -106)"><circle cx="2.5" cy="2.5" r="2.5" transform="translate(587 250)" fill="#3d5afe"/></g><g transform="translate(-586 -93)"><circle cx="2.5" cy="2.5" r="2.5" transform="translate(587 250)" fill="#3d5afe"/></g><g transform="translate(-573 -93)"><circle cx="2.5" cy="2.5" r="2.5" transform="translate(587 250)" fill="#3d5afe"/></g><g transform="translate(-560 -93)"><circle cx="2.5" cy="2.5" r="2.5" transform="translate(587 250)" fill="#3d5afe"/></g><g transform="translate(-547 -93)"><circle cx="2.5" cy="2.5" r="2.5" transform="translate(587 250)" fill="#3d5afe"/></g><g transform="translate(-534 -93)"><circle cx="2.5" cy="2.5" r="2.5" transform="translate(587 250)" fill="#3d5afe"/></g><g transform="translate(-521 -93)"><circle cx="2.5" cy="2.5" r="2.5" transform="translate(587 250)" fill="#3d5afe"/></g><g transform="translate(-508 -93)"><circle cx="2.5" cy="2.5" r="2.5" transform="translate(587 250)" fill="#3d5afe"/></g><g transform="translate(-495 -93)"><circle cx="2.5" cy="2.5" r="2.5" transform="translate(587 250)" fill="#3d5afe"/></g><g transform="translate(-482 -93)"><circle cx="2.5" cy="2.5" r="2.5" transform="translate(587 250)" fill="#3d5afe"/></g><g transform="translate(-469 -93)"><circle cx="2.5" cy="2.5" r="2.5" transform="translate(587 250)" fill="#3d5afe"/></g><g transform="translate(-456 -93)"><circle cx="2.5" cy="2.5" r="2.5" transform="translate(587 250)" fill="#3d5afe"/></g><g transform="translate(-443 -93)"><circle cx="2.5" cy="2.5" r="2.5" transform="translate(587 250)" fill="#3d5afe"/></g><g transform="translate(-430 -93)"><circle cx="2.5" cy="2.5" r="2.5" transform="translate(587 250)" fill="#3d5afe"/></g><g transform="translate(-417 -93)"><circle cx="2.5" cy="2.5" r="2.5" transform="translate(587 250)" fill="#3d5afe"/></g></g></g></g></svg>