<svg xmlns="http://www.w3.org/2000/svg" width="1793" height="711.423" viewBox="0 0 1793 711.423"><g transform="translate(-77 -6475)"><g transform="translate(0 926)"><g transform="translate(77 5549)" opacity="0.1"><circle cx="40.5" cy="40.5" r="40.5" transform="translate(52 64)" fill="#3d5afe"/><circle cx="12.5" cy="12.5" r="12.5" transform="translate(0 230)" fill="#3d5afe"/><circle cx="23" cy="23" r="23" transform="translate(641)" fill="#3d5afe"/></g><g transform="translate(1183 5596)" opacity="0.1"><circle cx="12.5" cy="12.5" r="12.5" transform="translate(0 230)" fill="#3d5afe"/><circle cx="32.5" cy="32.5" r="32.5" transform="translate(375 574)" fill="#3d5afe"/><circle cx="23" cy="23" r="23" transform="translate(641)" fill="#3d5afe"/></g><g transform="translate(-37 4676)"><g transform="translate(2565.654 1106.654)" opacity="0.5"><line x1="0.123" y2="19.062" transform="translate(-1190.839 -96.751)" fill="none" stroke="#3d5afe" stroke-linejoin="round" stroke-width="5"/><line x1="19.062" y1="0.123" transform="translate(-1200.308 -87.282)" fill="none" stroke="#3d5afe" stroke-linejoin="round" stroke-width="5"/></g><g transform="translate(2329 917.123)"><line x1="0.073" y2="11.362" transform="translate(-1194.31 6.413)" stroke-width="4" stroke="#00bfa5" stroke-linecap="round" stroke-linejoin="round" fill="none"/><line x1="11.362" y1="0.073" transform="translate(-1199.955 12.058)" stroke-width="4" stroke="#00bfa5" stroke-linecap="round" stroke-linejoin="round" fill="none"/></g><g transform="translate(2337 1147)" opacity="0.3"><line x1="9.892" y2="6.202" transform="translate(-1116.047 -46.31)" stroke-width="4" stroke="#1a237e" stroke-linecap="round" stroke-linejoin="round" fill="none"/><line x1="6.202" y1="9.892" transform="translate(-1114.202 -48.155)" stroke-width="4" stroke="#1a237e" stroke-linecap="round" stroke-linejoin="round" fill="none"/></g><g transform="translate(2266 1713)" opacity="0.4"><line x1="0.149" y2="23.214" transform="translate(-1103.364 -151.81)" fill="none" stroke="#00bfa5" stroke-linejoin="round" stroke-width="6"/><line x1="23.214" y1="0.149" transform="translate(-1114.896 -140.278)" fill="none" stroke="#00bfa5" stroke-linejoin="round" stroke-width="6"/></g><g transform="translate(1208.633 895.219)" fill="none" stroke="#3d5afe" stroke-linecap="round" stroke-linejoin="round" stroke-width="6" opacity="0.7"><circle cx="12.706" cy="12.706" r="12.706" stroke="none"/><circle cx="12.706" cy="12.706" r="9.706" fill="none"/></g><g transform="translate(1310.692 1324.749)" fill="none" stroke="#00bfa5" stroke-linecap="round" stroke-linejoin="round" stroke-width="6" opacity="0.5"><circle cx="12.706" cy="12.706" r="12.706" stroke="none"/><circle cx="12.706" cy="12.706" r="9.706" fill="none"/></g></g></g></g></svg>