<svg xmlns="http://www.w3.org/2000/svg" width="602" height="2070.5" viewBox="0 0 602 2070.5"><g transform="translate(197.5 -401.5)"><path d="M1141.5-2567a302.711,302.711,0,0,1-60.561-6.105,299,299,0,0,1-56.407-17.51,300.518,300.518,0,0,1-51.044-27.706,302.646,302.646,0,0,1-44.473-36.694,302.641,302.641,0,0,1-36.694-44.473,300.527,300.527,0,0,1-27.706-51.044,298.993,298.993,0,0,1-17.51-56.407A302.728,302.728,0,0,1,841-2867.5a302.728,302.728,0,0,1,6.105-60.561,298.986,298.986,0,0,1,17.51-56.407,300.542,300.542,0,0,1,27.706-51.044,302.652,302.652,0,0,1,36.694-44.473,302.649,302.649,0,0,1,44.473-36.694,300.539,300.539,0,0,1,51.044-27.706,299.021,299.021,0,0,1,56.407-17.51,302.729,302.729,0,0,1,60.561-6.1,302.729,302.729,0,0,1,60.561,6.1,299.007,299.007,0,0,1,56.407,17.51,300.545,300.545,0,0,1,51.044,27.706,302.639,302.639,0,0,1,44.473,36.694,302.659,302.659,0,0,1,36.694,44.473,300.532,300.532,0,0,1,27.706,51.044,298.986,298.986,0,0,1,17.51,56.407A302.724,302.724,0,0,1,1442-2867.5a302.724,302.724,0,0,1-6.105,60.561,298.994,298.994,0,0,1-17.51,56.407,300.516,300.516,0,0,1-27.706,51.044,302.635,302.635,0,0,1-36.694,44.473,302.639,302.639,0,0,1-44.473,36.694,300.518,300.518,0,0,1-51.044,27.706,299,299,0,0,1-56.407,17.51A302.711,302.711,0,0,1,1141.5-2567Zm0-463.5a164.2,164.2,0,0,0-32.85,3.312,162.181,162.181,0,0,0-30.6,9.5,163.02,163.02,0,0,0-27.688,15.028,164.156,164.156,0,0,0-24.124,19.9,164.186,164.186,0,0,0-19.9,24.123,163.032,163.032,0,0,0-15.028,27.688,162.163,162.163,0,0,0-9.5,30.6,164.2,164.2,0,0,0-3.312,32.85,164.2,164.2,0,0,0,3.312,32.85,162.163,162.163,0,0,0,9.5,30.6,163.007,163.007,0,0,0,15.028,27.688,164.169,164.169,0,0,0,19.9,24.123,164.164,164.164,0,0,0,24.124,19.9,162.993,162.993,0,0,0,27.688,15.029,162.187,162.187,0,0,0,30.6,9.5,164.2,164.2,0,0,0,32.85,3.312,164.2,164.2,0,0,0,32.85-3.312,162.173,162.173,0,0,0,30.6-9.5,163.014,163.014,0,0,0,27.688-15.029,164.15,164.15,0,0,0,24.123-19.9,164.164,164.164,0,0,0,19.9-24.123,163.014,163.014,0,0,0,15.029-27.688,162.179,162.179,0,0,0,9.5-30.6,164.211,164.211,0,0,0,3.312-32.85,164.211,164.211,0,0,0-3.312-32.85,162.179,162.179,0,0,0-9.5-30.6,163.019,163.019,0,0,0-15.029-27.688,164.181,164.181,0,0,0-19.9-24.123,164.155,164.155,0,0,0-24.123-19.9,163.028,163.028,0,0,0-27.688-15.028,162.185,162.185,0,0,0-30.6-9.5A164.2,164.2,0,0,0,1141.5-3030.5Z" transform="translate(-1038 3570)" fill="#00bfa5" stroke="rgba(0,0,0,0)" stroke-miterlimit="10" stroke-width="1" opacity="0.1"/><rect width="80" height="1469" transform="translate(68 1003)" fill="#eff1ff"/></g></svg>