<svg xmlns="http://www.w3.org/2000/svg" xmlns:xlink="http://www.w3.org/1999/xlink" width="2299.108" height="1523.085" viewBox="0 0 2299.108 1523.085"><defs><clipPath id="a"><rect width="226" height="309" fill="none"/></clipPath></defs><g transform="translate(143.5 -4906.7)"><path d="M70.108,403.3-1679.906,29.014c-102.039-18.723-200.792,46.211-224.807,147.818L-2229,1548.887l1895.713-232.376c77.678-8.259,142.98-62.368,165.986-137.536Z" transform="translate(2085.5 4880.898)" fill="#00bfa5" opacity="0.05"/><g transform="translate(-1045 4731)"><g transform="translate(2565.654 1106.654)" opacity="0.5"><line x1="0.123" y2="19.062" transform="translate(-1190.839 -96.751)" fill="none" stroke="#3d5afe" stroke-linejoin="round" stroke-width="5"/><line x1="19.062" y1="0.123" transform="translate(-1200.308 -87.282)" fill="none" stroke="#3d5afe" stroke-linejoin="round" stroke-width="5"/></g><g transform="translate(2329 917.123)"><line x1="0.073" y2="11.362" transform="translate(-1194.31 6.413)" stroke-width="4" stroke="#00bfa5" stroke-linecap="round" stroke-linejoin="round" fill="none"/><line x1="11.362" y1="0.073" transform="translate(-1199.955 12.058)" stroke-width="4" stroke="#00bfa5" stroke-linecap="round" stroke-linejoin="round" fill="none"/></g><g transform="translate(2337 1147)" opacity="0.3"><line x1="9.892" y2="6.202" transform="translate(-1116.047 -46.31)" stroke-width="4" stroke="#1a237e" stroke-linecap="round" stroke-linejoin="round" fill="none"/><line x1="6.202" y1="9.892" transform="translate(-1114.202 -48.155)" stroke-width="4" stroke="#1a237e" stroke-linecap="round" stroke-linejoin="round" fill="none"/></g><g transform="translate(2266 1713)" opacity="0.4"><line x1="0.149" y2="23.214" transform="translate(-1103.364 -151.81)" fill="none" stroke="#00bfa5" stroke-linejoin="round" stroke-width="6"/><line x1="23.214" y1="0.149" transform="translate(-1114.896 -140.278)" fill="none" stroke="#00bfa5" stroke-linejoin="round" stroke-width="6"/></g><g transform="translate(1208.633 895.219)" fill="none" stroke="#3d5afe" stroke-linecap="round" stroke-linejoin="round" stroke-width="6" opacity="0.7"><circle cx="12.706" cy="12.706" r="12.706" stroke="none"/><circle cx="12.706" cy="12.706" r="9.706" fill="none"/></g><g transform="translate(1310.692 1324.749)" fill="none" stroke="#00bfa5" stroke-linecap="round" stroke-linejoin="round" stroke-width="6" opacity="0.5"><circle cx="12.706" cy="12.706" r="12.706" stroke="none"/><circle cx="12.706" cy="12.706" r="9.706" fill="none"/></g></g><g transform="translate(523 4268)"><g transform="translate(2565.654 1106.654)" opacity="0.5"><line x1="0.123" y2="19.062" transform="translate(-1190.839 -96.751)" fill="none" stroke="#3d5afe" stroke-linejoin="round" stroke-width="5"/><line x1="19.062" y1="0.123" transform="translate(-1200.308 -87.282)" fill="none" stroke="#3d5afe" stroke-linejoin="round" stroke-width="5"/></g><g transform="translate(2329 917.123)"><line x1="0.073" y2="11.362" transform="translate(-1194.31 6.413)" stroke-width="4" stroke="#00bfa5" stroke-linecap="round" stroke-linejoin="round" fill="none"/><line x1="11.362" y1="0.073" transform="translate(-1199.955 12.058)" stroke-width="4" stroke="#00bfa5" stroke-linecap="round" stroke-linejoin="round" fill="none"/></g><g transform="translate(2337 1147)" opacity="0.3"><line x1="9.892" y2="6.202" transform="translate(-1116.047 -46.31)" stroke-width="4" stroke="#1a237e" stroke-linecap="round" stroke-linejoin="round" fill="none"/><line x1="6.202" y1="9.892" transform="translate(-1114.202 -48.155)" stroke-width="4" stroke="#1a237e" stroke-linecap="round" stroke-linejoin="round" fill="none"/></g><g transform="translate(2266 1713)" opacity="0.4"><line x1="0.149" y2="23.214" transform="translate(-1103.364 -151.81)" fill="none" stroke="#00bfa5" stroke-linejoin="round" stroke-width="6"/><line x1="23.214" y1="0.149" transform="translate(-1114.896 -140.278)" fill="none" stroke="#00bfa5" stroke-linejoin="round" stroke-width="6"/></g><g transform="translate(1208.633 895.219)" fill="none" stroke="#3d5afe" stroke-linecap="round" stroke-linejoin="round" stroke-width="6" opacity="0.7"><circle cx="12.706" cy="12.706" r="12.706" stroke="none"/><circle cx="12.706" cy="12.706" r="9.706" fill="none"/></g><g transform="translate(1310.692 1324.749)" fill="none" stroke="#00bfa5" stroke-linecap="round" stroke-linejoin="round" stroke-width="6" opacity="0.5"><circle cx="12.706" cy="12.706" r="12.706" stroke="none"/><circle cx="12.706" cy="12.706" r="9.706" fill="none"/></g></g><g transform="translate(177 5093)" opacity="0.1" clip-path="url(#a)"><g transform="translate(-896 -5313)"><path d="M120,214.5a4.5,4.5,0,1,1,4.5,4.5A4.5,4.5,0,0,1,120,214.5Zm-30,0a4.5,4.5,0,1,1,4.5,4.5A4.5,4.5,0,0,1,90,214.5Zm-30,0a4.5,4.5,0,1,1,4.5,4.5A4.5,4.5,0,0,1,60,214.5Zm-30,0a4.5,4.5,0,1,1,4.5,4.5A4.5,4.5,0,0,1,30,214.5Zm-30,0A4.5,4.5,0,1,1,4.5,219,4.5,4.5,0,0,1,0,214.5Zm120-30a4.5,4.5,0,1,1,4.5,4.5A4.5,4.5,0,0,1,120,184.5Zm-30,0a4.5,4.5,0,1,1,4.5,4.5A4.5,4.5,0,0,1,90,184.5Zm-30,0a4.5,4.5,0,1,1,4.5,4.5A4.5,4.5,0,0,1,60,184.5Zm-30,0a4.5,4.5,0,1,1,4.5,4.5A4.5,4.5,0,0,1,30,184.5Zm-30,0A4.5,4.5,0,1,1,4.5,189,4.5,4.5,0,0,1,0,184.5Zm120-30a4.5,4.5,0,1,1,4.5,4.5A4.5,4.5,0,0,1,120,154.5Zm-30,0a4.5,4.5,0,1,1,4.5,4.5A4.5,4.5,0,0,1,90,154.5Zm-30,0a4.5,4.5,0,1,1,4.5,4.5A4.5,4.5,0,0,1,60,154.5Zm-30,0a4.5,4.5,0,1,1,4.5,4.5A4.5,4.5,0,0,1,30,154.5Zm-30,0A4.5,4.5,0,1,1,4.5,159,4.5,4.5,0,0,1,0,154.5Zm120-30a4.5,4.5,0,1,1,4.5,4.5A4.5,4.5,0,0,1,120,124.5Zm-30,0a4.5,4.5,0,1,1,4.5,4.5A4.5,4.5,0,0,1,90,124.5Zm-30,0a4.5,4.5,0,1,1,4.5,4.5A4.5,4.5,0,0,1,60,124.5Zm-30,0a4.5,4.5,0,1,1,4.5,4.5A4.5,4.5,0,0,1,30,124.5Zm-30,0A4.5,4.5,0,1,1,4.5,129,4.5,4.5,0,0,1,0,124.5Zm120-30a4.5,4.5,0,1,1,4.5,4.5A4.5,4.5,0,0,1,120,94.5Zm-30,0A4.5,4.5,0,1,1,94.5,99,4.5,4.5,0,0,1,90,94.5Zm-30,0A4.5,4.5,0,1,1,64.5,99,4.5,4.5,0,0,1,60,94.5Zm-30,0A4.5,4.5,0,1,1,34.5,99,4.5,4.5,0,0,1,30,94.5Zm-30,0A4.5,4.5,0,1,1,4.5,99,4.5,4.5,0,0,1,0,94.5Zm120-30a4.5,4.5,0,1,1,4.5,4.5A4.5,4.5,0,0,1,120,64.5Zm-30,0A4.5,4.5,0,1,1,94.5,69,4.5,4.5,0,0,1,90,64.5Zm-30,0A4.5,4.5,0,1,1,64.5,69,4.5,4.5,0,0,1,60,64.5Zm-30,0A4.5,4.5,0,1,1,34.5,69,4.5,4.5,0,0,1,30,64.5Zm-30,0A4.5,4.5,0,1,1,4.5,69,4.5,4.5,0,0,1,0,64.5Zm120-30a4.5,4.5,0,1,1,4.5,4.5A4.5,4.5,0,0,1,120,34.5Zm-30,0A4.5,4.5,0,1,1,94.5,39,4.5,4.5,0,0,1,90,34.5Zm-30,0A4.5,4.5,0,1,1,64.5,39,4.5,4.5,0,0,1,60,34.5Zm-30,0A4.5,4.5,0,1,1,34.5,39,4.5,4.5,0,0,1,30,34.5Zm-30,0A4.5,4.5,0,1,1,4.5,39,4.5,4.5,0,0,1,0,34.5Zm120-30A4.5,4.5,0,1,1,124.5,9,4.5,4.5,0,0,1,120,4.5Zm-30,0A4.5,4.5,0,1,1,94.5,9,4.5,4.5,0,0,1,90,4.5Zm-30,0A4.5,4.5,0,1,1,64.5,9,4.5,4.5,0,0,1,60,4.5Zm-30,0A4.5,4.5,0,1,1,34.5,9,4.5,4.5,0,0,1,30,4.5ZM0,4.5A4.5,4.5,0,1,1,4.5,9,4.5,4.5,0,0,1,0,4.5Z" transform="translate(896 5313)" fill="#3d5afe"/></g><g transform="translate(-747 -5313)"><path d="M120,214.5a4.5,4.5,0,1,1,4.5,4.5A4.5,4.5,0,0,1,120,214.5Zm-30,0a4.5,4.5,0,1,1,4.5,4.5A4.5,4.5,0,0,1,90,214.5Zm-30,0a4.5,4.5,0,1,1,4.5,4.5A4.5,4.5,0,0,1,60,214.5Zm-30,0a4.5,4.5,0,1,1,4.5,4.5A4.5,4.5,0,0,1,30,214.5Zm-30,0A4.5,4.5,0,1,1,4.5,219,4.5,4.5,0,0,1,0,214.5Zm120-30a4.5,4.5,0,1,1,4.5,4.5A4.5,4.5,0,0,1,120,184.5Zm-30,0a4.5,4.5,0,1,1,4.5,4.5A4.5,4.5,0,0,1,90,184.5Zm-30,0a4.5,4.5,0,1,1,4.5,4.5A4.5,4.5,0,0,1,60,184.5Zm-30,0a4.5,4.5,0,1,1,4.5,4.5A4.5,4.5,0,0,1,30,184.5Zm-30,0A4.5,4.5,0,1,1,4.5,189,4.5,4.5,0,0,1,0,184.5Zm120-30a4.5,4.5,0,1,1,4.5,4.5A4.5,4.5,0,0,1,120,154.5Zm-30,0a4.5,4.5,0,1,1,4.5,4.5A4.5,4.5,0,0,1,90,154.5Zm-30,0a4.5,4.5,0,1,1,4.5,4.5A4.5,4.5,0,0,1,60,154.5Zm-30,0a4.5,4.5,0,1,1,4.5,4.5A4.5,4.5,0,0,1,30,154.5Zm-30,0A4.5,4.5,0,1,1,4.5,159,4.5,4.5,0,0,1,0,154.5Zm120-30a4.5,4.5,0,1,1,4.5,4.5A4.5,4.5,0,0,1,120,124.5Zm-30,0a4.5,4.5,0,1,1,4.5,4.5A4.5,4.5,0,0,1,90,124.5Zm-30,0a4.5,4.5,0,1,1,4.5,4.5A4.5,4.5,0,0,1,60,124.5Zm-30,0a4.5,4.5,0,1,1,4.5,4.5A4.5,4.5,0,0,1,30,124.5Zm-30,0A4.5,4.5,0,1,1,4.5,129,4.5,4.5,0,0,1,0,124.5Zm120-30a4.5,4.5,0,1,1,4.5,4.5A4.5,4.5,0,0,1,120,94.5Zm-30,0A4.5,4.5,0,1,1,94.5,99,4.5,4.5,0,0,1,90,94.5Zm-30,0A4.5,4.5,0,1,1,64.5,99,4.5,4.5,0,0,1,60,94.5Zm-30,0A4.5,4.5,0,1,1,34.5,99,4.5,4.5,0,0,1,30,94.5Zm-30,0A4.5,4.5,0,1,1,4.5,99,4.5,4.5,0,0,1,0,94.5Zm120-30a4.5,4.5,0,1,1,4.5,4.5A4.5,4.5,0,0,1,120,64.5Zm-30,0A4.5,4.5,0,1,1,94.5,69,4.5,4.5,0,0,1,90,64.5Zm-30,0A4.5,4.5,0,1,1,64.5,69,4.5,4.5,0,0,1,60,64.5Zm-30,0A4.5,4.5,0,1,1,34.5,69,4.5,4.5,0,0,1,30,64.5Zm-30,0A4.5,4.5,0,1,1,4.5,69,4.5,4.5,0,0,1,0,64.5Zm120-30a4.5,4.5,0,1,1,4.5,4.5A4.5,4.5,0,0,1,120,34.5Zm-30,0A4.5,4.5,0,1,1,94.5,39,4.5,4.5,0,0,1,90,34.5Zm-30,0A4.5,4.5,0,1,1,64.5,39,4.5,4.5,0,0,1,60,34.5Zm-30,0A4.5,4.5,0,1,1,34.5,39,4.5,4.5,0,0,1,30,34.5Zm-30,0A4.5,4.5,0,1,1,4.5,39,4.5,4.5,0,0,1,0,34.5Zm120-30A4.5,4.5,0,1,1,124.5,9,4.5,4.5,0,0,1,120,4.5Zm-30,0A4.5,4.5,0,1,1,94.5,9,4.5,4.5,0,0,1,90,4.5Zm-30,0A4.5,4.5,0,1,1,64.5,9,4.5,4.5,0,0,1,60,4.5Zm-30,0A4.5,4.5,0,1,1,34.5,9,4.5,4.5,0,0,1,30,4.5ZM0,4.5A4.5,4.5,0,1,1,4.5,9,4.5,4.5,0,0,1,0,4.5Z" transform="translate(896 5313)" fill="#3d5afe"/></g><g transform="translate(-896 -5074)"><path d="M120,214.5a4.5,4.5,0,1,1,4.5,4.5A4.5,4.5,0,0,1,120,214.5Zm-30,0a4.5,4.5,0,1,1,4.5,4.5A4.5,4.5,0,0,1,90,214.5Zm-30,0a4.5,4.5,0,1,1,4.5,4.5A4.5,4.5,0,0,1,60,214.5Zm-30,0a4.5,4.5,0,1,1,4.5,4.5A4.5,4.5,0,0,1,30,214.5Zm-30,0A4.5,4.5,0,1,1,4.5,219,4.5,4.5,0,0,1,0,214.5Zm120-30a4.5,4.5,0,1,1,4.5,4.5A4.5,4.5,0,0,1,120,184.5Zm-30,0a4.5,4.5,0,1,1,4.5,4.5A4.5,4.5,0,0,1,90,184.5Zm-30,0a4.5,4.5,0,1,1,4.5,4.5A4.5,4.5,0,0,1,60,184.5Zm-30,0a4.5,4.5,0,1,1,4.5,4.5A4.5,4.5,0,0,1,30,184.5Zm-30,0A4.5,4.5,0,1,1,4.5,189,4.5,4.5,0,0,1,0,184.5Zm120-30a4.5,4.5,0,1,1,4.5,4.5A4.5,4.5,0,0,1,120,154.5Zm-30,0a4.5,4.5,0,1,1,4.5,4.5A4.5,4.5,0,0,1,90,154.5Zm-30,0a4.5,4.5,0,1,1,4.5,4.5A4.5,4.5,0,0,1,60,154.5Zm-30,0a4.5,4.5,0,1,1,4.5,4.5A4.5,4.5,0,0,1,30,154.5Zm-30,0A4.5,4.5,0,1,1,4.5,159,4.5,4.5,0,0,1,0,154.5Zm120-30a4.5,4.5,0,1,1,4.5,4.5A4.5,4.5,0,0,1,120,124.5Zm-30,0a4.5,4.5,0,1,1,4.5,4.5A4.5,4.5,0,0,1,90,124.5Zm-30,0a4.5,4.5,0,1,1,4.5,4.5A4.5,4.5,0,0,1,60,124.5Zm-30,0a4.5,4.5,0,1,1,4.5,4.5A4.5,4.5,0,0,1,30,124.5Zm-30,0A4.5,4.5,0,1,1,4.5,129,4.5,4.5,0,0,1,0,124.5Zm120-30a4.5,4.5,0,1,1,4.5,4.5A4.5,4.5,0,0,1,120,94.5Zm-30,0A4.5,4.5,0,1,1,94.5,99,4.5,4.5,0,0,1,90,94.5Zm-30,0A4.5,4.5,0,1,1,64.5,99,4.5,4.5,0,0,1,60,94.5Zm-30,0A4.5,4.5,0,1,1,34.5,99,4.5,4.5,0,0,1,30,94.5Zm-30,0A4.5,4.5,0,1,1,4.5,99,4.5,4.5,0,0,1,0,94.5Zm120-30a4.5,4.5,0,1,1,4.5,4.5A4.5,4.5,0,0,1,120,64.5Zm-30,0A4.5,4.5,0,1,1,94.5,69,4.5,4.5,0,0,1,90,64.5Zm-30,0A4.5,4.5,0,1,1,64.5,69,4.5,4.5,0,0,1,60,64.5Zm-30,0A4.5,4.5,0,1,1,34.5,69,4.5,4.5,0,0,1,30,64.5Zm-30,0A4.5,4.5,0,1,1,4.5,69,4.5,4.5,0,0,1,0,64.5Zm120-30a4.5,4.5,0,1,1,4.5,4.5A4.5,4.5,0,0,1,120,34.5Zm-30,0A4.5,4.5,0,1,1,94.5,39,4.5,4.5,0,0,1,90,34.5Zm-30,0A4.5,4.5,0,1,1,64.5,39,4.5,4.5,0,0,1,60,34.5Zm-30,0A4.5,4.5,0,1,1,34.5,39,4.5,4.5,0,0,1,30,34.5Zm-30,0A4.5,4.5,0,1,1,4.5,39,4.5,4.5,0,0,1,0,34.5Zm120-30A4.5,4.5,0,1,1,124.5,9,4.5,4.5,0,0,1,120,4.5Zm-30,0A4.5,4.5,0,1,1,94.5,9,4.5,4.5,0,0,1,90,4.5Zm-30,0A4.5,4.5,0,1,1,64.5,9,4.5,4.5,0,0,1,60,4.5Zm-30,0A4.5,4.5,0,1,1,34.5,9,4.5,4.5,0,0,1,30,4.5ZM0,4.5A4.5,4.5,0,1,1,4.5,9,4.5,4.5,0,0,1,0,4.5Z" transform="translate(896 5313)" fill="#3d5afe"/></g><g transform="translate(-747 -5074)"><path d="M120,214.5a4.5,4.5,0,1,1,4.5,4.5A4.5,4.5,0,0,1,120,214.5Zm-30,0a4.5,4.5,0,1,1,4.5,4.5A4.5,4.5,0,0,1,90,214.5Zm-30,0a4.5,4.5,0,1,1,4.5,4.5A4.5,4.5,0,0,1,60,214.5Zm-30,0a4.5,4.5,0,1,1,4.5,4.5A4.5,4.5,0,0,1,30,214.5Zm-30,0A4.5,4.5,0,1,1,4.5,219,4.5,4.5,0,0,1,0,214.5Zm120-30a4.5,4.5,0,1,1,4.5,4.5A4.5,4.5,0,0,1,120,184.5Zm-30,0a4.5,4.5,0,1,1,4.5,4.5A4.5,4.5,0,0,1,90,184.5Zm-30,0a4.5,4.5,0,1,1,4.5,4.5A4.5,4.5,0,0,1,60,184.5Zm-30,0a4.5,4.5,0,1,1,4.5,4.5A4.5,4.5,0,0,1,30,184.5Zm-30,0A4.5,4.5,0,1,1,4.5,189,4.5,4.5,0,0,1,0,184.5Zm120-30a4.5,4.5,0,1,1,4.5,4.5A4.5,4.5,0,0,1,120,154.5Zm-30,0a4.5,4.5,0,1,1,4.5,4.5A4.5,4.5,0,0,1,90,154.5Zm-30,0a4.5,4.5,0,1,1,4.5,4.5A4.5,4.5,0,0,1,60,154.5Zm-30,0a4.5,4.5,0,1,1,4.5,4.5A4.5,4.5,0,0,1,30,154.5Zm-30,0A4.5,4.5,0,1,1,4.5,159,4.5,4.5,0,0,1,0,154.5Zm120-30a4.5,4.5,0,1,1,4.5,4.5A4.5,4.5,0,0,1,120,124.5Zm-30,0a4.5,4.5,0,1,1,4.5,4.5A4.5,4.5,0,0,1,90,124.5Zm-30,0a4.5,4.5,0,1,1,4.5,4.5A4.5,4.5,0,0,1,60,124.5Zm-30,0a4.5,4.5,0,1,1,4.5,4.5A4.5,4.5,0,0,1,30,124.5Zm-30,0A4.5,4.5,0,1,1,4.5,129,4.5,4.5,0,0,1,0,124.5Zm120-30a4.5,4.5,0,1,1,4.5,4.5A4.5,4.5,0,0,1,120,94.5Zm-30,0A4.5,4.5,0,1,1,94.5,99,4.5,4.5,0,0,1,90,94.5Zm-30,0A4.5,4.5,0,1,1,64.5,99,4.5,4.5,0,0,1,60,94.5Zm-30,0A4.5,4.5,0,1,1,34.5,99,4.5,4.5,0,0,1,30,94.5Zm-30,0A4.5,4.5,0,1,1,4.5,99,4.5,4.5,0,0,1,0,94.5Zm120-30a4.5,4.5,0,1,1,4.5,4.5A4.5,4.5,0,0,1,120,64.5Zm-30,0A4.5,4.5,0,1,1,94.5,69,4.5,4.5,0,0,1,90,64.5Zm-30,0A4.5,4.5,0,1,1,64.5,69,4.5,4.5,0,0,1,60,64.5Zm-30,0A4.5,4.5,0,1,1,34.5,69,4.5,4.5,0,0,1,30,64.5Zm-30,0A4.5,4.5,0,1,1,4.5,69,4.5,4.5,0,0,1,0,64.5Zm120-30a4.5,4.5,0,1,1,4.5,4.5A4.5,4.5,0,0,1,120,34.5Zm-30,0A4.5,4.5,0,1,1,94.5,39,4.5,4.5,0,0,1,90,34.5Zm-30,0A4.5,4.5,0,1,1,64.5,39,4.5,4.5,0,0,1,60,34.5Zm-30,0A4.5,4.5,0,1,1,34.5,39,4.5,4.5,0,0,1,30,34.5Zm-30,0A4.5,4.5,0,1,1,4.5,39,4.5,4.5,0,0,1,0,34.5Zm120-30A4.5,4.5,0,1,1,124.5,9,4.5,4.5,0,0,1,120,4.5Zm-30,0A4.5,4.5,0,1,1,94.5,9,4.5,4.5,0,0,1,90,4.5Zm-30,0A4.5,4.5,0,1,1,64.5,9,4.5,4.5,0,0,1,60,4.5Zm-30,0A4.5,4.5,0,1,1,34.5,9,4.5,4.5,0,0,1,30,4.5ZM0,4.5A4.5,4.5,0,1,1,4.5,9,4.5,4.5,0,0,1,0,4.5Z" transform="translate(896 5313)" fill="#3d5afe"/></g></g><g transform="translate(1617 5858)" opacity="0.2" clip-path="url(#a)"><g transform="translate(-896 -5313)"><path d="M120,214.5a4.5,4.5,0,1,1,4.5,4.5A4.5,4.5,0,0,1,120,214.5Zm-30,0a4.5,4.5,0,1,1,4.5,4.5A4.5,4.5,0,0,1,90,214.5Zm-30,0a4.5,4.5,0,1,1,4.5,4.5A4.5,4.5,0,0,1,60,214.5Zm-30,0a4.5,4.5,0,1,1,4.5,4.5A4.5,4.5,0,0,1,30,214.5Zm-30,0A4.5,4.5,0,1,1,4.5,219,4.5,4.5,0,0,1,0,214.5Zm120-30a4.5,4.5,0,1,1,4.5,4.5A4.5,4.5,0,0,1,120,184.5Zm-30,0a4.5,4.5,0,1,1,4.5,4.5A4.5,4.5,0,0,1,90,184.5Zm-30,0a4.5,4.5,0,1,1,4.5,4.5A4.5,4.5,0,0,1,60,184.5Zm-30,0a4.5,4.5,0,1,1,4.5,4.5A4.5,4.5,0,0,1,30,184.5Zm-30,0A4.5,4.5,0,1,1,4.5,189,4.5,4.5,0,0,1,0,184.5Zm120-30a4.5,4.5,0,1,1,4.5,4.5A4.5,4.5,0,0,1,120,154.5Zm-30,0a4.5,4.5,0,1,1,4.5,4.5A4.5,4.5,0,0,1,90,154.5Zm-30,0a4.5,4.5,0,1,1,4.5,4.5A4.5,4.5,0,0,1,60,154.5Zm-30,0a4.5,4.5,0,1,1,4.5,4.5A4.5,4.5,0,0,1,30,154.5Zm-30,0A4.5,4.5,0,1,1,4.5,159,4.5,4.5,0,0,1,0,154.5Zm120-30a4.5,4.5,0,1,1,4.5,4.5A4.5,4.5,0,0,1,120,124.5Zm-30,0a4.5,4.5,0,1,1,4.5,4.5A4.5,4.5,0,0,1,90,124.5Zm-30,0a4.5,4.5,0,1,1,4.5,4.5A4.5,4.5,0,0,1,60,124.5Zm-30,0a4.5,4.5,0,1,1,4.5,4.5A4.5,4.5,0,0,1,30,124.5Zm-30,0A4.5,4.5,0,1,1,4.5,129,4.5,4.5,0,0,1,0,124.5Zm120-30a4.5,4.5,0,1,1,4.5,4.5A4.5,4.5,0,0,1,120,94.5Zm-30,0A4.5,4.5,0,1,1,94.5,99,4.5,4.5,0,0,1,90,94.5Zm-30,0A4.5,4.5,0,1,1,64.5,99,4.5,4.5,0,0,1,60,94.5Zm-30,0A4.5,4.5,0,1,1,34.5,99,4.5,4.5,0,0,1,30,94.5Zm-30,0A4.5,4.5,0,1,1,4.5,99,4.5,4.5,0,0,1,0,94.5Zm120-30a4.5,4.5,0,1,1,4.5,4.5A4.5,4.5,0,0,1,120,64.5Zm-30,0A4.5,4.5,0,1,1,94.5,69,4.5,4.5,0,0,1,90,64.5Zm-30,0A4.5,4.5,0,1,1,64.5,69,4.5,4.5,0,0,1,60,64.5Zm-30,0A4.5,4.5,0,1,1,34.5,69,4.5,4.5,0,0,1,30,64.5Zm-30,0A4.5,4.5,0,1,1,4.5,69,4.5,4.5,0,0,1,0,64.5Zm120-30a4.5,4.5,0,1,1,4.5,4.5A4.5,4.5,0,0,1,120,34.5Zm-30,0A4.5,4.5,0,1,1,94.5,39,4.5,4.5,0,0,1,90,34.5Zm-30,0A4.5,4.5,0,1,1,64.5,39,4.5,4.5,0,0,1,60,34.5Zm-30,0A4.5,4.5,0,1,1,34.5,39,4.5,4.5,0,0,1,30,34.5Zm-30,0A4.5,4.5,0,1,1,4.5,39,4.5,4.5,0,0,1,0,34.5Zm120-30A4.5,4.5,0,1,1,124.5,9,4.5,4.5,0,0,1,120,4.5Zm-30,0A4.5,4.5,0,1,1,94.5,9,4.5,4.5,0,0,1,90,4.5Zm-30,0A4.5,4.5,0,1,1,64.5,9,4.5,4.5,0,0,1,60,4.5Zm-30,0A4.5,4.5,0,1,1,34.5,9,4.5,4.5,0,0,1,30,4.5ZM0,4.5A4.5,4.5,0,1,1,4.5,9,4.5,4.5,0,0,1,0,4.5Z" transform="translate(896 5313)" fill="#3d5afe"/></g><g transform="translate(-747 -5313)"><path d="M120,214.5a4.5,4.5,0,1,1,4.5,4.5A4.5,4.5,0,0,1,120,214.5Zm-30,0a4.5,4.5,0,1,1,4.5,4.5A4.5,4.5,0,0,1,90,214.5Zm-30,0a4.5,4.5,0,1,1,4.5,4.5A4.5,4.5,0,0,1,60,214.5Zm-30,0a4.5,4.5,0,1,1,4.5,4.5A4.5,4.5,0,0,1,30,214.5Zm-30,0A4.5,4.5,0,1,1,4.5,219,4.5,4.5,0,0,1,0,214.5Zm120-30a4.5,4.5,0,1,1,4.5,4.5A4.5,4.5,0,0,1,120,184.5Zm-30,0a4.5,4.5,0,1,1,4.5,4.5A4.5,4.5,0,0,1,90,184.5Zm-30,0a4.5,4.5,0,1,1,4.5,4.5A4.5,4.5,0,0,1,60,184.5Zm-30,0a4.5,4.5,0,1,1,4.5,4.5A4.5,4.5,0,0,1,30,184.5Zm-30,0A4.5,4.5,0,1,1,4.5,189,4.5,4.5,0,0,1,0,184.5Zm120-30a4.5,4.5,0,1,1,4.5,4.5A4.5,4.5,0,0,1,120,154.5Zm-30,0a4.5,4.5,0,1,1,4.5,4.5A4.5,4.5,0,0,1,90,154.5Zm-30,0a4.5,4.5,0,1,1,4.5,4.5A4.5,4.5,0,0,1,60,154.5Zm-30,0a4.5,4.5,0,1,1,4.5,4.5A4.5,4.5,0,0,1,30,154.5Zm-30,0A4.5,4.5,0,1,1,4.5,159,4.5,4.5,0,0,1,0,154.5Zm120-30a4.5,4.5,0,1,1,4.5,4.5A4.5,4.5,0,0,1,120,124.5Zm-30,0a4.5,4.5,0,1,1,4.5,4.5A4.5,4.5,0,0,1,90,124.5Zm-30,0a4.5,4.5,0,1,1,4.5,4.5A4.5,4.5,0,0,1,60,124.5Zm-30,0a4.5,4.5,0,1,1,4.5,4.5A4.5,4.5,0,0,1,30,124.5Zm-30,0A4.5,4.5,0,1,1,4.5,129,4.5,4.5,0,0,1,0,124.5Zm120-30a4.5,4.5,0,1,1,4.5,4.5A4.5,4.5,0,0,1,120,94.5Zm-30,0A4.5,4.5,0,1,1,94.5,99,4.5,4.5,0,0,1,90,94.5Zm-30,0A4.5,4.5,0,1,1,64.5,99,4.5,4.5,0,0,1,60,94.5Zm-30,0A4.5,4.5,0,1,1,34.5,99,4.5,4.5,0,0,1,30,94.5Zm-30,0A4.5,4.5,0,1,1,4.5,99,4.5,4.5,0,0,1,0,94.5Zm120-30a4.5,4.5,0,1,1,4.5,4.5A4.5,4.5,0,0,1,120,64.5Zm-30,0A4.5,4.5,0,1,1,94.5,69,4.5,4.5,0,0,1,90,64.5Zm-30,0A4.5,4.5,0,1,1,64.5,69,4.5,4.5,0,0,1,60,64.5Zm-30,0A4.5,4.5,0,1,1,34.5,69,4.5,4.5,0,0,1,30,64.5Zm-30,0A4.5,4.5,0,1,1,4.5,69,4.5,4.5,0,0,1,0,64.5Zm120-30a4.5,4.5,0,1,1,4.5,4.5A4.5,4.5,0,0,1,120,34.5Zm-30,0A4.5,4.5,0,1,1,94.5,39,4.5,4.5,0,0,1,90,34.5Zm-30,0A4.5,4.5,0,1,1,64.5,39,4.5,4.5,0,0,1,60,34.5Zm-30,0A4.5,4.5,0,1,1,34.5,39,4.5,4.5,0,0,1,30,34.5Zm-30,0A4.5,4.5,0,1,1,4.5,39,4.5,4.5,0,0,1,0,34.5Zm120-30A4.5,4.5,0,1,1,124.5,9,4.5,4.5,0,0,1,120,4.5Zm-30,0A4.5,4.5,0,1,1,94.5,9,4.5,4.5,0,0,1,90,4.5Zm-30,0A4.5,4.5,0,1,1,64.5,9,4.5,4.5,0,0,1,60,4.5Zm-30,0A4.5,4.5,0,1,1,34.5,9,4.5,4.5,0,0,1,30,4.5ZM0,4.5A4.5,4.5,0,1,1,4.5,9,4.5,4.5,0,0,1,0,4.5Z" transform="translate(896 5313)" fill="#3d5afe"/></g><g transform="translate(-896 -5074)"><path d="M120,214.5a4.5,4.5,0,1,1,4.5,4.5A4.5,4.5,0,0,1,120,214.5Zm-30,0a4.5,4.5,0,1,1,4.5,4.5A4.5,4.5,0,0,1,90,214.5Zm-30,0a4.5,4.5,0,1,1,4.5,4.5A4.5,4.5,0,0,1,60,214.5Zm-30,0a4.5,4.5,0,1,1,4.5,4.5A4.5,4.5,0,0,1,30,214.5Zm-30,0A4.5,4.5,0,1,1,4.5,219,4.5,4.5,0,0,1,0,214.5Zm120-30a4.5,4.5,0,1,1,4.5,4.5A4.5,4.5,0,0,1,120,184.5Zm-30,0a4.5,4.5,0,1,1,4.5,4.5A4.5,4.5,0,0,1,90,184.5Zm-30,0a4.5,4.5,0,1,1,4.5,4.5A4.5,4.5,0,0,1,60,184.5Zm-30,0a4.5,4.5,0,1,1,4.5,4.5A4.5,4.5,0,0,1,30,184.5Zm-30,0A4.5,4.5,0,1,1,4.5,189,4.5,4.5,0,0,1,0,184.5Zm120-30a4.5,4.5,0,1,1,4.5,4.5A4.5,4.5,0,0,1,120,154.5Zm-30,0a4.5,4.5,0,1,1,4.5,4.5A4.5,4.5,0,0,1,90,154.5Zm-30,0a4.5,4.5,0,1,1,4.5,4.5A4.5,4.5,0,0,1,60,154.5Zm-30,0a4.5,4.5,0,1,1,4.5,4.5A4.5,4.5,0,0,1,30,154.5Zm-30,0A4.5,4.5,0,1,1,4.5,159,4.5,4.5,0,0,1,0,154.5Zm120-30a4.5,4.5,0,1,1,4.5,4.5A4.5,4.5,0,0,1,120,124.5Zm-30,0a4.5,4.5,0,1,1,4.5,4.5A4.5,4.5,0,0,1,90,124.5Zm-30,0a4.5,4.5,0,1,1,4.5,4.5A4.5,4.5,0,0,1,60,124.5Zm-30,0a4.5,4.5,0,1,1,4.5,4.5A4.5,4.5,0,0,1,30,124.5Zm-30,0A4.5,4.5,0,1,1,4.5,129,4.5,4.5,0,0,1,0,124.5Zm120-30a4.5,4.5,0,1,1,4.5,4.5A4.5,4.5,0,0,1,120,94.5Zm-30,0A4.5,4.5,0,1,1,94.5,99,4.5,4.5,0,0,1,90,94.5Zm-30,0A4.5,4.5,0,1,1,64.5,99,4.5,4.5,0,0,1,60,94.5Zm-30,0A4.5,4.5,0,1,1,34.5,99,4.5,4.5,0,0,1,30,94.5Zm-30,0A4.5,4.5,0,1,1,4.5,99,4.5,4.5,0,0,1,0,94.5Zm120-30a4.5,4.5,0,1,1,4.5,4.5A4.5,4.5,0,0,1,120,64.5Zm-30,0A4.5,4.5,0,1,1,94.5,69,4.5,4.5,0,0,1,90,64.5Zm-30,0A4.5,4.5,0,1,1,64.5,69,4.5,4.5,0,0,1,60,64.5Zm-30,0A4.5,4.5,0,1,1,34.5,69,4.5,4.5,0,0,1,30,64.5Zm-30,0A4.5,4.5,0,1,1,4.5,69,4.5,4.5,0,0,1,0,64.5Zm120-30a4.5,4.5,0,1,1,4.5,4.5A4.5,4.5,0,0,1,120,34.5Zm-30,0A4.5,4.5,0,1,1,94.5,39,4.5,4.5,0,0,1,90,34.5Zm-30,0A4.5,4.5,0,1,1,64.5,39,4.5,4.5,0,0,1,60,34.5Zm-30,0A4.5,4.5,0,1,1,34.5,39,4.5,4.5,0,0,1,30,34.5Zm-30,0A4.5,4.5,0,1,1,4.5,39,4.5,4.5,0,0,1,0,34.5Zm120-30A4.5,4.5,0,1,1,124.5,9,4.5,4.5,0,0,1,120,4.5Zm-30,0A4.5,4.5,0,1,1,94.5,9,4.5,4.5,0,0,1,90,4.5Zm-30,0A4.5,4.5,0,1,1,64.5,9,4.5,4.5,0,0,1,60,4.5Zm-30,0A4.5,4.5,0,1,1,34.5,9,4.5,4.5,0,0,1,30,4.5ZM0,4.5A4.5,4.5,0,1,1,4.5,9,4.5,4.5,0,0,1,0,4.5Z" transform="translate(896 5313)" fill="#3d5afe"/></g><g transform="translate(-747 -5074)"><path d="M120,214.5a4.5,4.5,0,1,1,4.5,4.5A4.5,4.5,0,0,1,120,214.5Zm-30,0a4.5,4.5,0,1,1,4.5,4.5A4.5,4.5,0,0,1,90,214.5Zm-30,0a4.5,4.5,0,1,1,4.5,4.5A4.5,4.5,0,0,1,60,214.5Zm-30,0a4.5,4.5,0,1,1,4.5,4.5A4.5,4.5,0,0,1,30,214.5Zm-30,0A4.5,4.5,0,1,1,4.5,219,4.5,4.5,0,0,1,0,214.5Zm120-30a4.5,4.5,0,1,1,4.5,4.5A4.5,4.5,0,0,1,120,184.5Zm-30,0a4.5,4.5,0,1,1,4.5,4.5A4.5,4.5,0,0,1,90,184.5Zm-30,0a4.5,4.5,0,1,1,4.5,4.5A4.5,4.5,0,0,1,60,184.5Zm-30,0a4.5,4.5,0,1,1,4.5,4.5A4.5,4.5,0,0,1,30,184.5Zm-30,0A4.5,4.5,0,1,1,4.5,189,4.5,4.5,0,0,1,0,184.5Zm120-30a4.5,4.5,0,1,1,4.5,4.5A4.5,4.5,0,0,1,120,154.5Zm-30,0a4.5,4.5,0,1,1,4.5,4.5A4.5,4.5,0,0,1,90,154.5Zm-30,0a4.5,4.5,0,1,1,4.5,4.5A4.5,4.5,0,0,1,60,154.5Zm-30,0a4.5,4.5,0,1,1,4.5,4.5A4.5,4.5,0,0,1,30,154.5Zm-30,0A4.5,4.5,0,1,1,4.5,159,4.5,4.5,0,0,1,0,154.5Zm120-30a4.5,4.5,0,1,1,4.5,4.5A4.5,4.5,0,0,1,120,124.5Zm-30,0a4.5,4.5,0,1,1,4.5,4.5A4.5,4.5,0,0,1,90,124.5Zm-30,0a4.5,4.5,0,1,1,4.5,4.5A4.5,4.5,0,0,1,60,124.5Zm-30,0a4.5,4.5,0,1,1,4.5,4.5A4.5,4.5,0,0,1,30,124.5Zm-30,0A4.5,4.5,0,1,1,4.5,129,4.5,4.5,0,0,1,0,124.5Zm120-30a4.5,4.5,0,1,1,4.5,4.5A4.5,4.5,0,0,1,120,94.5Zm-30,0A4.5,4.5,0,1,1,94.5,99,4.5,4.5,0,0,1,90,94.5Zm-30,0A4.5,4.5,0,1,1,64.5,99,4.5,4.5,0,0,1,60,94.5Zm-30,0A4.5,4.5,0,1,1,34.5,99,4.5,4.5,0,0,1,30,94.5Zm-30,0A4.5,4.5,0,1,1,4.5,99,4.5,4.5,0,0,1,0,94.5Zm120-30a4.5,4.5,0,1,1,4.5,4.5A4.5,4.5,0,0,1,120,64.5Zm-30,0A4.5,4.5,0,1,1,94.5,69,4.5,4.5,0,0,1,90,64.5Zm-30,0A4.5,4.5,0,1,1,64.5,69,4.5,4.5,0,0,1,60,64.5Zm-30,0A4.5,4.5,0,1,1,34.5,69,4.5,4.5,0,0,1,30,64.5Zm-30,0A4.5,4.5,0,1,1,4.5,69,4.5,4.5,0,0,1,0,64.5Zm120-30a4.5,4.5,0,1,1,4.5,4.5A4.5,4.5,0,0,1,120,34.5Zm-30,0A4.5,4.5,0,1,1,94.5,39,4.5,4.5,0,0,1,90,34.5Zm-30,0A4.5,4.5,0,1,1,64.5,39,4.5,4.5,0,0,1,60,34.5Zm-30,0A4.5,4.5,0,1,1,34.5,39,4.5,4.5,0,0,1,30,34.5Zm-30,0A4.5,4.5,0,1,1,4.5,39,4.5,4.5,0,0,1,0,34.5Zm120-30A4.5,4.5,0,1,1,124.5,9,4.5,4.5,0,0,1,120,4.5Zm-30,0A4.5,4.5,0,1,1,94.5,9,4.5,4.5,0,0,1,90,4.5Zm-30,0A4.5,4.5,0,1,1,64.5,9,4.5,4.5,0,0,1,60,4.5Zm-30,0A4.5,4.5,0,1,1,34.5,9,4.5,4.5,0,0,1,30,4.5ZM0,4.5A4.5,4.5,0,1,1,4.5,9,4.5,4.5,0,0,1,0,4.5Z" transform="translate(896 5313)" fill="#3d5afe"/></g></g></g></svg>